<?xml version="1.0" encoding="UTF-8" standalone="no"?>
<svg
   xmlns:dc="http://purl.org/dc/elements/1.1/"
   xmlns:cc="http://creativecommons.org/ns#"
   xmlns:rdf="http://www.w3.org/1999/02/22-rdf-syntax-ns#"
   xmlns:svg="http://www.w3.org/2000/svg"
   xmlns="http://www.w3.org/2000/svg"
   xmlns:sodipodi="http://sodipodi.sourceforge.net/DTD/sodipodi-0.dtd"
   xmlns:inkscape="http://www.inkscape.org/namespaces/inkscape"
   width="210mm"
   height="297mm"
   viewBox="0 0 210 297"
   version="1.1"
   id="svg14232"
   inkscape:version="1.0.2 (1.0.2+r75+1)"
   sodipodi:docname="midi2cv_panels.svg">
  <defs
     id="defs14226" />
  <sodipodi:namedview
     id="base"
     pagecolor="#ffffff"
     bordercolor="#666666"
     borderopacity="1.0"
     inkscape:pageopacity="0.0"
     inkscape:pageshadow="2"
     inkscape:zoom="1.4"
     inkscape:cx="140.23789"
     inkscape:cy="228.25541"
     inkscape:document-units="mm"
     inkscape:current-layer="layer1"
     inkscape:document-rotation="0"
     showgrid="false"
     inkscape:window-width="1680"
     inkscape:window-height="995"
     inkscape:window-x="0"
     inkscape:window-y="27"
     inkscape:window-maximized="1" />
  <metadata
     id="metadata14229">
    <rdf:RDF>
      <cc:Work
         rdf:about="">
        <dc:format>image/svg+xml</dc:format>
        <dc:type
           rdf:resource="http://purl.org/dc/dcmitype/StillImage" />
        <dc:title></dc:title>
      </cc:Work>
    </rdf:RDF>
  </metadata>
  <g
     inkscape:label="Layer 1"
     inkscape:groupmode="layer"
     id="layer1">
    <path
       d="m 52.330529,2.4441337 a 1.0000001,1.0000001 0 0 0 -1.000001,-0.99999"
       style="fill:none;stroke:#0000ff;stroke-width:0.264583;stroke-linecap:round;stroke-opacity:1"
       id="path3448" />
    <path
       d="M 52.330529,2.4441337 V 128.84417"
       style="fill:none;stroke:#0000ff;stroke-width:0.264583;stroke-linecap:round;stroke-opacity:1"
       id="path3450" />
    <path
       d="m 51.330528,129.84416 a 1.0000001,1.0000001 0 0 0 1.000001,-0.99999"
       style="fill:none;stroke:#0000ff;stroke-width:0.264583;stroke-linecap:round;stroke-opacity:1"
       id="path3452" />
    <path
       d="M 51.330528,129.84416 H 3.3305284"
       style="fill:none;stroke:#0000ff;stroke-width:0.264583;stroke-linecap:round;stroke-opacity:1"
       id="path3454" />
    <path
       d="m 2.3305304,128.84417 a 1.0000001,1.0000001 0 0 0 0.999998,0.99999"
       style="fill:none;stroke:#0000ff;stroke-width:0.264583;stroke-linecap:round;stroke-opacity:1"
       id="path3456" />
    <path
       d="M 2.3305304,128.84417 V 2.4441337"
       style="fill:none;stroke:#0000ff;stroke-width:0.264583;stroke-linecap:round;stroke-opacity:1"
       id="path3458" />
    <path
       d="m 3.3305284,1.4441437 a 1.0000001,1.0000001 0 0 0 -0.999998,0.99999"
       style="fill:none;stroke:#0000ff;stroke-width:0.264583;stroke-linecap:round;stroke-opacity:1"
       id="path3460" />
    <path
       d="M 3.3305284,1.4441437 H 51.330528"
       style="fill:none;stroke:#0000ff;stroke-width:0.264583;stroke-linecap:round;stroke-opacity:1"
       id="path3462" />
    <path
       d="m 30.15153,19.844134 a 3.5000006,3.5000006 0 1 0 -7.000001,0 3.5000006,3.5000006 0 1 0 7.000001,0 z"
       style="fill:none;stroke:#0000ff;stroke-width:0.264583;stroke-linecap:round;stroke-opacity:1"
       id="path3464" />
    <path
       d="m 13.330529,5.0641437 a 1.6,1.6 0 0 0 1.599999,1.6"
       style="fill:none;stroke:#0000ff;stroke-width:0.264583;stroke-linecap:round;stroke-opacity:1"
       id="path3466" />
    <path
       d="M 14.930528,6.6641437 H 19.73053"
       style="fill:none;stroke:#0000ff;stroke-width:0.264583;stroke-linecap:round;stroke-opacity:1"
       id="path3468" />
    <path
       d="m 19.73053,6.6641437 a 1.6,1.6 0 0 0 1.599999,-1.6"
       style="fill:none;stroke:#0000ff;stroke-width:0.264583;stroke-linecap:round;stroke-opacity:1"
       id="path3470" />
    <path
       d="m 21.330529,5.0641437 v 0"
       style="fill:none;stroke:#0000ff;stroke-width:0.264583;stroke-linecap:round;stroke-opacity:1"
       id="path3472" />
    <path
       d="m 21.330529,5.0641437 a 1.6,1.6 0 0 0 -1.599999,-1.6"
       style="fill:none;stroke:#0000ff;stroke-width:0.264583;stroke-linecap:round;stroke-opacity:1"
       id="path3474" />
    <path
       d="M 19.73053,3.4641437 H 14.930528"
       style="fill:none;stroke:#0000ff;stroke-width:0.264583;stroke-linecap:round;stroke-opacity:1"
       id="path3476" />
    <path
       d="m 14.930528,3.4641437 a 1.6,1.6 0 0 0 -1.599999,1.6"
       style="fill:none;stroke:#0000ff;stroke-width:0.264583;stroke-linecap:round;stroke-opacity:1"
       id="path3478" />
    <path
       d="m 13.330529,5.0641437 v 0"
       style="fill:none;stroke:#0000ff;stroke-width:0.264583;stroke-linecap:round;stroke-opacity:1"
       id="path3480" />
    <path
       d="m 43.330528,55.844144 a 3.0000006,3.0000006 0 1 0 -6.000001,0 3.0000006,3.0000006 0 1 0 6.000001,0 z"
       style="fill:none;stroke:#0000ff;stroke-width:0.264583;stroke-linecap:round;stroke-opacity:1"
       id="path3482" />
    <path
       d="m 17.330529,55.844144 a 3.0000006,3.0000006 0 1 0 -6.000001,0 3.0000006,3.0000006 0 1 0 6.000001,0 z"
       style="fill:none;stroke:#0000ff;stroke-width:0.264583;stroke-linecap:round;stroke-opacity:1"
       id="path3484" />
    <path
       d="m 29.830529,55.844144 a 2.5000003,2.5000003 0 1 0 -4.999999,0 2.5000003,2.5000003 0 1 0 4.999999,0 z"
       style="fill:none;stroke:#0000ff;stroke-width:0.264583;stroke-linecap:round;stroke-opacity:1"
       id="path3486" />
    <path
       d="m 12.330528,109.84414 a 3,3 0 1 0 -5.9999977,0 3,3 0 1 0 5.9999977,0 z"
       style="fill:none;stroke:#0000ff;stroke-width:0.264583;stroke-linecap:round;stroke-opacity:1"
       id="path3488" />
    <path
       d="m 24.530529,109.84414 a 3.5000001,3.5000001 0 1 0 -6.999999,0 3.5000001,3.5000001 0 1 0 6.999999,0 z"
       style="fill:none;stroke:#0000ff;stroke-width:0.264583;stroke-linecap:round;stroke-opacity:1"
       id="path3490" />
    <path
       d="m 33.330527,5.0011437 a 1.6,1.6 0 0 0 1.600002,1.6"
       style="fill:none;stroke:#0000ff;stroke-width:0.264583;stroke-linecap:round;stroke-opacity:1"
       id="path3492" />
    <path
       d="m 34.930529,6.6011437 h 4.799999"
       style="fill:none;stroke:#0000ff;stroke-width:0.264583;stroke-linecap:round;stroke-opacity:1"
       id="path3494" />
    <path
       d="m 39.730528,6.6011437 a 1.6,1.6 0 0 0 1.599999,-1.6"
       style="fill:none;stroke:#0000ff;stroke-width:0.264583;stroke-linecap:round;stroke-opacity:1"
       id="path3496" />
    <path
       d="m 41.330527,5.0011437 v 0"
       style="fill:none;stroke:#0000ff;stroke-width:0.264583;stroke-linecap:round;stroke-opacity:1"
       id="path3498" />
    <path
       d="m 41.330527,5.0011437 a 1.6,1.6 0 0 0 -1.599999,-1.6"
       style="fill:none;stroke:#0000ff;stroke-width:0.264583;stroke-linecap:round;stroke-opacity:1"
       id="path3500" />
    <path
       d="M 39.730528,3.4011437 H 34.930529"
       style="fill:none;stroke:#0000ff;stroke-width:0.264583;stroke-linecap:round;stroke-opacity:1"
       id="path3502" />
    <path
       d="m 34.930529,3.4011437 a 1.6,1.6 0 0 0 -1.600002,1.6"
       style="fill:none;stroke:#0000ff;stroke-width:0.264583;stroke-linecap:round;stroke-opacity:1"
       id="path3504" />
    <path
       d="m 33.330527,5.0011437 v 0"
       style="fill:none;stroke:#0000ff;stroke-width:0.264583;stroke-linecap:round;stroke-opacity:1"
       id="path3506" />
    <path
       d="m 13.330529,126.51216 a 1.6,1.6 0 0 0 1.599999,1.59999"
       style="fill:none;stroke:#0000ff;stroke-width:0.264583;stroke-linecap:round;stroke-opacity:1"
       id="path3508" />
    <path
       d="M 14.930528,128.11215 H 19.73053"
       style="fill:none;stroke:#0000ff;stroke-width:0.264583;stroke-linecap:round;stroke-opacity:1"
       id="path3510" />
    <path
       d="m 19.73053,128.11215 a 1.6,1.6 0 0 0 1.599999,-1.59999"
       style="fill:none;stroke:#0000ff;stroke-width:0.264583;stroke-linecap:round;stroke-opacity:1"
       id="path3512" />
    <path
       d="m 21.330529,126.51216 v 0"
       style="fill:none;stroke:#0000ff;stroke-width:0.264583;stroke-linecap:round;stroke-opacity:1"
       id="path3514" />
    <path
       d="M 21.330529,126.51216 A 1.6,1.6 0 0 0 19.73053,124.91217"
       style="fill:none;stroke:#0000ff;stroke-width:0.264583;stroke-linecap:round;stroke-opacity:1"
       id="path3516" />
    <path
       d="M 19.73053,124.91217 H 14.930528"
       style="fill:none;stroke:#0000ff;stroke-width:0.264583;stroke-linecap:round;stroke-opacity:1"
       id="path3518" />
    <path
       d="m 14.930528,124.91217 a 1.6,1.6 0 0 0 -1.599999,1.59999"
       style="fill:none;stroke:#0000ff;stroke-width:0.264583;stroke-linecap:round;stroke-opacity:1"
       id="path3520" />
    <path
       d="m 13.330529,126.51216 v 0"
       style="fill:none;stroke:#0000ff;stroke-width:0.264583;stroke-linecap:round;stroke-opacity:1"
       id="path3522" />
    <path
       d="m 33.330527,126.51417 a 1.6,1.6 0 0 0 1.600002,1.59999"
       style="fill:none;stroke:#0000ff;stroke-width:0.264583;stroke-linecap:round;stroke-opacity:1"
       id="path3524" />
    <path
       d="m 34.930529,128.11416 h 4.799999"
       style="fill:none;stroke:#0000ff;stroke-width:0.264583;stroke-linecap:round;stroke-opacity:1"
       id="path3526" />
    <path
       d="m 39.730528,128.11416 a 1.6,1.6 0 0 0 1.599999,-1.59999"
       style="fill:none;stroke:#0000ff;stroke-width:0.264583;stroke-linecap:round;stroke-opacity:1"
       id="path3528" />
    <path
       d="m 41.330527,126.51417 v 0"
       style="fill:none;stroke:#0000ff;stroke-width:0.264583;stroke-linecap:round;stroke-opacity:1"
       id="path3530" />
    <path
       d="m 41.330527,126.51417 a 1.6,1.6 0 0 0 -1.599999,-1.60002"
       style="fill:none;stroke:#0000ff;stroke-width:0.264583;stroke-linecap:round;stroke-opacity:1"
       id="path3532" />
    <path
       d="M 39.730528,124.91415 H 34.930529"
       style="fill:none;stroke:#0000ff;stroke-width:0.264583;stroke-linecap:round;stroke-opacity:1"
       id="path3534" />
    <path
       d="m 34.930529,124.91415 a 1.6,1.6 0 0 0 -1.600002,1.60002"
       style="fill:none;stroke:#0000ff;stroke-width:0.264583;stroke-linecap:round;stroke-opacity:1"
       id="path3536" />
    <path
       d="m 33.330527,126.51417 v 0"
       style="fill:none;stroke:#0000ff;stroke-width:0.264583;stroke-linecap:round;stroke-opacity:1"
       id="path3538" />
    <path
       d="m 11.830529,18.404134 a 3.5000001,3.5000001 0 1 0 -6.9999984,0 3.5000001,3.5000001 0 1 0 6.9999984,0 z"
       style="fill:none;stroke:#0000ff;stroke-width:0.264583;stroke-linecap:round;stroke-opacity:1"
       id="path3540" />
    <path
       d="m 47.390528,18.404134 a 3.5000001,3.5000001 0 1 0 -6.999999,0 3.4999998,3.4999998 0 1 0 6.999999,0 z"
       style="fill:none;stroke:#0000ff;stroke-width:0.264583;stroke-linecap:round;stroke-opacity:1"
       id="path3542" />
    <path
       d="m 43.330528,73.844134 a 3.0000006,3.0000006 0 1 0 -6.000001,0 3.0000006,3.0000006 0 1 0 6.000001,0 z"
       style="fill:none;stroke:#0000ff;stroke-width:0.264583;stroke-linecap:round;stroke-opacity:1"
       id="path3544" />
    <path
       d="m 17.330529,73.844134 a 3.0000006,3.0000006 0 1 0 -6.000001,0 3.0000006,3.0000006 0 1 0 6.000001,0 z"
       style="fill:none;stroke:#0000ff;stroke-width:0.264583;stroke-linecap:round;stroke-opacity:1"
       id="path3546" />
    <path
       d="m 43.330528,91.844144 a 3.0000006,3.0000006 0 1 0 -6.000001,0 3.0000006,3.0000006 0 1 0 6.000001,0 z"
       style="fill:none;stroke:#0000ff;stroke-width:0.264583;stroke-linecap:round;stroke-opacity:1"
       id="path3548" />
    <path
       d="m 17.330529,91.844144 a 3.0000006,3.0000006 0 1 0 -6.000001,0 3.0000006,3.0000006 0 1 0 6.000001,0 z"
       style="fill:none;stroke:#0000ff;stroke-width:0.264583;stroke-linecap:round;stroke-opacity:1"
       id="path3550" />
    <path
       d="m 17.330529,37.844144 a 3.0000006,3.0000006 0 1 0 -6.000001,0 3.0000006,3.0000006 0 1 0 6.000001,0 z"
       style="fill:none;stroke:#0000ff;stroke-width:0.264583;stroke-linecap:round;stroke-opacity:1"
       id="path3552" />
    <path
       d="m 45.830529,109.84414 a 3.4999998,3.4999998 0 1 0 -6.999999,0 3.5000001,3.5000001 0 1 0 6.999999,0 z"
       style="fill:none;stroke:#0000ff;stroke-width:0.264583;stroke-linecap:round;stroke-opacity:1"
       id="path3554" />
    <path
       d="m 29.830529,37.844144 a 2.5000003,2.5000003 0 1 0 -4.999999,0 2.5000003,2.5000003 0 1 0 4.999999,0 z"
       style="fill:none;stroke:#0000ff;stroke-width:0.264583;stroke-linecap:round;stroke-opacity:1"
       id="path3556" />
    <path
       d="m 29.830529,73.844134 a 2.5000003,2.5000003 0 1 0 -4.999999,0 2.5000003,2.5000003 0 1 0 4.999999,0 z"
       style="fill:none;stroke:#0000ff;stroke-width:0.264583;stroke-linecap:round;stroke-opacity:1"
       id="path3558" />
    <path
       d="m 33.830529,109.84414 a 2.5000005,2.5000005 0 1 0 -5.000001,0 2.5000005,2.5000005 0 1 0 5.000001,0 z"
       style="fill:none;stroke:#0000ff;stroke-width:0.264583;stroke-linecap:round;stroke-opacity:1"
       id="path3562" />
    <g
       id="g3958"
       transform="matrix(0.26458333,0,0,0.26458333,53.880825,-175.71801)"
       style="stroke:#0b00ff;stroke-opacity:1">
      <g
         inkscape:label="Contour"
         id="g3858"
         style="stroke:#0b00ff;stroke-opacity:1">
        <path
           d="m 188.97638,704.50394 a 3.779528,3.779528 0 0 0 -3.77953,-3.77953"
           style="fill:none;stroke:#0b00ff;stroke-linecap:round;stroke-opacity:1"
           id="path3710" />
        <path
           d="M 188.97638,704.50394 V 1118.7402"
           style="fill:none;stroke:#0b00ff;stroke-linecap:round;stroke-opacity:1"
           id="path3712" />
        <path
           d="m 185.19685,1122.5197 a 3.779528,3.779528 0 0 0 3.77953,-3.7795"
           style="fill:none;stroke:#0b00ff;stroke-linecap:round;stroke-opacity:1"
           id="path3714" />
        <path
           d="M 185.19685,1122.5197 H 3.779528"
           style="fill:none;stroke:#0b00ff;stroke-linecap:round;stroke-opacity:1"
           id="path3716" />
        <path
           d="m 0,1118.7402 a 3.779528,3.779528 0 0 0 3.779528,3.7795"
           style="fill:none;stroke:#0b00ff;stroke-linecap:round;stroke-opacity:1"
           id="path3718" />
        <path
           d="M 0,1118.7402 V 704.50394"
           style="fill:none;stroke:#0b00ff;stroke-linecap:round;stroke-opacity:1"
           id="path3720" />
        <path
           d="M 3.779528,700.72441 A 3.779528,3.779528 0 0 0 0,704.50394"
           style="fill:none;stroke:#0b00ff;stroke-linecap:round;stroke-opacity:1"
           id="path3722" />
        <path
           d="M 3.779528,700.72441 H 185.19685"
           style="fill:none;stroke:#0b00ff;stroke-linecap:round;stroke-opacity:1"
           id="path3724" />
        <path
           d="m 105.15024,738.51968 a 13.228348,13.228348 0 1 0 -26.456697,0 13.228348,13.228348 0 1 0 26.456697,0 z"
           style="fill:none;stroke:#0b00ff;stroke-linecap:round;stroke-opacity:1"
           id="path3726" />
        <path
           d="m 103.93701,874.58268 a 9.44882,9.44882 0 1 0 -18.89764,0 9.44882,9.44882 0 1 0 18.89764,0 z"
           style="fill:none;stroke:#0b00ff;stroke-linecap:round;stroke-opacity:1"
           id="path3728" />
        <path
           d="m 37.795276,1078.6772 a 11.338583,11.338583 0 1 0 -22.677166,0 11.338583,11.338583 0 1 0 22.677166,0 z"
           style="fill:none;stroke:#0b00ff;stroke-linecap:round;stroke-opacity:1"
           id="path3730" />
        <path
           d="m 76.346457,1078.6772 a 5.6692915,5.6692915 0 1 0 -11.338583,0 5.6692915,5.6692915 0 1 0 11.338583,0 z"
           style="fill:none;stroke:#0b00ff;stroke-linecap:round;stroke-opacity:1"
           id="path3732" />
        <path
           d="m 28.346457,733.07717 a 5.6692915,5.6692915 0 1 0 -11.338583,0 5.6692915,5.6692915 0 1 0 11.338583,0 z"
           style="fill:none;stroke:#0b00ff;stroke-linecap:round;stroke-opacity:1"
           id="path3734" />
        <path
           d="m 162.74646,733.07717 a 5.669295,5.669295 0 1 0 -11.33859,0 5.669295,5.669295 0 1 0 11.33859,0 z"
           style="fill:none;stroke:#0b00ff;stroke-linecap:round;stroke-opacity:1"
           id="path3736" />
        <path
           d="m 164.40945,1078.6772 a 13.228346,13.228346 0 1 0 -26.45669,0 13.228347,13.228347 0 1 0 26.45669,0 z"
           style="fill:none;stroke:#0b00ff;stroke-linecap:round;stroke-opacity:1"
           id="path3738" />
        <path
           d="m 103.93701,806.55118 a 9.44882,9.44882 0 1 0 -18.89764,0 9.44882,9.44882 0 1 0 18.89764,0 z"
           style="fill:none;stroke:#0b00ff;stroke-linecap:round;stroke-opacity:1"
           id="path3740" />
        <path
           d="m 103.93701,942.61417 a 9.44882,9.44882 0 1 0 -18.89764,0 9.44882,9.44882 0 1 0 18.89764,0 z"
           style="fill:none;stroke:#0b00ff;stroke-linecap:round;stroke-opacity:1"
           id="path3742" />
        <path
           d="m 119.05512,1078.6772 a 9.44882,9.44882 0 1 0 -18.89764,0 9.44882,9.44882 0 1 0 18.89764,0 z"
           style="fill:none;stroke:#0b00ff;stroke-linecap:round;stroke-opacity:1"
           id="path3744" />
        <path
           d="m 27.401575,825.44882 a 1.889764,1.889764 0 0 0 1.889764,1.88976"
           style="fill:none;stroke:#0b00ff;stroke-linecap:round;stroke-opacity:1"
           id="path3746" />
        <path
           d="M 29.291339,827.33858 H 61.417323"
           style="fill:none;stroke:#0b00ff;stroke-linecap:round;stroke-opacity:1"
           id="path3748" />
        <path
           d="m 61.417323,827.33858 a 1.889764,1.889764 0 0 0 1.889764,-1.88976"
           style="fill:none;stroke:#0b00ff;stroke-linecap:round;stroke-opacity:1"
           id="path3750" />
        <path
           d="M 63.307087,825.44882 V 787.65354"
           style="fill:none;stroke:#0b00ff;stroke-linecap:round;stroke-opacity:1"
           id="path3752" />
        <path
           d="m 63.307087,787.65354 a 1.889764,1.889764 0 0 0 -1.889764,-1.88976"
           style="fill:none;stroke:#0b00ff;stroke-linecap:round;stroke-opacity:1"
           id="path3754" />
        <path
           d="M 61.417323,785.76378 H 29.291339"
           style="fill:none;stroke:#0b00ff;stroke-linecap:round;stroke-opacity:1"
           id="path3756" />
        <path
           d="m 29.291339,785.76378 a 1.889764,1.889764 0 0 0 -1.889764,1.88976"
           style="fill:none;stroke:#0b00ff;stroke-linecap:round;stroke-opacity:1"
           id="path3758" />
        <path
           d="m 27.401575,787.65354 v 37.79528"
           style="fill:none;stroke:#0b00ff;stroke-linecap:round;stroke-opacity:1"
           id="path3760" />
        <path
           d="m 27.401575,893.48032 a 1.889764,1.889764 0 0 0 1.889764,1.88976"
           style="fill:none;stroke:#0b00ff;stroke-linecap:round;stroke-opacity:1"
           id="path3762" />
        <path
           d="M 29.291339,895.37008 H 61.417323"
           style="fill:none;stroke:#0b00ff;stroke-linecap:round;stroke-opacity:1"
           id="path3764" />
        <path
           d="m 61.417323,895.37008 a 1.889764,1.889764 0 0 0 1.889764,-1.88976"
           style="fill:none;stroke:#0b00ff;stroke-linecap:round;stroke-opacity:1"
           id="path3766" />
        <path
           d="M 63.307087,893.48032 V 855.68504"
           style="fill:none;stroke:#0b00ff;stroke-linecap:round;stroke-opacity:1"
           id="path3768" />
        <path
           d="m 63.307087,855.68504 a 1.889764,1.889764 0 0 0 -1.889764,-1.88976"
           style="fill:none;stroke:#0b00ff;stroke-linecap:round;stroke-opacity:1"
           id="path3770" />
        <path
           d="M 61.417323,853.79528 H 29.291339"
           style="fill:none;stroke:#0b00ff;stroke-linecap:round;stroke-opacity:1"
           id="path3772" />
        <path
           d="m 29.291339,853.79528 a 1.889764,1.889764 0 0 0 -1.889764,1.88976"
           style="fill:none;stroke:#0b00ff;stroke-linecap:round;stroke-opacity:1"
           id="path3774" />
        <path
           d="m 27.401575,855.68504 v 37.79528"
           style="fill:none;stroke:#0b00ff;stroke-linecap:round;stroke-opacity:1"
           id="path3776" />
        <path
           d="m 27.401575,961.51181 a 1.889764,1.889764 0 0 0 1.889764,1.88976"
           style="fill:none;stroke:#0b00ff;stroke-linecap:round;stroke-opacity:1"
           id="path3778" />
        <path
           d="M 29.291339,963.40157 H 61.417323"
           style="fill:none;stroke:#0b00ff;stroke-linecap:round;stroke-opacity:1"
           id="path3780" />
        <path
           d="m 61.417323,963.40157 a 1.889764,1.889764 0 0 0 1.889764,-1.88976"
           style="fill:none;stroke:#0b00ff;stroke-linecap:round;stroke-opacity:1"
           id="path3782" />
        <path
           d="M 63.307087,961.51181 V 923.71654"
           style="fill:none;stroke:#0b00ff;stroke-linecap:round;stroke-opacity:1"
           id="path3784" />
        <path
           d="m 63.307087,923.71654 a 1.889764,1.889764 0 0 0 -1.889764,-1.88977"
           style="fill:none;stroke:#0b00ff;stroke-linecap:round;stroke-opacity:1"
           id="path3786" />
        <path
           d="M 61.417323,921.82677 H 29.291339"
           style="fill:none;stroke:#0b00ff;stroke-linecap:round;stroke-opacity:1"
           id="path3788" />
        <path
           d="m 29.291339,921.82677 a 1.889764,1.889764 0 0 0 -1.889764,1.88977"
           style="fill:none;stroke:#0b00ff;stroke-linecap:round;stroke-opacity:1"
           id="path3790" />
        <path
           d="m 27.401575,923.71654 v 37.79527"
           style="fill:none;stroke:#0b00ff;stroke-linecap:round;stroke-opacity:1"
           id="path3792" />
        <path
           d="m 27.401575,1029.5433 a 1.889764,1.889764 0 0 0 1.889764,1.8898"
           style="fill:none;stroke:#0b00ff;stroke-linecap:round;stroke-opacity:1"
           id="path3794" />
        <path
           d="M 29.291339,1031.4331 H 61.417323"
           style="fill:none;stroke:#0b00ff;stroke-linecap:round;stroke-opacity:1"
           id="path3796" />
        <path
           d="m 61.417323,1031.4331 a 1.889764,1.889764 0 0 0 1.889764,-1.8898"
           style="fill:none;stroke:#0b00ff;stroke-linecap:round;stroke-opacity:1"
           id="path3798" />
        <path
           d="M 63.307087,1029.5433 V 991.74803"
           style="fill:none;stroke:#0b00ff;stroke-linecap:round;stroke-opacity:1"
           id="path3800" />
        <path
           d="m 63.307087,991.74803 a 1.889764,1.889764 0 0 0 -1.889764,-1.88976"
           style="fill:none;stroke:#0b00ff;stroke-linecap:round;stroke-opacity:1"
           id="path3802" />
        <path
           d="M 61.417323,989.85827 H 29.291339"
           style="fill:none;stroke:#0b00ff;stroke-linecap:round;stroke-opacity:1"
           id="path3804" />
        <path
           d="m 29.291339,989.85827 a 1.889764,1.889764 0 0 0 -1.889764,1.88976"
           style="fill:none;stroke:#0b00ff;stroke-linecap:round;stroke-opacity:1"
           id="path3806" />
        <path
           d="m 27.401575,991.74803 v 37.79527"
           style="fill:none;stroke:#0b00ff;stroke-linecap:round;stroke-opacity:1"
           id="path3808" />
        <path
           d="m 125.66929,893.48032 a 1.889764,1.889764 0 0 0 1.88977,1.88976"
           style="fill:none;stroke:#0b00ff;stroke-linecap:round;stroke-opacity:1"
           id="path3810" />
        <path
           d="m 127.55906,895.37008 h 32.12598"
           style="fill:none;stroke:#0b00ff;stroke-linecap:round;stroke-opacity:1"
           id="path3812" />
        <path
           d="m 159.68504,895.37008 a 1.889764,1.889764 0 0 0 1.88976,-1.88976"
           style="fill:none;stroke:#0b00ff;stroke-linecap:round;stroke-opacity:1"
           id="path3814" />
        <path
           d="M 161.5748,893.48032 V 855.68504"
           style="fill:none;stroke:#0b00ff;stroke-linecap:round;stroke-opacity:1"
           id="path3816" />
        <path
           d="m 161.5748,855.68504 a 1.889764,1.889764 0 0 0 -1.88976,-1.88976"
           style="fill:none;stroke:#0b00ff;stroke-linecap:round;stroke-opacity:1"
           id="path3818" />
        <path
           d="M 159.68504,853.79528 H 127.55906"
           style="fill:none;stroke:#0b00ff;stroke-linecap:round;stroke-opacity:1"
           id="path3820" />
        <path
           d="m 127.55906,853.79528 a 1.889764,1.889764 0 0 0 -1.88977,1.88976"
           style="fill:none;stroke:#0b00ff;stroke-linecap:round;stroke-opacity:1"
           id="path3822" />
        <path
           d="m 125.66929,855.68504 v 37.79528"
           style="fill:none;stroke:#0b00ff;stroke-linecap:round;stroke-opacity:1"
           id="path3824" />
        <path
           d="m 125.66929,961.51181 a 1.889764,1.889764 0 0 0 1.88977,1.88976"
           style="fill:none;stroke:#0b00ff;stroke-linecap:round;stroke-opacity:1"
           id="path3826" />
        <path
           d="m 127.55906,963.40157 h 32.12598"
           style="fill:none;stroke:#0b00ff;stroke-linecap:round;stroke-opacity:1"
           id="path3828" />
        <path
           d="m 159.68504,963.40157 a 1.889764,1.889764 0 0 0 1.88976,-1.88976"
           style="fill:none;stroke:#0b00ff;stroke-linecap:round;stroke-opacity:1"
           id="path3830" />
        <path
           d="M 161.5748,961.51181 V 923.71654"
           style="fill:none;stroke:#0b00ff;stroke-linecap:round;stroke-opacity:1"
           id="path3832" />
        <path
           d="m 161.5748,923.71654 a 1.889764,1.889764 0 0 0 -1.88976,-1.88977"
           style="fill:none;stroke:#0b00ff;stroke-linecap:round;stroke-opacity:1"
           id="path3834" />
        <path
           d="M 159.68504,921.82677 H 127.55906"
           style="fill:none;stroke:#0b00ff;stroke-linecap:round;stroke-opacity:1"
           id="path3836" />
        <path
           d="m 127.55906,921.82677 a 1.889764,1.889764 0 0 0 -1.88977,1.88977"
           style="fill:none;stroke:#0b00ff;stroke-linecap:round;stroke-opacity:1"
           id="path3838" />
        <path
           d="m 125.66929,923.71654 v 37.79527"
           style="fill:none;stroke:#0b00ff;stroke-linecap:round;stroke-opacity:1"
           id="path3840" />
        <path
           d="m 125.66929,1029.5433 a 1.889764,1.889764 0 0 0 1.88977,1.8898"
           style="fill:none;stroke:#0b00ff;stroke-linecap:round;stroke-opacity:1"
           id="path3842" />
        <path
           d="m 127.55906,1031.4331 h 32.12598"
           style="fill:none;stroke:#0b00ff;stroke-linecap:round;stroke-opacity:1"
           id="path3844" />
        <path
           d="m 159.68504,1031.4331 a 1.889764,1.889764 0 0 0 1.88976,-1.8898"
           style="fill:none;stroke:#0b00ff;stroke-linecap:round;stroke-opacity:1"
           id="path3846" />
        <path
           d="M 161.5748,1029.5433 V 991.74803"
           style="fill:none;stroke:#0b00ff;stroke-linecap:round;stroke-opacity:1"
           id="path3848" />
        <path
           d="m 161.5748,991.74803 a 1.889764,1.889764 0 0 0 -1.88976,-1.88976"
           style="fill:none;stroke:#0b00ff;stroke-linecap:round;stroke-opacity:1"
           id="path3850" />
        <path
           d="M 159.68504,989.85827 H 127.55906"
           style="fill:none;stroke:#0b00ff;stroke-linecap:round;stroke-opacity:1"
           id="path3852" />
        <path
           d="m 127.55906,989.85827 a 1.889764,1.889764 0 0 0 -1.88977,1.88976"
           style="fill:none;stroke:#0b00ff;stroke-linecap:round;stroke-opacity:1"
           id="path3854" />
        <path
           d="m 125.66929,991.74803 v 37.79527"
           style="fill:none;stroke:#0b00ff;stroke-linecap:round;stroke-opacity:1"
           id="path3856" />
      </g>
      <g
         inkscape:label="Engraving"
         id="g3860"
         style="stroke:#0b00ff;stroke-opacity:1" />
      <g
         inkscape:label="Reference_points"
         id="g3862"
         style="stroke:#0b00ff;stroke-opacity:1" />
      <g
         inkscape:label="0"
         id="g3866"
         style="stroke:#0b00ff;stroke-opacity:1" />
    </g>
    <text
       xml:space="preserve"
       style="font-style:normal;font-weight:normal;font-size:4.9389px;line-height:1.25;font-family:sans-serif;letter-spacing:0px;word-spacing:0px;fill:none;fill-opacity:1;stroke:#ff00ff;stroke-width:0.264583;stroke-linecap:round;stroke-linejoin:round;stroke-opacity:1"
       x="9.1256657"
       y="31.909922"
       id="text7615-6-9-4-7-72-7-9-8"><tspan
         sodipodi:role="line"
         x="9.1256657"
         y="31.909922"
         style="font-size:4.9389px;fill:none;stroke:#ff00ff;stroke-width:0.264583;stroke-opacity:1"
         id="tspan8486-2-9-1-26-1-7-5">CLK</tspan></text>
    <text
       xml:space="preserve"
       style="font-style:normal;font-weight:normal;font-size:4.9389px;line-height:1.25;font-family:sans-serif;letter-spacing:0px;word-spacing:0px;fill:none;fill-opacity:1;stroke:#ff00ff;stroke-width:0.264583;stroke-linecap:round;stroke-linejoin:round;stroke-opacity:1"
       x="5.5546908"
       y="49.825054"
       id="text7615-6-9-4-7-72-7-9-8-6"><tspan
         sodipodi:role="line"
         x="5.5546908"
         y="49.825054"
         style="font-size:4.9389px;fill:none;stroke:#ff00ff;stroke-width:0.264583;stroke-opacity:1"
         id="tspan8486-2-9-1-26-1-7-5-1">PITCH 1     GATE 1</tspan></text>
    <text
       xml:space="preserve"
       style="font-style:normal;font-weight:normal;font-size:4.9389px;line-height:1.25;font-family:sans-serif;letter-spacing:0px;word-spacing:0px;fill:none;fill-opacity:1;stroke:#ff00ff;stroke-width:0.264583;stroke-linecap:round;stroke-linejoin:round;stroke-opacity:1"
       x="5.8223062"
       y="68.196266"
       id="text7615-6-9-4-7-72-7-9-8-6-1"><tspan
         sodipodi:role="line"
         x="5.8223062"
         y="68.196266"
         style="font-size:4.9389px;fill:none;stroke:#ff00ff;stroke-width:0.264583;stroke-opacity:1"
         id="tspan8486-2-9-1-26-1-7-5-1-5">PITCH 2     GATE 2</tspan></text>
    <text
       xml:space="preserve"
       style="font-style:normal;font-weight:normal;font-size:4.9389px;line-height:1.25;font-family:sans-serif;letter-spacing:0px;word-spacing:0px;fill:none;fill-opacity:1;stroke:#ff00ff;stroke-width:0.264583;stroke-linecap:round;stroke-linejoin:round;stroke-opacity:1"
       x="6.4680352"
       y="86.038521"
       id="text7615-6-9-4-7-72-7-9-8-6-1-9"><tspan
         sodipodi:role="line"
         x="6.4680352"
         y="86.038521"
         style="font-size:4.9389px;fill:none;stroke:#ff00ff;stroke-width:0.264583;stroke-opacity:1"
         id="tspan8486-2-9-1-26-1-7-5-1-5-8">MOD 1      MOD 2</tspan></text>
    <text
       xml:space="preserve"
       style="font-style:normal;font-weight:normal;font-size:4.9389px;line-height:1.25;font-family:sans-serif;letter-spacing:0px;word-spacing:0px;fill:none;fill-opacity:1;stroke:#ff00ff;stroke-width:0.264583;stroke-linecap:round;stroke-linejoin:round;stroke-opacity:1"
       x="3.8573098"
       y="102.54375"
       id="text7615-6-9-4-7-72-7-9-8-6-1-9-4"><tspan
         sodipodi:role="line"
         x="3.8573098"
         y="102.54375"
         style="font-size:4.9389px;fill:none;stroke:#ff00ff;stroke-width:0.264583;stroke-opacity:1"
         id="tspan8486-2-9-1-26-1-7-5-1-5-8-8">1-CH</tspan></text>
    <text
       xml:space="preserve"
       style="font-style:normal;font-weight:normal;font-size:4.9389px;line-height:1.25;font-family:sans-serif;letter-spacing:0px;word-spacing:0px;fill:none;fill-opacity:1;stroke:#ff00ff;stroke-width:0.264583;stroke-linecap:round;stroke-linejoin:round;stroke-opacity:1"
       x="3.8793807"
       y="120.26209"
       id="text7615-6-9-4-7-72-7-9-8-6-1-9-4-1"><tspan
         sodipodi:role="line"
         x="3.8793807"
         y="120.26209"
         style="font-size:4.9389px;fill:none;stroke:#ff00ff;stroke-width:0.264583;stroke-opacity:1"
         id="tspan8486-2-9-1-26-1-7-5-1-5-8-8-0">2-CH</tspan></text>
    <text
       xml:space="preserve"
       style="font-style:normal;font-weight:normal;font-size:4.9389px;line-height:1.25;font-family:sans-serif;letter-spacing:0px;word-spacing:0px;fill:none;fill-opacity:1;stroke:#ff00ff;stroke-width:0.264583;stroke-linecap:round;stroke-linejoin:round;stroke-opacity:1"
       x="28.588331"
       y="120.31397"
       id="text7615-6-9-4-7-72-7-9-8-6-1-9-4-1-3"><tspan
         sodipodi:role="line"
         x="28.588331"
         y="120.31397"
         style="font-size:4.9389px;fill:none;stroke:#ff00ff;stroke-width:0.264583;stroke-opacity:1"
         id="tspan8486-2-9-1-26-1-7-5-1-5-8-8-0-0">CONFIG</tspan></text>
    <text
       xml:space="preserve"
       style="font-style:normal;font-weight:normal;font-size:4.9389px;line-height:1.25;font-family:sans-serif;letter-spacing:0px;word-spacing:0px;fill:none;fill-opacity:1;stroke:#ff00ff;stroke-width:0.264583;stroke-linecap:round;stroke-linejoin:round;stroke-opacity:1"
       x="7.6339641"
       y="11.578259"
       id="text7615-6-9-4-7-72-7-9-8-4"><tspan
         sodipodi:role="line"
         x="7.6339641"
         y="11.578259"
         style="font-size:4.9389px;fill:none;stroke:#ff00ff;stroke-width:0.264583;stroke-opacity:1"
         id="tspan8486-2-9-1-26-1-7-5-4">RATE</tspan></text>
  </g>
</svg>
