<?xml version="1.0" encoding="UTF-8" standalone="no"?>
<svg
   xmlns:dc="http://purl.org/dc/elements/1.1/"
   xmlns:cc="http://creativecommons.org/ns#"
   xmlns:rdf="http://www.w3.org/1999/02/22-rdf-syntax-ns#"
   xmlns:svg="http://www.w3.org/2000/svg"
   xmlns="http://www.w3.org/2000/svg"
   xmlns:sodipodi="http://sodipodi.sourceforge.net/DTD/sodipodi-0.dtd"
   xmlns:inkscape="http://www.inkscape.org/namespaces/inkscape"
   width="100mm"
   height="135mm"
   viewBox="0 0 100 135"
   version="1.1"
   id="svg28827"
   inkscape:version="1.0.2 (1.0.2+r75+1)"
   sodipodi:docname="triple_attenuator_front_panel.svg">
  <defs
     id="defs28821" />
  <sodipodi:namedview
     id="base"
     pagecolor="#ffffff"
     bordercolor="#666666"
     borderopacity="1.0"
     inkscape:pageopacity="0.0"
     inkscape:pageshadow="2"
     inkscape:zoom="0.98994949"
     inkscape:cx="422.18043"
     inkscape:cy="344.01809"
     inkscape:document-units="mm"
     inkscape:current-layer="layer1"
     inkscape:document-rotation="0"
     showgrid="false"
     inkscape:window-width="1680"
     inkscape:window-height="995"
     inkscape:window-x="0"
     inkscape:window-y="27"
     inkscape:window-maximized="1" />
  <metadata
     id="metadata28824">
    <rdf:RDF>
      <cc:Work
         rdf:about="">
        <dc:format>image/svg+xml</dc:format>
        <dc:type
           rdf:resource="http://purl.org/dc/dcmitype/StillImage" />
        <dc:title></dc:title>
      </cc:Work>
    </rdf:RDF>
  </metadata>
  <g
     inkscape:label="Layer 1"
     inkscape:groupmode="layer"
     id="layer1">
    <path
       d="M 41.821491,2.9641854 A 1.0000001,1.0000001 0 0 0 40.82149,1.9641874"
       style="fill:none;stroke:#0000ff;stroke-width:0.264583;stroke-linecap:round;stroke-linejoin:round;stroke-opacity:1"
       id="path12509" />
    <path
       d="M 41.821491,2.9641854 V 129.36419"
       style="fill:none;stroke:#0000ff;stroke-width:0.264583;stroke-linecap:round;stroke-linejoin:round;stroke-opacity:1"
       id="path12511" />
    <path
       d="m 40.82149,130.36418 a 1.0000001,1.0000001 0 0 0 1.000001,-0.99999"
       style="fill:none;stroke:#0000ff;stroke-width:0.264583;stroke-linecap:round;stroke-linejoin:round;stroke-opacity:1"
       id="path12513" />
    <path
       d="M 40.82149,130.36418 H 2.8214913"
       style="fill:none;stroke:#0000ff;stroke-width:0.264583;stroke-linecap:round;stroke-linejoin:round;stroke-opacity:1"
       id="path12515" />
    <path
       d="m 1.8214913,129.36419 a 1.0000001,1.0000001 0 0 0 1,0.99999"
       style="fill:none;stroke:#0000ff;stroke-width:0.264583;stroke-linecap:round;stroke-linejoin:round;stroke-opacity:1"
       id="path12517" />
    <path
       d="M 1.8214913,129.36419 V 2.9641854"
       style="fill:none;stroke:#0000ff;stroke-width:0.264583;stroke-linecap:round;stroke-linejoin:round;stroke-opacity:1"
       id="path12519" />
    <path
       d="m 2.8214913,1.9641874 a 1.0000001,1.0000001 0 0 0 -1,0.999998"
       style="fill:none;stroke:#0000ff;stroke-width:0.264583;stroke-linecap:round;stroke-linejoin:round;stroke-opacity:1"
       id="path12521" />
    <path
       d="M 2.8214913,1.9641874 H 40.82149"
       style="fill:none;stroke:#0000ff;stroke-width:0.264583;stroke-linecap:round;stroke-linejoin:round;stroke-opacity:1"
       id="path12523" />
    <path
       d="m 25.321492,20.364185 a 3.5000001,3.5000001 0 1 0 -7,0 3.5000001,3.5000001 0 1 0 7,0 z"
       style="fill:none;stroke:#0000ff;stroke-width:0.264583;stroke-linecap:round;stroke-linejoin:round;stroke-opacity:1"
       id="path12525" />
    <path
       d="m 32.82149,112.36418 a 3,3 0 1 0 -5.999998,0 3,3 0 1 0 5.999998,0 z"
       style="fill:none;stroke:#0000ff;stroke-width:0.264583;stroke-linecap:round;stroke-linejoin:round;stroke-opacity:1"
       id="path12527" />
    <path
       d="m 27.821492,4.7951867 a 1.6,1.6 0 0 0 1.599999,1.5999989"
       style="fill:none;stroke:#0000ff;stroke-width:0.264583;stroke-linecap:round;stroke-linejoin:round;stroke-opacity:1"
       id="path12529" />
    <path
       d="m 29.421491,6.3951856 h 4.8"
       style="fill:none;stroke:#0000ff;stroke-width:0.264583;stroke-linecap:round;stroke-linejoin:round;stroke-opacity:1"
       id="path12531" />
    <path
       d="M 34.221491,6.3951856 A 1.6,1.6 0 0 0 35.821492,4.7951867"
       style="fill:none;stroke:#0000ff;stroke-width:0.264583;stroke-linecap:round;stroke-linejoin:round;stroke-opacity:1"
       id="path12533" />
    <path
       d="m 35.821492,4.7951867 v 0"
       style="fill:none;stroke:#0000ff;stroke-width:0.264583;stroke-linecap:round;stroke-linejoin:round;stroke-opacity:1"
       id="path12535" />
    <path
       d="M 35.821492,4.7951867 A 1.6,1.6 0 0 0 34.221491,3.1951851"
       style="fill:none;stroke:#0000ff;stroke-width:0.264583;stroke-linecap:round;stroke-linejoin:round;stroke-opacity:1"
       id="path12537" />
    <path
       d="m 34.221491,3.1951851 h -4.8"
       style="fill:none;stroke:#0000ff;stroke-width:0.264583;stroke-linecap:round;stroke-linejoin:round;stroke-opacity:1"
       id="path12539" />
    <path
       d="M 29.421491,3.1951851 A 1.6,1.6 0 0 0 27.821492,4.7951867"
       style="fill:none;stroke:#0000ff;stroke-width:0.264583;stroke-linecap:round;stroke-linejoin:round;stroke-opacity:1"
       id="path12541" />
    <path
       d="m 27.821492,4.7951867 v 0"
       style="fill:none;stroke:#0000ff;stroke-width:0.264583;stroke-linecap:round;stroke-linejoin:round;stroke-opacity:1"
       id="path12543" />
    <path
       d="m 16.821492,112.36418 a 3,3 0 1 0 -6,0 3,3 0 1 0 6,0 z"
       style="fill:none;stroke:#0000ff;stroke-width:0.264583;stroke-linecap:round;stroke-linejoin:round;stroke-opacity:1"
       id="path12545" />
    <path
       d="m 7.8214918,4.8641874 a 1.6,1.6 0 0 0 1.6,1.5999989"
       style="fill:none;stroke:#0000ff;stroke-width:0.264583;stroke-linecap:round;stroke-linejoin:round;stroke-opacity:1"
       id="path12547" />
    <path
       d="M 9.4214918,6.4641863 H 14.221492"
       style="fill:none;stroke:#0000ff;stroke-width:0.264583;stroke-linecap:round;stroke-linejoin:round;stroke-opacity:1"
       id="path12549" />
    <path
       d="m 14.221492,6.4641863 a 1.6,1.6 0 0 0 1.6,-1.5999989"
       style="fill:none;stroke:#0000ff;stroke-width:0.264583;stroke-linecap:round;stroke-linejoin:round;stroke-opacity:1"
       id="path12551" />
    <path
       d="m 15.821492,4.8641874 v 0"
       style="fill:none;stroke:#0000ff;stroke-width:0.264583;stroke-linecap:round;stroke-linejoin:round;stroke-opacity:1"
       id="path12553" />
    <path
       d="m 15.821492,4.8641874 a 1.6,1.6 0 0 0 -1.6,-1.6000016"
       style="fill:none;stroke:#0000ff;stroke-width:0.264583;stroke-linecap:round;stroke-linejoin:round;stroke-opacity:1"
       id="path12555" />
    <path
       d="M 14.221492,3.2641858 H 9.4214918"
       style="fill:none;stroke:#0000ff;stroke-width:0.264583;stroke-linecap:round;stroke-linejoin:round;stroke-opacity:1"
       id="path12557" />
    <path
       d="m 9.4214918,3.2641858 a 1.6,1.6 0 0 0 -1.6,1.6000016"
       style="fill:none;stroke:#0000ff;stroke-width:0.264583;stroke-linecap:round;stroke-linejoin:round;stroke-opacity:1"
       id="path12559" />
    <path
       d="m 7.8214918,4.8641874 v 0"
       style="fill:none;stroke:#0000ff;stroke-width:0.264583;stroke-linecap:round;stroke-linejoin:round;stroke-opacity:1"
       id="path12561" />
    <path
       d="m 29.01049,127.36418 a 1.6,1.6 0 0 0 1.600002,1.59998"
       style="fill:none;stroke:#0000ff;stroke-width:0.264583;stroke-linecap:round;stroke-linejoin:round;stroke-opacity:1"
       id="path12563" />
    <path
       d="m 30.610492,128.96416 h 4.799999"
       style="fill:none;stroke:#0000ff;stroke-width:0.264583;stroke-linecap:round;stroke-linejoin:round;stroke-opacity:1"
       id="path12565" />
    <path
       d="m 35.410491,128.96416 a 1.6,1.6 0 0 0 1.599999,-1.59998"
       style="fill:none;stroke:#0000ff;stroke-width:0.264583;stroke-linecap:round;stroke-linejoin:round;stroke-opacity:1"
       id="path12567" />
    <path
       d="m 37.01049,127.36418 v 0"
       style="fill:none;stroke:#0000ff;stroke-width:0.264583;stroke-linecap:round;stroke-linejoin:round;stroke-opacity:1"
       id="path12569" />
    <path
       d="m 37.01049,127.36418 a 1.6,1.6 0 0 0 -1.599999,-1.59999"
       style="fill:none;stroke:#0000ff;stroke-width:0.264583;stroke-linecap:round;stroke-linejoin:round;stroke-opacity:1"
       id="path12571" />
    <path
       d="M 35.410491,125.76419 H 30.610492"
       style="fill:none;stroke:#0000ff;stroke-width:0.264583;stroke-linecap:round;stroke-linejoin:round;stroke-opacity:1"
       id="path12573" />
    <path
       d="m 30.610492,125.76419 a 1.6,1.6 0 0 0 -1.600002,1.59999"
       style="fill:none;stroke:#0000ff;stroke-width:0.264583;stroke-linecap:round;stroke-linejoin:round;stroke-opacity:1"
       id="path12575" />
    <path
       d="m 29.01049,127.36418 v 0"
       style="fill:none;stroke:#0000ff;stroke-width:0.264583;stroke-linecap:round;stroke-linejoin:round;stroke-opacity:1"
       id="path12577" />
    <path
       d="m 9.0104918,127.36418 a 1.6,1.6 0 0 0 1.6000002,1.59998"
       style="fill:none;stroke:#0000ff;stroke-width:0.264583;stroke-linecap:round;stroke-linejoin:round;stroke-opacity:1"
       id="path12579" />
    <path
       d="m 10.610492,128.96416 h 4.8"
       style="fill:none;stroke:#0000ff;stroke-width:0.264583;stroke-linecap:round;stroke-linejoin:round;stroke-opacity:1"
       id="path12581" />
    <path
       d="m 15.410492,128.96416 a 1.6,1.6 0 0 0 1.6,-1.59998"
       style="fill:none;stroke:#0000ff;stroke-width:0.264583;stroke-linecap:round;stroke-linejoin:round;stroke-opacity:1"
       id="path12583" />
    <path
       d="m 17.010492,127.36418 v 0"
       style="fill:none;stroke:#0000ff;stroke-width:0.264583;stroke-linecap:round;stroke-linejoin:round;stroke-opacity:1"
       id="path12585" />
    <path
       d="m 17.010492,127.36418 a 1.6,1.6 0 0 0 -1.6,-1.59999"
       style="fill:none;stroke:#0000ff;stroke-width:0.264583;stroke-linecap:round;stroke-linejoin:round;stroke-opacity:1"
       id="path12587" />
    <path
       d="m 15.410492,125.76419 h -4.8"
       style="fill:none;stroke:#0000ff;stroke-width:0.264583;stroke-linecap:round;stroke-linejoin:round;stroke-opacity:1"
       id="path12589" />
    <path
       d="m 10.610492,125.76419 a 1.6,1.6 0 0 0 -1.6000002,1.59999"
       style="fill:none;stroke:#0000ff;stroke-width:0.264583;stroke-linecap:round;stroke-linejoin:round;stroke-opacity:1"
       id="path12591" />
    <path
       d="m 9.0104918,127.36418 v 0"
       style="fill:none;stroke:#0000ff;stroke-width:0.264583;stroke-linecap:round;stroke-linejoin:round;stroke-opacity:1"
       id="path12593" />
    <path
       d="m 25.321492,57.364184 a 3.5000001,3.5000001 0 1 0 -7,0 3.5000001,3.5000001 0 1 0 7,0 z"
       style="fill:none;stroke:#0000ff;stroke-width:0.264583;stroke-linecap:round;stroke-linejoin:round;stroke-opacity:1"
       id="path12595" />
    <path
       d="m 25.321492,94.364184 a 3.5000001,3.5000001 0 1 0 -7,0 3.5000001,3.5000001 0 1 0 7,0 z"
       style="fill:none;stroke:#0000ff;stroke-width:0.264583;stroke-linecap:round;stroke-linejoin:round;stroke-opacity:1"
       id="path12597" />
    <path
       d="m 32.82149,76.364186 a 3,3 0 1 0 -5.999998,0 3,3 0 1 0 5.999998,0 z"
       style="fill:none;stroke:#0000ff;stroke-width:0.264583;stroke-linecap:round;stroke-linejoin:round;stroke-opacity:1"
       id="path12599" />
    <path
       d="m 16.821492,76.364186 a 3,3 0 1 0 -6,0 3,3 0 1 0 6,0 z"
       style="fill:none;stroke:#0000ff;stroke-width:0.264583;stroke-linecap:round;stroke-linejoin:round;stroke-opacity:1"
       id="path12601" />
    <path
       d="m 32.82149,39.364186 a 3,3 0 1 0 -5.999998,0 3,3 0 1 0 5.999998,0 z"
       style="fill:none;stroke:#0000ff;stroke-width:0.264583;stroke-linecap:round;stroke-linejoin:round;stroke-opacity:1"
       id="path12603" />
    <path
       d="m 16.821492,39.364186 a 3,3 0 1 0 -6,0 3,3 0 1 0 6,0 z"
       style="fill:none;stroke:#0000ff;stroke-width:0.264583;stroke-linecap:round;stroke-linejoin:round;stroke-opacity:1"
       id="path12605" />
    <rect
       style="fill:none;stroke:#f500ff;stroke-width:0.26;stroke-linecap:round;stroke-linejoin:round;stroke-miterlimit:4;stroke-dasharray:none;stroke-opacity:1"
       id="rect13541-6"
       width="31.149988"
       height="34.890652"
       x="5.9759226"
       y="46.856693"
       ry="1.9819506" />
    <rect
       style="fill:none;stroke:#f500ff;stroke-width:0.26;stroke-linecap:round;stroke-linejoin:round;stroke-miterlimit:4;stroke-dasharray:none;stroke-opacity:1"
       id="rect13541-6-8"
       width="31.149988"
       height="34.890652"
       x="6.1759348"
       y="83.671616"
       ry="1.9819506" />
    <rect
       style="fill:none;stroke:#f500ff;stroke-width:0.26;stroke-linecap:round;stroke-linejoin:round;stroke-miterlimit:4;stroke-dasharray:none;stroke-opacity:1"
       id="rect13541-6-8-0"
       width="31.149988"
       height="34.890652"
       x="5.9759226"
       y="9.7709084"
       ry="1.9819506" />
    <g
       id="g12959"
       transform="matrix(0.26458333,0,0,0.26458333,43.276442,-173.62133)"
       style="stroke:#0000ff;stroke-linecap:round;stroke-linejoin:round;stroke-opacity:1">
      <g
         inkscape:label="Contour"
         id="g12874"
         style="stroke:#0000ff;stroke-opacity:1">
        <path
           d="m 151.1811,704.50394 a 3.779528,3.779528 0 0 0 -3.77953,-3.77953"
           style="fill:none;stroke:#0000ff;stroke-linecap:round;stroke-opacity:1"
           id="path12756" />
        <path
           d="M 151.1811,704.50394 V 1118.7402"
           style="fill:none;stroke:#0000ff;stroke-linecap:round;stroke-opacity:1"
           id="path12758" />
        <path
           d="m 147.40157,1122.5197 a 3.779528,3.779528 0 0 0 3.77953,-3.7795"
           style="fill:none;stroke:#0000ff;stroke-linecap:round;stroke-opacity:1"
           id="path12760" />
        <path
           d="M 147.40157,1122.5197 H 3.779528"
           style="fill:none;stroke:#0000ff;stroke-linecap:round;stroke-opacity:1"
           id="path12762" />
        <path
           d="m 0,1118.7402 a 3.779528,3.779528 0 0 0 3.779528,3.7795"
           style="fill:none;stroke:#0000ff;stroke-linecap:round;stroke-opacity:1"
           id="path12764" />
        <path
           d="M 0,1118.7402 V 704.50394"
           style="fill:none;stroke:#0000ff;stroke-linecap:round;stroke-opacity:1"
           id="path12766" />
        <path
           d="M 3.779528,700.72441 A 3.779528,3.779528 0 0 0 0,704.50394"
           style="fill:none;stroke:#0000ff;stroke-linecap:round;stroke-opacity:1"
           id="path12768" />
        <path
           d="M 3.779528,700.72441 H 147.40157"
           style="fill:none;stroke:#0000ff;stroke-linecap:round;stroke-opacity:1"
           id="path12770" />
        <path
           d="m 88.818898,738.51968 a 13.228347,13.228347 0 1 0 -26.456693,0 13.228347,13.228347 0 1 0 26.456693,0 z"
           style="fill:none;stroke:#0000ff;stroke-linecap:round;stroke-opacity:1"
           id="path12772" />
        <path
           d="m 88.818898,878.36221 a 13.228347,13.228347 0 1 0 -26.456693,0 13.228347,13.228347 0 1 0 26.456693,0 z"
           style="fill:none;stroke:#0000ff;stroke-linecap:round;stroke-opacity:1"
           id="path12774" />
        <path
           d="m 88.818898,1018.2047 a 13.228347,13.228347 0 1 0 -26.456693,0 13.228347,13.228347 0 1 0 26.456693,0 z"
           style="fill:none;stroke:#0000ff;stroke-linecap:round;stroke-opacity:1"
           id="path12776" />
        <path
           d="m 87.874016,1105.1339 a 1.889764,1.889764 0 0 0 1.889764,1.8897"
           style="fill:none;stroke:#0000ff;stroke-linecap:round;stroke-opacity:1"
           id="path12778" />
        <path
           d="m 89.76378,1107.0236 h 32.12598"
           style="fill:none;stroke:#0000ff;stroke-linecap:round;stroke-opacity:1"
           id="path12780" />
        <path
           d="m 121.88976,1107.0236 a 1.889764,1.889764 0 0 0 1.88977,-1.8897"
           style="fill:none;stroke:#0000ff;stroke-linecap:round;stroke-opacity:1"
           id="path12782" />
        <path
           d="m 123.77953,1105.1339 v -37.7953"
           style="fill:none;stroke:#0000ff;stroke-linecap:round;stroke-opacity:1"
           id="path12784" />
        <path
           d="m 123.77953,1067.3386 a 1.889764,1.889764 0 0 0 -1.88977,-1.8898"
           style="fill:none;stroke:#0000ff;stroke-linecap:round;stroke-opacity:1"
           id="path12786" />
        <path
           d="M 121.88976,1065.4488 H 89.76378"
           style="fill:none;stroke:#0000ff;stroke-linecap:round;stroke-opacity:1"
           id="path12788" />
        <path
           d="m 89.76378,1065.4488 a 1.889764,1.889764 0 0 0 -1.889764,1.8898"
           style="fill:none;stroke:#0000ff;stroke-linecap:round;stroke-opacity:1"
           id="path12790" />
        <path
           d="m 87.874016,1067.3386 v 37.7953"
           style="fill:none;stroke:#0000ff;stroke-linecap:round;stroke-opacity:1"
           id="path12792" />
        <path
           d="m 27.401575,1105.1339 a 1.889764,1.889764 0 0 0 1.889764,1.8897"
           style="fill:none;stroke:#0000ff;stroke-linecap:round;stroke-opacity:1"
           id="path12794" />
        <path
           d="M 29.291339,1107.0236 H 61.417323"
           style="fill:none;stroke:#0000ff;stroke-linecap:round;stroke-opacity:1"
           id="path12796" />
        <path
           d="m 61.417323,1107.0236 a 1.889764,1.889764 0 0 0 1.889764,-1.8897"
           style="fill:none;stroke:#0000ff;stroke-linecap:round;stroke-opacity:1"
           id="path12798" />
        <path
           d="m 63.307087,1105.1339 v -37.7953"
           style="fill:none;stroke:#0000ff;stroke-linecap:round;stroke-opacity:1"
           id="path12800" />
        <path
           d="m 63.307087,1067.3386 a 1.889764,1.889764 0 0 0 -1.889764,-1.8898"
           style="fill:none;stroke:#0000ff;stroke-linecap:round;stroke-opacity:1"
           id="path12802" />
        <path
           d="M 61.417323,1065.4488 H 29.291339"
           style="fill:none;stroke:#0000ff;stroke-linecap:round;stroke-opacity:1"
           id="path12804" />
        <path
           d="m 29.291339,1065.4488 a 1.889764,1.889764 0 0 0 -1.889764,1.8898"
           style="fill:none;stroke:#0000ff;stroke-linecap:round;stroke-opacity:1"
           id="path12806" />
        <path
           d="m 27.401575,1067.3386 v 37.7953"
           style="fill:none;stroke:#0000ff;stroke-linecap:round;stroke-opacity:1"
           id="path12808" />
        <path
           d="m 87.874016,969.07087 a 1.889764,1.889764 0 0 0 1.889764,1.88976"
           style="fill:none;stroke:#0000ff;stroke-linecap:round;stroke-opacity:1"
           id="path12810" />
        <path
           d="m 89.76378,970.96063 h 32.12598"
           style="fill:none;stroke:#0000ff;stroke-linecap:round;stroke-opacity:1"
           id="path12812" />
        <path
           d="m 121.88976,970.96063 a 1.889764,1.889764 0 0 0 1.88977,-1.88976"
           style="fill:none;stroke:#0000ff;stroke-linecap:round;stroke-opacity:1"
           id="path12814" />
        <path
           d="M 123.77953,969.07087 V 931.27559"
           style="fill:none;stroke:#0000ff;stroke-linecap:round;stroke-opacity:1"
           id="path12816" />
        <path
           d="m 123.77953,931.27559 a 1.889764,1.889764 0 0 0 -1.88977,-1.88976"
           style="fill:none;stroke:#0000ff;stroke-linecap:round;stroke-opacity:1"
           id="path12818" />
        <path
           d="M 121.88976,929.38583 H 89.76378"
           style="fill:none;stroke:#0000ff;stroke-linecap:round;stroke-opacity:1"
           id="path12820" />
        <path
           d="m 89.76378,929.38583 a 1.889764,1.889764 0 0 0 -1.889764,1.88976"
           style="fill:none;stroke:#0000ff;stroke-linecap:round;stroke-opacity:1"
           id="path12822" />
        <path
           d="m 87.874016,931.27559 v 37.79528"
           style="fill:none;stroke:#0000ff;stroke-linecap:round;stroke-opacity:1"
           id="path12824" />
        <path
           d="m 27.401575,969.07087 a 1.889764,1.889764 0 0 0 1.889764,1.88976"
           style="fill:none;stroke:#0000ff;stroke-linecap:round;stroke-opacity:1"
           id="path12826" />
        <path
           d="M 29.291339,970.96063 H 61.417323"
           style="fill:none;stroke:#0000ff;stroke-linecap:round;stroke-opacity:1"
           id="path12828" />
        <path
           d="m 61.417323,970.96063 a 1.889764,1.889764 0 0 0 1.889764,-1.88976"
           style="fill:none;stroke:#0000ff;stroke-linecap:round;stroke-opacity:1"
           id="path12830" />
        <path
           d="M 63.307087,969.07087 V 931.27559"
           style="fill:none;stroke:#0000ff;stroke-linecap:round;stroke-opacity:1"
           id="path12832" />
        <path
           d="m 63.307087,931.27559 a 1.889764,1.889764 0 0 0 -1.889764,-1.88976"
           style="fill:none;stroke:#0000ff;stroke-linecap:round;stroke-opacity:1"
           id="path12834" />
        <path
           d="M 61.417323,929.38583 H 29.291339"
           style="fill:none;stroke:#0000ff;stroke-linecap:round;stroke-opacity:1"
           id="path12836" />
        <path
           d="m 29.291339,929.38583 a 1.889764,1.889764 0 0 0 -1.889764,1.88976"
           style="fill:none;stroke:#0000ff;stroke-linecap:round;stroke-opacity:1"
           id="path12838" />
        <path
           d="m 27.401575,931.27559 v 37.79528"
           style="fill:none;stroke:#0000ff;stroke-linecap:round;stroke-opacity:1"
           id="path12840" />
        <path
           d="m 87.874016,829.22835 a 1.889764,1.889764 0 0 0 1.889764,1.88976"
           style="fill:none;stroke:#0000ff;stroke-linecap:round;stroke-opacity:1"
           id="path12842" />
        <path
           d="m 89.76378,831.11811 h 32.12598"
           style="fill:none;stroke:#0000ff;stroke-linecap:round;stroke-opacity:1"
           id="path12844" />
        <path
           d="m 121.88976,831.11811 a 1.889764,1.889764 0 0 0 1.88977,-1.88976"
           style="fill:none;stroke:#0000ff;stroke-linecap:round;stroke-opacity:1"
           id="path12846" />
        <path
           d="M 123.77953,829.22835 V 791.43307"
           style="fill:none;stroke:#0000ff;stroke-linecap:round;stroke-opacity:1"
           id="path12848" />
        <path
           d="m 123.77953,791.43307 a 1.889764,1.889764 0 0 0 -1.88977,-1.88976"
           style="fill:none;stroke:#0000ff;stroke-linecap:round;stroke-opacity:1"
           id="path12850" />
        <path
           d="M 121.88976,789.54331 H 89.76378"
           style="fill:none;stroke:#0000ff;stroke-linecap:round;stroke-opacity:1"
           id="path12852" />
        <path
           d="m 89.76378,789.54331 a 1.889764,1.889764 0 0 0 -1.889764,1.88976"
           style="fill:none;stroke:#0000ff;stroke-linecap:round;stroke-opacity:1"
           id="path12854" />
        <path
           d="m 87.874016,791.43307 v 37.79528"
           style="fill:none;stroke:#0000ff;stroke-linecap:round;stroke-opacity:1"
           id="path12856" />
        <path
           d="m 27.401575,829.22835 a 1.889764,1.889764 0 0 0 1.889764,1.88976"
           style="fill:none;stroke:#0000ff;stroke-linecap:round;stroke-opacity:1"
           id="path12858" />
        <path
           d="M 29.291339,831.11811 H 61.417323"
           style="fill:none;stroke:#0000ff;stroke-linecap:round;stroke-opacity:1"
           id="path12860" />
        <path
           d="m 61.417323,831.11811 a 1.889764,1.889764 0 0 0 1.889764,-1.88976"
           style="fill:none;stroke:#0000ff;stroke-linecap:round;stroke-opacity:1"
           id="path12862" />
        <path
           d="M 63.307087,829.22835 V 791.43307"
           style="fill:none;stroke:#0000ff;stroke-linecap:round;stroke-opacity:1"
           id="path12864" />
        <path
           d="m 63.307087,791.43307 a 1.889764,1.889764 0 0 0 -1.889764,-1.88976"
           style="fill:none;stroke:#0000ff;stroke-linecap:round;stroke-opacity:1"
           id="path12866" />
        <path
           d="M 61.417323,789.54331 H 29.291339"
           style="fill:none;stroke:#0000ff;stroke-linecap:round;stroke-opacity:1"
           id="path12868" />
        <path
           d="m 29.291339,789.54331 a 1.889764,1.889764 0 0 0 -1.889764,1.88976"
           style="fill:none;stroke:#0000ff;stroke-linecap:round;stroke-opacity:1"
           id="path12870" />
        <path
           d="m 27.401575,791.43307 v 37.79528"
           style="fill:none;stroke:#0000ff;stroke-linecap:round;stroke-opacity:1"
           id="path12872" />
      </g>
      <g
         inkscape:label="Engraving"
         id="g12876"
         style="stroke:#0000ff;stroke-opacity:1" />
      <g
         inkscape:label="Reference_points"
         id="g12878"
         style="stroke:#0000ff;stroke-opacity:1" />
      <g
         inkscape:label="0"
         id="g12882"
         style="stroke:#0000ff;stroke-opacity:1" />
    </g>
    <text
       xml:space="preserve"
       style="font-style:normal;font-weight:normal;font-size:10.5833px;line-height:1.25;font-family:sans-serif;letter-spacing:0px;word-spacing:0px;fill:#000000;fill-opacity:1;stroke:none;stroke-width:0.26;stroke-linecap:round;stroke-linejoin:round;stroke-miterlimit:4;stroke-dasharray:none;stroke-opacity:1"
       x="11.234376"
       y="33.615074"
       id="text2460-9-7-6-5-4-0-9-3-9-0-6"><tspan
         sodipodi:role="line"
         id="tspan2458-50-2-1-9-9-9-77-0-2-5-9"
         x="11.234376"
         y="33.615074"
         style="font-size:4.23333px;fill:none;fill-opacity:1;stroke:#ff00ff;stroke-width:0.26;stroke-miterlimit:4;stroke-dasharray:none;stroke-opacity:1">IN</tspan></text>
    <text
       xml:space="preserve"
       style="font-style:normal;font-weight:normal;font-size:10.5833px;line-height:1.25;font-family:sans-serif;letter-spacing:0px;word-spacing:0px;fill:#000000;fill-opacity:1;stroke:none;stroke-width:0.26;stroke-linecap:round;stroke-linejoin:round;stroke-miterlimit:4;stroke-dasharray:none;stroke-opacity:1"
       x="26.023743"
       y="33.575348"
       id="text2460-9-7-6-5-4-0-9-6-3-5-9-2"><tspan
         sodipodi:role="line"
         id="tspan2458-50-2-1-9-9-9-77-4-0-4-4-2"
         x="26.023743"
         y="33.575348"
         style="font-size:4.23333px;fill:none;fill-opacity:1;stroke:#ff00ff;stroke-width:0.26;stroke-miterlimit:4;stroke-dasharray:none;stroke-opacity:1">OUT</tspan></text>
    <text
       xml:space="preserve"
       style="font-style:normal;font-weight:normal;font-size:10.5833px;line-height:1.25;font-family:sans-serif;letter-spacing:0px;word-spacing:0px;fill:#000000;fill-opacity:1;stroke:none;stroke-width:0.26;stroke-linecap:round;stroke-linejoin:round;stroke-miterlimit:4;stroke-dasharray:none;stroke-opacity:1"
       x="11.294572"
       y="71.209084"
       id="text2460-9-7-6-5-4-0-9-3-9-0-6-7"><tspan
         sodipodi:role="line"
         id="tspan2458-50-2-1-9-9-9-77-0-2-5-9-7"
         x="11.294572"
         y="71.209084"
         style="font-size:4.23333px;fill:none;fill-opacity:1;stroke:#ff00ff;stroke-width:0.26;stroke-miterlimit:4;stroke-dasharray:none;stroke-opacity:1">IN</tspan></text>
    <text
       xml:space="preserve"
       style="font-style:normal;font-weight:normal;font-size:10.5833px;line-height:1.25;font-family:sans-serif;letter-spacing:0px;word-spacing:0px;fill:#000000;fill-opacity:1;stroke:none;stroke-width:0.26;stroke-linecap:round;stroke-linejoin:round;stroke-miterlimit:4;stroke-dasharray:none;stroke-opacity:1"
       x="26.083939"
       y="71.169357"
       id="text2460-9-7-6-5-4-0-9-6-3-5-9-2-5"><tspan
         sodipodi:role="line"
         id="tspan2458-50-2-1-9-9-9-77-4-0-4-4-2-4"
         x="26.083939"
         y="71.169357"
         style="font-size:4.23333px;fill:none;fill-opacity:1;stroke:#ff00ff;stroke-width:0.26;stroke-miterlimit:4;stroke-dasharray:none;stroke-opacity:1">OUT</tspan></text>
    <text
       xml:space="preserve"
       style="font-style:normal;font-weight:normal;font-size:10.5833px;line-height:1.25;font-family:sans-serif;letter-spacing:0px;word-spacing:0px;fill:#000000;fill-opacity:1;stroke:none;stroke-width:0.26;stroke-linecap:round;stroke-linejoin:round;stroke-miterlimit:4;stroke-dasharray:none;stroke-opacity:1"
       x="11.135118"
       y="106.70876"
       id="text2460-9-7-6-5-4-0-9-3-9-0-6-7-8"><tspan
         sodipodi:role="line"
         id="tspan2458-50-2-1-9-9-9-77-0-2-5-9-7-1"
         x="11.135118"
         y="106.70876"
         style="font-size:4.23333px;fill:none;fill-opacity:1;stroke:#ff00ff;stroke-width:0.26;stroke-miterlimit:4;stroke-dasharray:none;stroke-opacity:1">IN</tspan></text>
    <text
       xml:space="preserve"
       style="font-style:normal;font-weight:normal;font-size:10.5833px;line-height:1.25;font-family:sans-serif;letter-spacing:0px;word-spacing:0px;fill:#000000;fill-opacity:1;stroke:none;stroke-width:0.26;stroke-linecap:round;stroke-linejoin:round;stroke-miterlimit:4;stroke-dasharray:none;stroke-opacity:1"
       x="25.924484"
       y="106.66902"
       id="text2460-9-7-6-5-4-0-9-6-3-5-9-2-5-2"><tspan
         sodipodi:role="line"
         id="tspan2458-50-2-1-9-9-9-77-4-0-4-4-2-4-8"
         x="25.924484"
         y="106.66902"
         style="font-size:4.23333px;fill:none;fill-opacity:1;stroke:#ff00ff;stroke-width:0.26;stroke-miterlimit:4;stroke-dasharray:none;stroke-opacity:1">OUT</tspan></text>
  </g>
</svg>
