<?xml version="1.0" encoding="UTF-8" standalone="no"?>
<svg
   xmlns:fpd="http://www.schaeffer-ag.de"
   xmlns:dc="http://purl.org/dc/elements/1.1/"
   xmlns:cc="http://creativecommons.org/ns#"
   xmlns:rdf="http://www.w3.org/1999/02/22-rdf-syntax-ns#"
   xmlns:svg="http://www.w3.org/2000/svg"
   xmlns="http://www.w3.org/2000/svg"
   xmlns:sodipodi="http://sodipodi.sourceforge.net/DTD/sodipodi-0.dtd"
   xmlns:inkscape="http://www.inkscape.org/namespaces/inkscape"
   width="100mm"
   height="135mm"
   viewBox="0 0 100 135"
   version="1.1"
   id="svg11003"
   inkscape:version="1.0.2 (1.0.2+r75+1)"
   sodipodi:docname="front_panel_with_lp_hp_switch.svg">
  <defs
     id="defs10997" />
  <sodipodi:namedview
     id="base"
     pagecolor="#ffffff"
     bordercolor="#666666"
     borderopacity="1.0"
     inkscape:pageopacity="0.0"
     inkscape:pageshadow="2"
     inkscape:zoom="0.7"
     inkscape:cx="315.38806"
     inkscape:cy="437.99289"
     inkscape:document-units="mm"
     inkscape:current-layer="layer1"
     inkscape:document-rotation="0"
     showgrid="false"
     inkscape:window-width="1680"
     inkscape:window-height="995"
     inkscape:window-x="0"
     inkscape:window-y="27"
     inkscape:window-maximized="1" />
  <metadata
     id="metadata11000">
    <rdf:RDF>
      <cc:Work
         rdf:about="">
        <dc:format>image/svg+xml</dc:format>
        <dc:type
           rdf:resource="http://purl.org/dc/dcmitype/StillImage" />
        <dc:title></dc:title>
      </cc:Work>
    </rdf:RDF>
  </metadata>
  <g
     inkscape:label="Layer 1"
     inkscape:groupmode="layer"
     id="layer1">
    <text
       xml:space="preserve"
       style="font-style:normal;font-weight:normal;font-size:5.64444px;line-height:1.25;font-family:sans-serif;letter-spacing:0px;word-spacing:0px;fill:none;fill-opacity:1;stroke:#ff00ff;stroke-width:0.1;stroke-linecap:round;stroke-linejoin:round;stroke-miterlimit:4;stroke-dasharray:none;stroke-opacity:1"
       x="15.519704"
       y="9.9801188"
       id="text7615"><tspan
         sodipodi:role="line"
         id="tspan7613"
         x="15.519704"
         y="9.9801188"
         style="font-size:4.93889px;fill:none;stroke:#ff00ff;stroke-width:0.1;stroke-miterlimit:4;stroke-dasharray:none;stroke-opacity:1">FREQ</tspan></text>
    <text
       xml:space="preserve"
       style="font-style:normal;font-weight:normal;font-size:5.64444px;line-height:1.25;font-family:sans-serif;letter-spacing:0px;word-spacing:0px;fill:none;fill-opacity:1;stroke:#ff00ff;stroke-width:0.1;stroke-linecap:round;stroke-linejoin:round;stroke-miterlimit:4;stroke-dasharray:none;stroke-opacity:1"
       x="17.431326"
       y="45.222832"
       id="text7615-3"><tspan
         sodipodi:role="line"
         id="tspan7613-6"
         x="17.431326"
         y="45.222832"
         style="font-size:4.93889px;fill:none;stroke:#ff00ff;stroke-width:0.1;stroke-miterlimit:4;stroke-dasharray:none;stroke-opacity:1">RES</tspan></text>
    <text
       xml:space="preserve"
       style="font-style:normal;font-weight:normal;font-size:5.64444px;line-height:1.25;font-family:sans-serif;letter-spacing:0px;word-spacing:0px;fill:none;fill-opacity:1;stroke:#ff00ff;stroke-width:0.1;stroke-linecap:round;stroke-linejoin:round;stroke-miterlimit:4;stroke-dasharray:none;stroke-opacity:1"
       x="27.267538"
       y="76.541756"
       id="text7615-3-7"><tspan
         sodipodi:role="line"
         id="tspan7613-6-5"
         x="27.267538"
         y="76.541756"
         style="font-size:4.23333px;fill:none;stroke:#ff00ff;stroke-width:0.1;stroke-miterlimit:4;stroke-dasharray:none;stroke-opacity:1">HP</tspan></text>
    <text
       xml:space="preserve"
       style="font-style:normal;font-weight:normal;font-size:5.64444px;line-height:1.25;font-family:sans-serif;letter-spacing:0px;word-spacing:0px;fill:none;fill-opacity:1;stroke:#ff00ff;stroke-width:0.1;stroke-linecap:round;stroke-linejoin:round;stroke-miterlimit:4;stroke-dasharray:none;stroke-opacity:1"
       x="13.064351"
       y="76.281059"
       id="text7615-3-7-3"><tspan
         sodipodi:role="line"
         id="tspan7613-6-5-5"
         x="13.064351"
         y="76.281059"
         style="font-size:4.23333px;fill:none;stroke:#ff00ff;stroke-width:0.1;stroke-miterlimit:4;stroke-dasharray:none;stroke-opacity:1">LP</tspan></text>
    <text
       xml:space="preserve"
       style="font-style:normal;font-weight:normal;font-size:5.64444px;line-height:1.25;font-family:sans-serif;letter-spacing:0px;word-spacing:0px;fill:none;fill-opacity:1;stroke:#ff00ff;stroke-width:0.1;stroke-linecap:round;stroke-linejoin:round;stroke-miterlimit:4;stroke-dasharray:none;stroke-opacity:1"
       x="18.886404"
       y="106.66598"
       id="text7615-3-7-3-6"
       inkscape:transform-center-x="5.1819522"
       inkscape:transform-center-y="-18.532917"><tspan
         sodipodi:role="line"
         id="tspan7613-6-5-5-2"
         x="18.886404"
         y="106.66598"
         style="font-size:4.93889px;fill:none;stroke:#ff00ff;stroke-width:0.1;stroke-miterlimit:4;stroke-dasharray:none;stroke-opacity:1">CV</tspan></text>
    <text
       xml:space="preserve"
       style="font-style:normal;font-weight:normal;font-size:5.64444px;line-height:1.25;font-family:sans-serif;letter-spacing:0px;word-spacing:0px;fill:none;fill-opacity:1;stroke:#ff00ff;stroke-width:0.1;stroke-linecap:round;stroke-linejoin:round;stroke-miterlimit:4;stroke-dasharray:none;stroke-opacity:1"
       x="29.717993"
       y="106.70686"
       id="text7615-3-7-3-6-9"
       inkscape:transform-center-x="5.1819522"
       inkscape:transform-center-y="-18.532917"><tspan
         sodipodi:role="line"
         id="tspan7613-6-5-5-2-1"
         x="29.717993"
         y="106.70686"
         style="font-size:4.93889px;fill:none;stroke:#ff00ff;stroke-width:0.1;stroke-miterlimit:4;stroke-dasharray:none;stroke-opacity:1">OUT</tspan></text>
    <text
       xml:space="preserve"
       style="font-style:normal;font-weight:normal;font-size:5.64444px;line-height:1.25;font-family:sans-serif;letter-spacing:0px;word-spacing:0px;fill:none;fill-opacity:1;stroke:#ff00ff;stroke-width:0.1;stroke-linecap:round;stroke-linejoin:round;stroke-miterlimit:4;stroke-dasharray:none;stroke-opacity:1"
       x="7.5803728"
       y="106.44858"
       id="text7615-3-7-3-6-9-2"
       inkscape:transform-center-x="5.1819522"
       inkscape:transform-center-y="-18.532917"><tspan
         sodipodi:role="line"
         id="tspan7613-6-5-5-2-1-7"
         x="7.5803728"
         y="106.44858"
         style="font-size:4.93889px;fill:none;stroke:#ff00ff;stroke-width:0.1;stroke-miterlimit:4;stroke-dasharray:none;stroke-opacity:1">IN</tspan></text>
    <text
       xml:space="preserve"
       style="font-style:normal;font-weight:normal;font-size:6.35px;line-height:1.25;font-family:sans-serif;letter-spacing:0px;word-spacing:0px;fill:none;fill-opacity:1;stroke:#ff00ff;stroke-width:0.1;stroke-linecap:round;stroke-linejoin:round;stroke-miterlimit:4;stroke-dasharray:none;stroke-opacity:1"
       x="-89.907066"
       y="9.2410173"
       id="text7615-3-7-3-0"
       transform="rotate(-90)"><tspan
         sodipodi:role="line"
         id="tspan7613-6-5-5-9"
         x="-89.907066"
         y="9.2410173"
         style="font-size:6.35px;fill:none;stroke:#ff00ff;stroke-width:0.1;stroke-miterlimit:4;stroke-dasharray:none;stroke-opacity:1">MS20 VCF</tspan></text>
    <g
       transform="matrix(1,0,0,-1,2.2103046,129.56758)"
       fill-rule="evenodd"
       style="stroke-linecap:round;stroke-linejoin:round;stroke-opacity:1"
       id="g9634">
      <path
         d="m 6,125.5 a 1.6,1.6 0 0 1 1.6,-1.6 h 4.8 a 1.6,1.6 0 0 1 1.6,1.6 v 0 a 1.6,1.6 0 0 1 -1.6,1.6 H 7.6 A 1.6,1.6 0 0 1 6,125.5 v 0"
         fill="#ffffff"
         fill-opacity="1"
         vector-effect="non-scaling-stroke"
         stroke="#000000"
         stroke-width="0.1mm"
         stroke-opacity="1"
         fpd:visible="front back"
         fpd:print_element="0"
         id="path9606"
         style="stroke:#0000ff;stroke-opacity:1" />
      <path
         d="m 26,125.5 a 1.6,1.6 0 0 1 1.6,-1.6 h 4.8 a 1.6,1.6 0 0 1 1.6,1.6 v 0 a 1.6,1.6 0 0 1 -1.6,1.6 H 27.6 A 1.6,1.6 0 0 1 26,125.5 v 0"
         fill="#ffffff"
         fill-opacity="1"
         vector-effect="non-scaling-stroke"
         stroke="#000000"
         stroke-width="0.1mm"
         stroke-opacity="1"
         fpd:visible="front back"
         fpd:print_element="0"
         id="path9608"
         style="stroke:#0000ff;stroke-opacity:1" />
      <path
         d="M 6,3 A 1.6,1.6 0 0 1 7.6,1.4 h 4.8 A 1.6,1.6 0 0 1 14,3 V 3 A 1.6,1.6 0 0 1 12.4,4.6 H 7.6 A 1.6,1.6 0 0 1 6,3 v 0"
         fill="#ffffff"
         fill-opacity="1"
         vector-effect="non-scaling-stroke"
         stroke="#000000"
         stroke-width="0.1mm"
         stroke-opacity="1"
         fpd:visible="front back"
         fpd:print_element="0"
         id="path9610"
         style="stroke:#0000ff;stroke-opacity:1" />
      <path
         d="m 26,3 a 1.6,1.6 0 0 1 1.6,-1.6 h 4.8 A 1.6,1.6 0 0 1 34,3 V 3 A 1.6,1.6 0 0 1 32.4,4.6 H 27.6 A 1.6,1.6 0 0 1 26,3 v 0"
         fill="#ffffff"
         fill-opacity="1"
         vector-effect="non-scaling-stroke"
         stroke="#000000"
         stroke-width="0.1mm"
         stroke-opacity="1"
         fpd:visible="front back"
         fpd:print_element="0"
         id="path9612"
         style="stroke:#0000ff;stroke-opacity:1" />
      <path
         d="m 16.5,104.84 a 3.5,3.5 0 1 0 7,0 3.5,3.5 0 1 0 -7,0"
         fill="#ffffff"
         fill-opacity="1"
         vector-effect="non-scaling-stroke"
         stroke="#000000"
         stroke-width="0.1mm"
         stroke-opacity="1"
         fpd:visible="front back"
         fpd:print_element="0"
         id="path9614"
         style="stroke:#0000ff;stroke-opacity:1" />
      <path
         d="m 16.5,71.82 a 3.5,3.5 0 1 0 7,0 3.5,3.5 0 1 0 -7,0"
         fill="#ffffff"
         fill-opacity="1"
         vector-effect="non-scaling-stroke"
         stroke="#000000"
         stroke-width="0.1mm"
         stroke-opacity="1"
         fpd:visible="front back"
         fpd:print_element="0"
         id="path9616"
         style="stroke:#0000ff;stroke-opacity:1" />
      <path
         d="m 17,54.4 a 3,3 0 1 0 6,0 3,3 0 1 0 -6,0"
         fill="#ffffff"
         fill-opacity="1"
         vector-effect="non-scaling-stroke"
         stroke="#000000"
         stroke-width="0.1mm"
         stroke-opacity="1"
         fpd:visible="front back"
         fpd:print_element="0"
         id="path9618"
         style="stroke:#0000ff;stroke-opacity:1" />
      <path
         d="m 5,17 a 3,3 0 1 0 6,0 3,3 0 1 0 -6,0"
         fill="#ffffff"
         fill-opacity="1"
         vector-effect="non-scaling-stroke"
         stroke="#000000"
         stroke-width="0.1mm"
         stroke-opacity="1"
         fpd:visible="front back"
         fpd:print_element="0"
         id="path9620"
         style="stroke:#0000ff;stroke-opacity:1" />
      <path
         d="m 29,17 a 3,3 0 1 0 6,0 3,3 0 1 0 -6,0"
         fill="#ffffff"
         fill-opacity="1"
         vector-effect="non-scaling-stroke"
         stroke="#000000"
         stroke-width="0.1mm"
         stroke-opacity="1"
         fpd:visible="front back"
         fpd:print_element="0"
         id="path9622"
         style="stroke:#0000ff;stroke-opacity:1" />
      <path
         d="m 17,17 a 3,3 0 1 0 6,0 3,3 0 1 0 -6,0"
         fill="#ffffff"
         fill-opacity="1"
         vector-effect="non-scaling-stroke"
         stroke="#000000"
         stroke-width="0.1mm"
         stroke-opacity="1"
         fpd:visible="front back"
         fpd:print_element="0"
         id="path9624"
         style="stroke:#0000ff;stroke-opacity:1" />
      <path
         d="m 5.5,86 a 2.5,2.5 0 1 0 5,0 2.5,2.5 0 1 0 -5,0"
         fill="#ffffff"
         fill-opacity="1"
         vector-effect="non-scaling-stroke"
         stroke="#000000"
         stroke-width="0.1mm"
         stroke-opacity="1"
         fpd:visible="front back"
         fpd:print_element="0"
         id="path9626"
         style="stroke:#0000ff;stroke-opacity:1" />
      <path
         d="m 29.5,86 a 2.5,2.5 0 1 0 5,0 2.5,2.5 0 1 0 -5,0"
         fill="#ffffff"
         fill-opacity="1"
         vector-effect="non-scaling-stroke"
         stroke="#000000"
         stroke-width="0.1mm"
         stroke-opacity="1"
         fpd:visible="front back"
         fpd:print_element="0"
         id="path9628"
         style="stroke:#0000ff;stroke-opacity:1" />
      <path
         d="m 16.5,36.26 a 3.5,3.5 0 1 0 7,0 3.5,3.5 0 1 0 -7,0"
         fill="#ffffff"
         fill-opacity="1"
         vector-effect="non-scaling-stroke"
         stroke="#000000"
         stroke-width="0.1mm"
         stroke-opacity="1"
         fpd:visible="front back"
         fpd:print_element="0"
         id="path9630"
         style="stroke:#0000ff;stroke-opacity:1" />
      <path
         d="M 40,128.4 V 0 H 0 v 128.4 h 40"
         fill="none"
         vector-effect="non-scaling-stroke"
         stroke="#000000"
         stroke-width="0.1mm"
         stroke-opacity="1"
         fpd:visible="front back"
         id="path9632"
         style="stroke:#0000ff;stroke-opacity:1" />
    </g>
    <path
       d="m 59.922804,25.368298 a 3.5,3.5 0 1 1 7,0 3.5,3.5 0 1 1 -7,0"
       fill="#ffffff"
       fill-opacity="1"
       vector-effect="non-scaling-stroke"
       stroke="#000000"
       stroke-width="0.1mm"
       stroke-opacity="1"
       fpd:visible="front back"
       fpd:print_element="0"
       id="path9742"
       style="stroke:#0000ff;stroke-linecap:round;stroke-linejoin:round;stroke-opacity:1" />
    <path
       d="m 59.922804,58.388298 a 3.5,3.5 0 1 1 7,0 3.5,3.5 0 1 1 -7,0"
       fill="#ffffff"
       fill-opacity="1"
       vector-effect="non-scaling-stroke"
       stroke="#000000"
       stroke-width="0.1mm"
       stroke-opacity="1"
       fpd:visible="front back"
       fpd:print_element="0"
       id="path9744"
       style="stroke:#0000ff;stroke-linecap:round;stroke-linejoin:round;stroke-opacity:1" />
    <path
       d="m 60.422804,75.808298 a 3,3 0 1 1 6,0 3,3 0 1 1 -6,0"
       fill="#ffffff"
       fill-opacity="1"
       vector-effect="non-scaling-stroke"
       stroke="#000000"
       stroke-width="0.1mm"
       stroke-opacity="1"
       fpd:visible="front back"
       fpd:print_element="0"
       id="path9746"
       style="stroke:#0000ff;stroke-linecap:round;stroke-linejoin:round;stroke-opacity:1" />
    <path
       d="m 48.922804,44.208298 a 2.5,2.5 0 1 1 5,0 2.5,2.5 0 1 1 -5,0"
       fill="#ffffff"
       fill-opacity="1"
       vector-effect="non-scaling-stroke"
       stroke="#000000"
       stroke-width="0.1mm"
       stroke-opacity="1"
       fpd:visible="front back"
       fpd:print_element="0"
       id="path9748"
       style="stroke:#0000ff;stroke-linecap:round;stroke-linejoin:round;stroke-opacity:1" />
    <path
       d="m 72.922804,44.208298 a 2.5,2.5 0 1 1 5,0 2.5,2.5 0 1 1 -5,0"
       fill="#ffffff"
       fill-opacity="1"
       vector-effect="non-scaling-stroke"
       stroke="#000000"
       stroke-width="0.1mm"
       stroke-opacity="1"
       fpd:visible="front back"
       fpd:print_element="0"
       id="path9750"
       style="stroke:#0000ff;stroke-linecap:round;stroke-linejoin:round;stroke-opacity:1" />
    <path
       d="m 59.922804,93.948298 a 3.5,3.5 0 1 1 7,0 3.5,3.5 0 1 1 -7,0"
       fill="#ffffff"
       fill-opacity="1"
       vector-effect="non-scaling-stroke"
       stroke="#000000"
       stroke-width="0.1mm"
       stroke-opacity="1"
       fpd:visible="front back"
       fpd:print_element="0"
       id="path9752"
       style="stroke:#0000ff;stroke-linecap:round;stroke-linejoin:round;stroke-opacity:1" />
    <path
       d="m 46.672804,118.2083 a 0.5,0.5 0 0 0 0.5,0.5 h 8.5 a 0.5,0.5 0 0 0 0.5,-0.5 v -10 a 0.5,0.5 0 0 0 -0.5,-0.5 h -8.5 a 0.5,0.5 0 0 0 -0.5,0.5 v 10"
       fill="#ffffff"
       fill-opacity="1"
       vector-effect="non-scaling-stroke"
       stroke="#000000"
       stroke-width="0.1mm"
       stroke-opacity="1"
       fpd:visible="front back"
       fpd:print_element="0"
       id="path9754"
       style="stroke:#0000ff;stroke-linecap:round;stroke-linejoin:round;stroke-opacity:1" />
    <path
       d="m 58.672804,118.2083 a 0.5,0.5 0 0 0 0.5,0.5 h 8.5 a 0.5,0.5 0 0 0 0.5,-0.5 v -10 a 0.5,0.5 0 0 0 -0.5,-0.5 h -8.5 a 0.5,0.5 0 0 0 -0.5,0.5 v 10"
       fill="#ffffff"
       fill-opacity="1"
       vector-effect="non-scaling-stroke"
       stroke="#000000"
       stroke-width="0.1mm"
       stroke-opacity="1"
       fpd:visible="front back"
       fpd:print_element="0"
       id="path9756"
       style="stroke:#0000ff;stroke-linecap:round;stroke-linejoin:round;stroke-opacity:1" />
    <path
       d="m 70.672804,118.2083 a 0.5,0.5 0 0 0 0.5,0.5 h 8.5 a 0.5,0.5 0 0 0 0.5,-0.5 v -10 a 0.5,0.5 0 0 0 -0.5,-0.5 h -8.5 a 0.5,0.5 0 0 0 -0.5,0.5 v 10"
       fill="#ffffff"
       fill-opacity="1"
       vector-effect="non-scaling-stroke"
       stroke="#000000"
       stroke-width="0.1mm"
       stroke-opacity="1"
       fpd:visible="front back"
       fpd:print_element="0"
       id="path9758"
       style="stroke:#0000ff;stroke-linecap:round;stroke-linejoin:round;stroke-opacity:1" />
    <path
       d="M 83.422804,10.208298 V 121.8083 h -40 V 10.208298 h 40"
       fill="none"
       vector-effect="non-scaling-stroke"
       stroke="#000000"
       stroke-width="0.1mm"
       stroke-opacity="1"
       fpd:visible="front back"
       id="path9760"
       style="stroke:#0000ff;stroke-linecap:round;stroke-linejoin:round;stroke-opacity:1" />
  </g>
</svg>
