<?xml version="1.0" standalone="no"?>
<!DOCTYPE svg PUBLIC "-//W3C//DTD SVG 1.1//EN" 
  "http://www.w3.org/Graphics/SVG/1.1/DTD/svg11.dtd">
<svg width="40.000mm" height="111.600mm" version="1.1"
     viewBox="0 0 40.000 111.600"
     xmlns="http://www.w3.org/2000/svg"  xmlns:xlink="http://www.w3.org/1999/xlink" 
     xmlns:fpd="http://www.schaeffer-ag.de">
  <desc>Created with the Front Panel Designer by the export of the file 'lowpass_vcf_support.fpd'.</desc>
  <defs>
    <pattern id="revside-fill" x="1" y="1" width="1.116" height="1.116" patternUnits="userSpaceOnUse">
      <line x1="0" y1="0" x2="1.116" y2="1.116" style="stroke-width:0.112; stroke:black; stroke-dasharray:none;" />
      <line x1="0" y1="1.116" x2="1.116" y2="0" style="stroke-width:0.112; stroke:black; stroke-dasharray:none;" />
    </pattern>
    <pattern id="revside-fill-silver" x="1" y="1" width="1.116" height="1.116" patternUnits="userSpaceOnUse">
      <line x1="0" y1="0" x2="1.116" y2="1.116" style="stroke-width:0.112; stroke:#e0e0e0; stroke-dasharray:none;" />
      <line x1="0" y1="1.116" x2="1.116" y2="0" style="stroke-width:0.112; stroke:#e0e0e0; stroke-dasharray:none;" />
    </pattern>
  </defs>
<g transform="scale(1,-1) translate( -0.000, -111.600)" 
   fill-rule="evenodd"
   style="stroke-linecap:round; stroke-linejoin:round; stroke-opacity:1.0; stroke-opacity:1.0;">
<path d="
M40.000 111.600
L40.000 0.000
L0.000 0.000
L0.000 111.600
L40.000 111.600
" 
fill="#c0c0c0" fill-opacity="1.000000" vector-effect="non-scaling-stroke" stroke="#000000" stroke-width="0.100mm" stroke-opacity="1.000000" fpd:visible="front back" />
<path d="
M16.500 96.600
A3.500,3.500 0 1,0 23.500,96.600
A3.500,3.500 0 1,0 16.500,96.600
" 
fill="#ffffff" fill-opacity="1.000000" vector-effect="non-scaling-stroke" stroke="#000000" stroke-width="0.100mm" stroke-opacity="1.000000" fpd:visible="front back" fpd:print_element="0" />
<path d="
M17.201 58.500
A3.500,3.500 0 1,0 24.201,58.500
A3.500,3.500 0 1,0 17.201,58.500
" 
fill="#ffffff" fill-opacity="1.000000" vector-effect="non-scaling-stroke" stroke="#000000" stroke-width="0.100mm" stroke-opacity="1.000000" fpd:visible="front back" fpd:print_element="0" />
<path d="
M17.186 33.100
A3.500,3.500 0 1,0 24.186,33.100
A3.500,3.500 0 1,0 17.186,33.100
" 
fill="#ffffff" fill-opacity="1.000000" vector-effect="non-scaling-stroke" stroke="#000000" stroke-width="0.100mm" stroke-opacity="1.000000" fpd:visible="front back" fpd:print_element="0" />
<path d="
M3.250 6.600
A0.500,0.500 0 0,1 3.750,6.100
L12.250 6.100
A0.500,0.500 0 0,1 12.750,6.600
L12.750 16.600
A0.500,0.500 0 0,1 12.250,17.100
L3.750 17.100
A0.500,0.500 0 0,1 3.250,16.600
L3.250 6.600
" 
fill="#ffffff" fill-opacity="1.000000" vector-effect="non-scaling-stroke" stroke="#000000" stroke-width="0.100mm" stroke-opacity="1.000000" fpd:visible="front back" fpd:print_element="0" />
<path d="
M15.250 6.600
A0.500,0.500 0 0,1 15.750,6.100
L24.250 6.100
A0.500,0.500 0 0,1 24.750,6.600
L24.750 16.600
A0.500,0.500 0 0,1 24.250,17.100
L15.750 17.100
A0.500,0.500 0 0,1 15.250,16.600
L15.250 6.600
" 
fill="#ffffff" fill-opacity="1.000000" vector-effect="non-scaling-stroke" stroke="#000000" stroke-width="0.100mm" stroke-opacity="1.000000" fpd:visible="front back" fpd:print_element="0" />
<path d="
M27.250 6.600
A0.500,0.500 0 0,1 27.750,6.100
L36.250 6.100
A0.500,0.500 0 0,1 36.750,6.600
L36.750 16.600
A0.500,0.500 0 0,1 36.250,17.100
L27.750 17.100
A0.500,0.500 0 0,1 27.250,16.600
L27.250 6.600
" 
fill="#ffffff" fill-opacity="1.000000" vector-effect="non-scaling-stroke" stroke="#000000" stroke-width="0.100mm" stroke-opacity="1.000000" fpd:visible="front back" fpd:print_element="0" />
<path d="
M5.500 71.600
A2.500,2.500 0 1,0 10.500,71.600
A2.500,2.500 0 1,0 5.500,71.600
" 
fill="#ffffff" fill-opacity="1.000000" vector-effect="non-scaling-stroke" stroke="#000000" stroke-width="0.100mm" stroke-opacity="1.000000" fpd:visible="front back" fpd:print_element="0" />
<path d="
M29.500 71.600
A2.500,2.500 0 1,0 34.500,71.600
A2.500,2.500 0 1,0 29.500,71.600
" 
fill="#ffffff" fill-opacity="1.000000" vector-effect="non-scaling-stroke" stroke="#000000" stroke-width="0.100mm" stroke-opacity="1.000000" fpd:visible="front back" fpd:print_element="0" />
<path d="
M40.000 111.600
L40.000 0.000
L0.000 0.000
L0.000 111.600
L40.000 111.600
" 
fill="none" vector-effect="non-scaling-stroke" stroke="#000000" stroke-width="0.100mm" stroke-opacity="1.000000" fpd:visible="front back" />
</g>
</svg>
