<?xml version="1.0" standalone="no"?>
<!DOCTYPE svg PUBLIC "-//W3C//DTD SVG 1.1//EN" 
  "http://www.w3.org/Graphics/SVG/1.1/DTD/svg11.dtd">
<svg width="40.000mm" height="128.400mm" version="1.1"
     viewBox="0 0 40.000 128.400"
     xmlns="http://www.w3.org/2000/svg"  xmlns:xlink="http://www.w3.org/1999/xlink" 
     xmlns:fpd="http://www.schaeffer-ag.de">
  <desc>Created with the Front Panel Designer by the export of the file 'lowpass_vcf.fpd'.</desc>
  <defs>
    <pattern id="revside-fill" x="1" y="1" width="1.284" height="1.284" patternUnits="userSpaceOnUse">
      <line x1="0" y1="0" x2="1.284" y2="1.284" style="stroke-width:0.128; stroke:black; stroke-dasharray:none;" />
      <line x1="0" y1="1.284" x2="1.284" y2="0" style="stroke-width:0.128; stroke:black; stroke-dasharray:none;" />
    </pattern>
    <pattern id="revside-fill-silver" x="1" y="1" width="1.284" height="1.284" patternUnits="userSpaceOnUse">
      <line x1="0" y1="0" x2="1.284" y2="1.284" style="stroke-width:0.128; stroke:#e0e0e0; stroke-dasharray:none;" />
      <line x1="0" y1="1.284" x2="1.284" y2="0" style="stroke-width:0.128; stroke:#e0e0e0; stroke-dasharray:none;" />
    </pattern>
  </defs>
<g transform="scale(1,-1) translate( -0.000, -128.400)" 
   fill-rule="evenodd"
   style="stroke-linecap:round; stroke-linejoin:round; stroke-opacity:1.0; stroke-opacity:1.0;">
<path d="
M40.000 128.400
L40.000 0.000
L0.000 0.000
L0.000 128.400
L40.000 128.400
" 
fill="#c0c0c0" fill-opacity="1.000000" vector-effect="non-scaling-stroke" stroke="#000000" stroke-width="0.100mm" stroke-opacity="1.000000" fpd:visible="front back" />
<path d="
M6.000 125.500
A1.600,1.600 0 0,1 7.600,123.900
L12.400 123.900
A1.600,1.600 0 0,1 14.000,125.500
L14.000 125.500
A1.600,1.600 0 0,1 12.400,127.100
L7.600 127.100
A1.600,1.600 0 0,1 6.000,125.500
L6.000 125.500
" 
fill="#ffffff" fill-opacity="1.000000" vector-effect="non-scaling-stroke" stroke="#000000" stroke-width="0.100mm" stroke-opacity="1.000000" fpd:visible="front back" fpd:print_element="0" />
<path d="
M26.000 125.500
A1.600,1.600 0 0,1 27.600,123.900
L32.400 123.900
A1.600,1.600 0 0,1 34.000,125.500
L34.000 125.500
A1.600,1.600 0 0,1 32.400,127.100
L27.600 127.100
A1.600,1.600 0 0,1 26.000,125.500
L26.000 125.500
" 
fill="#ffffff" fill-opacity="1.000000" vector-effect="non-scaling-stroke" stroke="#000000" stroke-width="0.100mm" stroke-opacity="1.000000" fpd:visible="front back" fpd:print_element="0" />
<path d="
M6.000 3.000
A1.600,1.600 0 0,1 7.600,1.400
L12.400 1.400
A1.600,1.600 0 0,1 14.000,3.000
L14.000 3.000
A1.600,1.600 0 0,1 12.400,4.600
L7.600 4.600
A1.600,1.600 0 0,1 6.000,3.000
L6.000 3.000
" 
fill="#ffffff" fill-opacity="1.000000" vector-effect="non-scaling-stroke" stroke="#000000" stroke-width="0.100mm" stroke-opacity="1.000000" fpd:visible="front back" fpd:print_element="0" />
<path d="
M26.000 3.000
A1.600,1.600 0 0,1 27.600,1.400
L32.400 1.400
A1.600,1.600 0 0,1 34.000,3.000
L34.000 3.000
A1.600,1.600 0 0,1 32.400,4.600
L27.600 4.600
A1.600,1.600 0 0,1 26.000,3.000
L26.000 3.000
" 
fill="#ffffff" fill-opacity="1.000000" vector-effect="non-scaling-stroke" stroke="#000000" stroke-width="0.100mm" stroke-opacity="1.000000" fpd:visible="front back" fpd:print_element="0" />
<path d="
M16.500 105.000
A3.500,3.500 0 1,0 23.500,105.000
A3.500,3.500 0 1,0 16.500,105.000
" 
fill="#ffffff" fill-opacity="1.000000" vector-effect="non-scaling-stroke" stroke="#000000" stroke-width="0.100mm" stroke-opacity="1.000000" fpd:visible="front back" fpd:print_element="0" />
<path d="
M17.201 66.900
A3.500,3.500 0 1,0 24.201,66.900
A3.500,3.500 0 1,0 17.201,66.900
" 
fill="#ffffff" fill-opacity="1.000000" vector-effect="non-scaling-stroke" stroke="#000000" stroke-width="0.100mm" stroke-opacity="1.000000" fpd:visible="front back" fpd:print_element="0" />
<path d="
M17.186 41.500
A3.500,3.500 0 1,0 24.186,41.500
A3.500,3.500 0 1,0 17.186,41.500
" 
fill="#ffffff" fill-opacity="1.000000" vector-effect="non-scaling-stroke" stroke="#000000" stroke-width="0.100mm" stroke-opacity="1.000000" fpd:visible="front back" fpd:print_element="0" />
<path d="
M5.000 20.000
A3.000,3.000 0 1,0 11.000,20.000
A3.000,3.000 0 1,0 5.000,20.000
" 
fill="#ffffff" fill-opacity="1.000000" vector-effect="non-scaling-stroke" stroke="#000000" stroke-width="0.100mm" stroke-opacity="1.000000" fpd:visible="front back" fpd:print_element="0" />
<path d="
M29.000 20.000
A3.000,3.000 0 1,0 35.000,20.000
A3.000,3.000 0 1,0 29.000,20.000
" 
fill="#ffffff" fill-opacity="1.000000" vector-effect="non-scaling-stroke" stroke="#000000" stroke-width="0.100mm" stroke-opacity="1.000000" fpd:visible="front back" fpd:print_element="0" />
<path d="
M17.000 20.000
A3.000,3.000 0 1,0 23.000,20.000
A3.000,3.000 0 1,0 17.000,20.000
" 
fill="#ffffff" fill-opacity="1.000000" vector-effect="non-scaling-stroke" stroke="#000000" stroke-width="0.100mm" stroke-opacity="1.000000" fpd:visible="front back" fpd:print_element="0" />
<path d="
M5.500 80.000
A2.500,2.500 0 1,0 10.500,80.000
A2.500,2.500 0 1,0 5.500,80.000
" 
fill="#ffffff" fill-opacity="1.000000" vector-effect="non-scaling-stroke" stroke="#000000" stroke-width="0.100mm" stroke-opacity="1.000000" fpd:visible="front back" fpd:print_element="0" />
<path d="
M29.500 80.000
A2.500,2.500 0 1,0 34.500,80.000
A2.500,2.500 0 1,0 29.500,80.000
" 
fill="#ffffff" fill-opacity="1.000000" vector-effect="non-scaling-stroke" stroke="#000000" stroke-width="0.100mm" stroke-opacity="1.000000" fpd:visible="front back" fpd:print_element="0" />
<path d="
M40.000 128.400
L40.000 0.000
L0.000 0.000
L0.000 128.400
L40.000 128.400
" 
fill="none" vector-effect="non-scaling-stroke" stroke="#000000" stroke-width="0.100mm" stroke-opacity="1.000000" fpd:visible="front back" />
</g>
</svg>
