<?xml version="1.0" encoding="UTF-8" standalone="no"?>
<svg
   xmlns:dc="http://purl.org/dc/elements/1.1/"
   xmlns:cc="http://creativecommons.org/ns#"
   xmlns:rdf="http://www.w3.org/1999/02/22-rdf-syntax-ns#"
   xmlns:svg="http://www.w3.org/2000/svg"
   xmlns="http://www.w3.org/2000/svg"
   xmlns:sodipodi="http://sodipodi.sourceforge.net/DTD/sodipodi-0.dtd"
   xmlns:inkscape="http://www.inkscape.org/namespaces/inkscape"
   width="210mm"
   height="297mm"
   viewBox="0 0 210 297"
   version="1.1"
   id="svg13015"
   inkscape:version="1.0.2 (1.0.2+r75+1)"
   sodipodi:docname="dual_ad_ar_panels.svg">
  <defs
     id="defs13009" />
  <sodipodi:namedview
     id="base"
     pagecolor="#ffffff"
     bordercolor="#666666"
     borderopacity="1.0"
     inkscape:pageopacity="0.0"
     inkscape:pageshadow="2"
     inkscape:zoom="1.4"
     inkscape:cx="105.02974"
     inkscape:cy="227.57658"
     inkscape:document-units="mm"
     inkscape:current-layer="layer1"
     inkscape:document-rotation="0"
     showgrid="false"
     inkscape:window-width="1680"
     inkscape:window-height="995"
     inkscape:window-x="0"
     inkscape:window-y="27"
     inkscape:window-maximized="1" />
  <metadata
     id="metadata13012">
    <rdf:RDF>
      <cc:Work
         rdf:about="">
        <dc:format>image/svg+xml</dc:format>
        <dc:type
           rdf:resource="http://purl.org/dc/dcmitype/StillImage" />
        <dc:title></dc:title>
      </cc:Work>
    </rdf:RDF>
  </metadata>
  <g
     inkscape:label="Layer 1"
     inkscape:groupmode="layer"
     id="layer1">
    <g
       id="g4256"
       transform="matrix(0.26458333,0,0,0.26458333,1.538191,-167.31231)"
       style="stroke:#0000ff;stroke-opacity:1">
      <g
         inkscape:label="Contour"
         id="g4162"
         style="stroke:#0000ff;stroke-opacity:1">
        <path
           d="m 188.97638,641.00787 a 3.779528,3.779528 0 0 0 -3.77953,-3.77952"
           style="fill:none;stroke:#0000ff;stroke-linecap:round;stroke-opacity:1"
           id="path4026" />
        <path
           d="M 188.97638,641.00787 V 1118.7402"
           style="fill:none;stroke:#0000ff;stroke-linecap:round;stroke-opacity:1"
           id="path4028" />
        <path
           d="m 185.19685,1122.5197 a 3.779528,3.779528 0 0 0 3.77953,-3.7795"
           style="fill:none;stroke:#0000ff;stroke-linecap:round;stroke-opacity:1"
           id="path4030" />
        <path
           d="M 185.19685,1122.5197 H 3.779528"
           style="fill:none;stroke:#0000ff;stroke-linecap:round;stroke-opacity:1"
           id="path4032" />
        <path
           d="m 0,1118.7402 a 3.779528,3.779528 0 0 0 3.779528,3.7795"
           style="fill:none;stroke:#0000ff;stroke-linecap:round;stroke-opacity:1"
           id="path4034" />
        <path
           d="M 0,1118.7402 V 641.00787"
           style="fill:none;stroke:#0000ff;stroke-linecap:round;stroke-opacity:1"
           id="path4036" />
        <path
           d="M 3.779528,637.22835 A 3.779528,3.779528 0 0 0 0,641.00787"
           style="fill:none;stroke:#0000ff;stroke-linecap:round;stroke-opacity:1"
           id="path4038" />
        <path
           d="M 3.779528,637.22835 H 185.19685"
           style="fill:none;stroke:#0000ff;stroke-linecap:round;stroke-opacity:1"
           id="path4040" />
        <path
           d="m 81.259843,927.87402 a 13.228347,13.228347 0 1 0 -26.456693,0 13.228347,13.228347 0 1 0 26.456693,0 z"
           style="fill:none;stroke:#0000ff;stroke-linecap:round;stroke-opacity:1"
           id="path4042" />
        <path
           d="m 81.259843,831.87402 a 13.228347,13.228347 0 1 0 -26.456693,0 13.228347,13.228347 0 1 0 26.456693,0 z"
           style="fill:none;stroke:#0000ff;stroke-linecap:round;stroke-opacity:1"
           id="path4044" />
        <path
           d="m 81.259843,755.07402 a 13.228347,13.228347 0 1 0 -26.456693,0 13.228347,13.228347 0 1 0 26.456693,0 z"
           style="fill:none;stroke:#0000ff;stroke-linecap:round;stroke-opacity:1"
           id="path4046" />
        <path
           d="m 81.259843,1004.674 a 13.228347,13.228347 0 1 0 -26.456693,0 13.228347,13.228347 0 1 0 26.456693,0 z"
           style="fill:none;stroke:#0000ff;stroke-linecap:round;stroke-opacity:1"
           id="path4048" />
        <path
           d="m 22.677165,648.18898 a 6.047244,6.047244 0 0 0 6.047244,6.04724"
           style="fill:none;stroke:#0000ff;stroke-linecap:round;stroke-opacity:1"
           id="path4050" />
        <path
           d="M 28.724409,654.23622 H 46.866142"
           style="fill:none;stroke:#0000ff;stroke-linecap:round;stroke-opacity:1"
           id="path4052" />
        <path
           d="m 46.866142,654.23622 a 6.047244,6.047244 0 0 0 6.047244,-6.04724"
           style="fill:none;stroke:#0000ff;stroke-linecap:round;stroke-opacity:1"
           id="path4054" />
        <path
           d="m 52.913386,648.18898 v 0"
           style="fill:none;stroke:#0000ff;stroke-linecap:round;stroke-opacity:1"
           id="path4056" />
        <path
           d="m 52.913386,648.18898 a 6.047244,6.047244 0 0 0 -6.047244,-6.04725"
           style="fill:none;stroke:#0000ff;stroke-linecap:round;stroke-opacity:1"
           id="path4058" />
        <path
           d="M 46.866142,642.14173 H 28.724409"
           style="fill:none;stroke:#0000ff;stroke-linecap:round;stroke-opacity:1"
           id="path4060" />
        <path
           d="m 28.724409,642.14173 a 6.047244,6.047244 0 0 0 -6.047244,6.04725"
           style="fill:none;stroke:#0000ff;stroke-linecap:round;stroke-opacity:1"
           id="path4062" />
        <path
           d="m 22.677165,648.18898 v 0"
           style="fill:none;stroke:#0000ff;stroke-linecap:round;stroke-opacity:1"
           id="path4064" />
        <path
           d="m 22.677165,1111.1811 a 6.047244,6.047244 0 0 0 6.047244,6.0472"
           style="fill:none;stroke:#0000ff;stroke-linecap:round;stroke-opacity:1"
           id="path4066" />
        <path
           d="M 28.724409,1117.2283 H 46.866142"
           style="fill:none;stroke:#0000ff;stroke-linecap:round;stroke-opacity:1"
           id="path4068" />
        <path
           d="m 46.866142,1117.2283 a 6.047244,6.047244 0 0 0 6.047244,-6.0472"
           style="fill:none;stroke:#0000ff;stroke-linecap:round;stroke-opacity:1"
           id="path4070" />
        <path
           d="m 52.913386,1111.1811 v 0"
           style="fill:none;stroke:#0000ff;stroke-linecap:round;stroke-opacity:1"
           id="path4072" />
        <path
           d="m 52.913386,1111.1811 a 6.047244,6.047244 0 0 0 -6.047244,-6.0472"
           style="fill:none;stroke:#0000ff;stroke-linecap:round;stroke-opacity:1"
           id="path4074" />
        <path
           d="M 46.866142,1105.1339 H 28.724409"
           style="fill:none;stroke:#0000ff;stroke-linecap:round;stroke-opacity:1"
           id="path4076" />
        <path
           d="m 28.724409,1105.1339 a 6.047244,6.047244 0 0 0 -6.047244,6.0472"
           style="fill:none;stroke:#0000ff;stroke-linecap:round;stroke-opacity:1"
           id="path4078" />
        <path
           d="m 22.677165,1111.1811 v 0"
           style="fill:none;stroke:#0000ff;stroke-linecap:round;stroke-opacity:1"
           id="path4080" />
        <path
           d="m 71.811024,1062.0472 a 11.338583,11.338583 0 1 0 -22.677166,0 11.338583,11.338583 0 1 0 22.677166,0 z"
           style="fill:none;stroke:#0000ff;stroke-linecap:round;stroke-opacity:1"
           id="path4082" />
        <path
           d="m 136.06299,648.18898 a 6.047244,6.047244 0 0 0 6.04725,6.04724"
           style="fill:none;stroke:#0000ff;stroke-linecap:round;stroke-opacity:1"
           id="path4084" />
        <path
           d="m 142.11024,654.23622 h 18.14173"
           style="fill:none;stroke:#0000ff;stroke-linecap:round;stroke-opacity:1"
           id="path4086" />
        <path
           d="m 160.25197,654.23622 a 6.047244,6.047244 0 0 0 6.04724,-6.04724"
           style="fill:none;stroke:#0000ff;stroke-linecap:round;stroke-opacity:1"
           id="path4088" />
        <path
           d="m 166.29921,648.18898 v 0"
           style="fill:none;stroke:#0000ff;stroke-linecap:round;stroke-opacity:1"
           id="path4090" />
        <path
           d="m 166.29921,648.18898 a 6.047244,6.047244 0 0 0 -6.04724,-6.04725"
           style="fill:none;stroke:#0000ff;stroke-linecap:round;stroke-opacity:1"
           id="path4092" />
        <path
           d="M 160.25197,642.14173 H 142.11024"
           style="fill:none;stroke:#0000ff;stroke-linecap:round;stroke-opacity:1"
           id="path4094" />
        <path
           d="m 142.11024,642.14173 a 6.047244,6.047244 0 0 0 -6.04725,6.04725"
           style="fill:none;stroke:#0000ff;stroke-linecap:round;stroke-opacity:1"
           id="path4096" />
        <path
           d="m 136.06299,648.18898 v 0"
           style="fill:none;stroke:#0000ff;stroke-linecap:round;stroke-opacity:1"
           id="path4098" />
        <path
           d="m 136.06299,1111.1811 a 6.047244,6.047244 0 0 0 6.04725,6.0472"
           style="fill:none;stroke:#0000ff;stroke-linecap:round;stroke-opacity:1"
           id="path4100" />
        <path
           d="m 142.11024,1117.2283 h 18.14173"
           style="fill:none;stroke:#0000ff;stroke-linecap:round;stroke-opacity:1"
           id="path4102" />
        <path
           d="m 160.25197,1117.2283 a 6.047244,6.047244 0 0 0 6.04724,-6.0472"
           style="fill:none;stroke:#0000ff;stroke-linecap:round;stroke-opacity:1"
           id="path4104" />
        <path
           d="m 166.29921,1111.1811 v 0"
           style="fill:none;stroke:#0000ff;stroke-linecap:round;stroke-opacity:1"
           id="path4106" />
        <path
           d="m 166.29921,1111.1811 a 6.047244,6.047244 0 0 0 -6.04724,-6.0472"
           style="fill:none;stroke:#0000ff;stroke-linecap:round;stroke-opacity:1"
           id="path4108" />
        <path
           d="M 160.25197,1105.1339 H 142.11024"
           style="fill:none;stroke:#0000ff;stroke-linecap:round;stroke-opacity:1"
           id="path4110" />
        <path
           d="m 142.11024,1105.1339 a 6.047244,6.047244 0 0 0 -6.04725,6.0472"
           style="fill:none;stroke:#0000ff;stroke-linecap:round;stroke-opacity:1"
           id="path4112" />
        <path
           d="m 136.06299,1111.1811 v 0"
           style="fill:none;stroke:#0000ff;stroke-linecap:round;stroke-opacity:1"
           id="path4114" />
        <path
           d="m 162.51968,1062.0472 a 11.338583,11.338583 0 1 0 -22.67716,0 11.338583,11.338583 0 1 0 22.67716,0 z"
           style="fill:none;stroke:#0000ff;stroke-linecap:round;stroke-opacity:1"
           id="path4116" />
        <path
           d="m 71.811024,697.70079 a 11.338583,11.338583 0 1 0 -22.677166,0 11.338583,11.338583 0 1 0 22.677166,0 z"
           style="fill:none;stroke:#0000ff;stroke-linecap:round;stroke-opacity:1"
           id="path4118" />
        <path
           d="m 162.51968,697.70079 a 11.338583,11.338583 0 1 0 -22.67716,0 11.338583,11.338583 0 1 0 22.67716,0 z"
           style="fill:none;stroke:#0000ff;stroke-linecap:round;stroke-opacity:1"
           id="path4120" />
        <path
           d="m 115.27559,697.70079 a 9.448819,9.448819 0 1 0 -18.897637,0 9.448819,9.448819 0 1 0 18.897637,0 z"
           style="fill:none;stroke:#0000ff;stroke-linecap:round;stroke-opacity:1"
           id="path4122" />
        <path
           d="m 115.27559,1062.0472 a 9.448819,9.448819 0 1 0 -18.897637,0 9.448819,9.448819 0 1 0 18.897637,0 z"
           style="fill:none;stroke:#0000ff;stroke-linecap:round;stroke-opacity:1"
           id="path4124" />
        <path
           d="m 162.51968,967.43811 a 11.338583,11.338583 0 1 0 -22.67716,0 11.338583,11.338583 0 1 0 22.67716,0 z"
           style="fill:none;stroke:#0000ff;stroke-linecap:round;stroke-opacity:1"
           id="path4126" />
        <path
           d="m 162.51968,791.72787 a 11.338583,11.338583 0 1 0 -22.67716,0 11.338583,11.338583 0 1 0 22.67716,0 z"
           style="fill:none;stroke:#0000ff;stroke-linecap:round;stroke-opacity:1"
           id="path4128" />
        <path
           d="m 79.370079,1111.1622 a 6.047244,6.047244 0 0 0 6.047244,6.0472"
           style="fill:none;stroke:#0000ff;stroke-linecap:round;stroke-opacity:1"
           id="path4130" />
        <path
           d="M 85.417323,1117.2094 H 103.55906"
           style="fill:none;stroke:#0000ff;stroke-linecap:round;stroke-opacity:1"
           id="path4132" />
        <path
           d="m 103.55906,1117.2094 a 6.047244,6.047244 0 0 0 6.04724,-6.0472"
           style="fill:none;stroke:#0000ff;stroke-linecap:round;stroke-opacity:1"
           id="path4134" />
        <path
           d="m 109.6063,1111.1622 v 0"
           style="fill:none;stroke:#0000ff;stroke-linecap:round;stroke-opacity:1"
           id="path4136" />
        <path
           d="m 109.6063,1111.1622 a 6.047244,6.047244 0 0 0 -6.04724,-6.0472"
           style="fill:none;stroke:#0000ff;stroke-linecap:round;stroke-opacity:1"
           id="path4138" />
        <path
           d="M 103.55906,1105.115 H 85.417323"
           style="fill:none;stroke:#0000ff;stroke-linecap:round;stroke-opacity:1"
           id="path4140" />
        <path
           d="m 85.417323,1105.115 a 6.047244,6.047244 0 0 0 -6.047244,6.0472"
           style="fill:none;stroke:#0000ff;stroke-linecap:round;stroke-opacity:1"
           id="path4142" />
        <path
           d="m 79.370079,1111.1622 v 0"
           style="fill:none;stroke:#0000ff;stroke-linecap:round;stroke-opacity:1"
           id="path4144" />
        <path
           d="m 79.370079,648.17008 a 6.047244,6.047244 0 0 0 6.047244,6.04724"
           style="fill:none;stroke:#0000ff;stroke-linecap:round;stroke-opacity:1"
           id="path4146" />
        <path
           d="M 85.417323,654.21732 H 103.55906"
           style="fill:none;stroke:#0000ff;stroke-linecap:round;stroke-opacity:1"
           id="path4148" />
        <path
           d="m 103.55906,654.21732 a 6.047244,6.047244 0 0 0 6.04724,-6.04724"
           style="fill:none;stroke:#0000ff;stroke-linecap:round;stroke-opacity:1"
           id="path4150" />
        <path
           d="m 109.6063,648.17008 v 0"
           style="fill:none;stroke:#0000ff;stroke-linecap:round;stroke-opacity:1"
           id="path4152" />
        <path
           d="m 109.6063,648.17008 a 6.047244,6.047244 0 0 0 -6.04724,-6.04725"
           style="fill:none;stroke:#0000ff;stroke-linecap:round;stroke-opacity:1"
           id="path4154" />
        <path
           d="M 103.55906,642.12283 H 85.417323"
           style="fill:none;stroke:#0000ff;stroke-linecap:round;stroke-opacity:1"
           id="path4156" />
        <path
           d="m 85.417323,642.12283 a 6.047244,6.047244 0 0 0 -6.047244,6.04725"
           style="fill:none;stroke:#0000ff;stroke-linecap:round;stroke-opacity:1"
           id="path4158" />
        <path
           d="m 79.370079,648.17008 v 0"
           style="fill:none;stroke:#0000ff;stroke-linecap:round;stroke-opacity:1"
           id="path4160" />
      </g>
      <g
         inkscape:label="Engraving"
         id="g4164"
         style="stroke:#0000ff;stroke-opacity:1" />
      <g
         inkscape:label="Reference_points"
         id="g4166"
         style="stroke:#0000ff;stroke-opacity:1" />
      <g
         inkscape:label="0"
         id="g4170"
         style="stroke:#0000ff;stroke-opacity:1" />
    </g>
    <g
       id="g4500"
       transform="matrix(0.26458333,0,0,0.26458333,52.745652,-176.06149)"
       style="stroke:#0000ff;stroke-opacity:1">
      <g
         inkscape:label="Contour"
         id="g4426"
         style="stroke:#0000ff;stroke-opacity:1">
        <path
           d="m 188.97638,704.50394 a 3.779528,3.779528 0 0 0 -3.77953,-3.77953"
           style="fill:none;stroke:#0000ff;stroke-linecap:round;stroke-opacity:1"
           id="path4330" />
        <path
           d="M 188.97638,704.50394 V 1118.7402"
           style="fill:none;stroke:#0000ff;stroke-linecap:round;stroke-opacity:1"
           id="path4332" />
        <path
           d="m 185.19685,1122.5197 a 3.779528,3.779528 0 0 0 3.77953,-3.7795"
           style="fill:none;stroke:#0000ff;stroke-linecap:round;stroke-opacity:1"
           id="path4334" />
        <path
           d="M 185.19685,1122.5197 H 3.779528"
           style="fill:none;stroke:#0000ff;stroke-linecap:round;stroke-opacity:1"
           id="path4336" />
        <path
           d="m 0,1118.7402 a 3.779528,3.779528 0 0 0 3.779528,3.7795"
           style="fill:none;stroke:#0000ff;stroke-linecap:round;stroke-opacity:1"
           id="path4338" />
        <path
           d="M 0,1118.7402 V 704.50394"
           style="fill:none;stroke:#0000ff;stroke-linecap:round;stroke-opacity:1"
           id="path4340" />
        <path
           d="M 3.779528,700.72441 A 3.779528,3.779528 0 0 0 0,704.50394"
           style="fill:none;stroke:#0000ff;stroke-linecap:round;stroke-opacity:1"
           id="path4342" />
        <path
           d="M 3.779528,700.72441 H 185.19685"
           style="fill:none;stroke:#0000ff;stroke-linecap:round;stroke-opacity:1"
           id="path4344" />
        <path
           d="m 81.259843,959.62205 a 13.228347,13.228347 0 1 0 -26.456693,0 13.228347,13.228347 0 1 0 26.456693,0 z"
           style="fill:none;stroke:#0000ff;stroke-linecap:round;stroke-opacity:1"
           id="path4346" />
        <path
           d="m 81.259843,863.62205 a 13.228347,13.228347 0 1 0 -26.456693,0 13.228347,13.228347 0 1 0 26.456693,0 z"
           style="fill:none;stroke:#0000ff;stroke-linecap:round;stroke-opacity:1"
           id="path4348" />
        <path
           d="m 81.259843,786.82205 a 13.228347,13.228347 0 1 0 -26.456693,0 13.228347,13.228347 0 1 0 26.456693,0 z"
           style="fill:none;stroke:#0000ff;stroke-linecap:round;stroke-opacity:1"
           id="path4350" />
        <path
           d="m 81.259843,1036.422 a 13.228347,13.228347 0 1 0 -26.456693,0 13.228347,13.228347 0 1 0 26.456693,0 z"
           style="fill:none;stroke:#0000ff;stroke-linecap:round;stroke-opacity:1"
           id="path4352" />
        <path
           d="m 115.27559,729.44882 a 9.448819,9.448819 0 1 0 -18.897637,0 9.448819,9.448819 0 1 0 18.897637,0 z"
           style="fill:none;stroke:#0000ff;stroke-linecap:round;stroke-opacity:1"
           id="path4354" />
        <path
           d="m 115.27559,1093.7953 a 9.448819,9.448819 0 1 0 -18.897637,0 9.448819,9.448819 0 1 0 18.897637,0 z"
           style="fill:none;stroke:#0000ff;stroke-linecap:round;stroke-opacity:1"
           id="path4356" />
        <path
           d="m 162.51968,999.18614 a 11.338583,11.338583 0 1 0 -22.67716,0 11.338583,11.338583 0 1 0 22.67716,0 z"
           style="fill:none;stroke:#0000ff;stroke-linecap:round;stroke-opacity:1"
           id="path4358" />
        <path
           d="m 162.51968,823.47591 a 11.338583,11.338583 0 1 0 -22.67716,0 11.338583,11.338583 0 1 0 22.67716,0 z"
           style="fill:none;stroke:#0000ff;stroke-linecap:round;stroke-opacity:1"
           id="path4360" />
        <path
           d="m 42.519685,748.34646 a 1.889764,1.889764 0 0 0 1.889764,1.88976"
           style="fill:none;stroke:#0000ff;stroke-linecap:round;stroke-opacity:1"
           id="path4362" />
        <path
           d="M 44.409449,750.23622 H 76.535433"
           style="fill:none;stroke:#0000ff;stroke-linecap:round;stroke-opacity:1"
           id="path4364" />
        <path
           d="m 76.535433,750.23622 a 1.889764,1.889764 0 0 0 1.889764,-1.88976"
           style="fill:none;stroke:#0000ff;stroke-linecap:round;stroke-opacity:1"
           id="path4366" />
        <path
           d="M 78.425197,748.34646 V 710.55118"
           style="fill:none;stroke:#0000ff;stroke-linecap:round;stroke-opacity:1"
           id="path4368" />
        <path
           d="m 78.425197,710.55118 a 1.889764,1.889764 0 0 0 -1.889764,-1.88976"
           style="fill:none;stroke:#0000ff;stroke-linecap:round;stroke-opacity:1"
           id="path4370" />
        <path
           d="M 76.535433,708.66142 H 44.409449"
           style="fill:none;stroke:#0000ff;stroke-linecap:round;stroke-opacity:1"
           id="path4372" />
        <path
           d="m 44.409449,708.66142 a 1.889764,1.889764 0 0 0 -1.889764,1.88976"
           style="fill:none;stroke:#0000ff;stroke-linecap:round;stroke-opacity:1"
           id="path4374" />
        <path
           d="m 42.519685,710.55118 v 37.79528"
           style="fill:none;stroke:#0000ff;stroke-linecap:round;stroke-opacity:1"
           id="path4376" />
        <path
           d="m 133.22835,748.34646 a 1.889764,1.889764 0 0 0 1.88976,1.88976"
           style="fill:none;stroke:#0000ff;stroke-linecap:round;stroke-opacity:1"
           id="path4378" />
        <path
           d="m 135.11811,750.23622 h 32.12598"
           style="fill:none;stroke:#0000ff;stroke-linecap:round;stroke-opacity:1"
           id="path4380" />
        <path
           d="m 167.24409,750.23622 a 1.889764,1.889764 0 0 0 1.88977,-1.88976"
           style="fill:none;stroke:#0000ff;stroke-linecap:round;stroke-opacity:1"
           id="path4382" />
        <path
           d="M 169.13386,748.34646 V 710.55118"
           style="fill:none;stroke:#0000ff;stroke-linecap:round;stroke-opacity:1"
           id="path4384" />
        <path
           d="m 169.13386,710.55118 a 1.889764,1.889764 0 0 0 -1.88977,-1.88976"
           style="fill:none;stroke:#0000ff;stroke-linecap:round;stroke-opacity:1"
           id="path4386" />
        <path
           d="M 167.24409,708.66142 H 135.11811"
           style="fill:none;stroke:#0000ff;stroke-linecap:round;stroke-opacity:1"
           id="path4388" />
        <path
           d="m 135.11811,708.66142 a 1.889764,1.889764 0 0 0 -1.88976,1.88976"
           style="fill:none;stroke:#0000ff;stroke-linecap:round;stroke-opacity:1"
           id="path4390" />
        <path
           d="m 133.22835,710.55118 v 37.79528"
           style="fill:none;stroke:#0000ff;stroke-linecap:round;stroke-opacity:1"
           id="path4392" />
        <path
           d="m 42.519685,1112.6929 a 1.889764,1.889764 0 0 0 1.889764,1.8898"
           style="fill:none;stroke:#0000ff;stroke-linecap:round;stroke-opacity:1"
           id="path4394" />
        <path
           d="M 44.409449,1114.5827 H 76.535433"
           style="fill:none;stroke:#0000ff;stroke-linecap:round;stroke-opacity:1"
           id="path4396" />
        <path
           d="m 76.535433,1114.5827 a 1.889764,1.889764 0 0 0 1.889764,-1.8898"
           style="fill:none;stroke:#0000ff;stroke-linecap:round;stroke-opacity:1"
           id="path4398" />
        <path
           d="m 78.425197,1112.6929 v -37.7953"
           style="fill:none;stroke:#0000ff;stroke-linecap:round;stroke-opacity:1"
           id="path4400" />
        <path
           d="m 78.425197,1074.8976 a 1.889764,1.889764 0 0 0 -1.889764,-1.8897"
           style="fill:none;stroke:#0000ff;stroke-linecap:round;stroke-opacity:1"
           id="path4402" />
        <path
           d="M 76.535433,1073.0079 H 44.409449"
           style="fill:none;stroke:#0000ff;stroke-linecap:round;stroke-opacity:1"
           id="path4404" />
        <path
           d="m 44.409449,1073.0079 a 1.889764,1.889764 0 0 0 -1.889764,1.8897"
           style="fill:none;stroke:#0000ff;stroke-linecap:round;stroke-opacity:1"
           id="path4406" />
        <path
           d="m 42.519685,1074.8976 v 37.7953"
           style="fill:none;stroke:#0000ff;stroke-linecap:round;stroke-opacity:1"
           id="path4408" />
        <path
           d="m 133.22835,1112.6929 a 1.889764,1.889764 0 0 0 1.88976,1.8898"
           style="fill:none;stroke:#0000ff;stroke-linecap:round;stroke-opacity:1"
           id="path4410" />
        <path
           d="m 135.11811,1114.5827 h 32.12598"
           style="fill:none;stroke:#0000ff;stroke-linecap:round;stroke-opacity:1"
           id="path4412" />
        <path
           d="m 167.24409,1114.5827 a 1.889764,1.889764 0 0 0 1.88977,-1.8898"
           style="fill:none;stroke:#0000ff;stroke-linecap:round;stroke-opacity:1"
           id="path4414" />
        <path
           d="m 169.13386,1112.6929 v -37.7953"
           style="fill:none;stroke:#0000ff;stroke-linecap:round;stroke-opacity:1"
           id="path4416" />
        <path
           d="m 169.13386,1074.8976 a 1.889764,1.889764 0 0 0 -1.88977,-1.8897"
           style="fill:none;stroke:#0000ff;stroke-linecap:round;stroke-opacity:1"
           id="path4418" />
        <path
           d="M 167.24409,1073.0079 H 135.11811"
           style="fill:none;stroke:#0000ff;stroke-linecap:round;stroke-opacity:1"
           id="path4420" />
        <path
           d="m 135.11811,1073.0079 a 1.889764,1.889764 0 0 0 -1.88976,1.8897"
           style="fill:none;stroke:#0000ff;stroke-linecap:round;stroke-opacity:1"
           id="path4422" />
        <path
           d="m 133.22835,1074.8976 v 37.7953"
           style="fill:none;stroke:#0000ff;stroke-linecap:round;stroke-opacity:1"
           id="path4424" />
      </g>
      <g
         inkscape:label="Engraving"
         id="g4428"
         style="stroke:#0000ff;stroke-opacity:1" />
      <g
         inkscape:label="Reference_points"
         id="g4430"
         style="stroke:#0000ff;stroke-opacity:1" />
      <g
         inkscape:label="0"
         id="g4434"
         style="stroke:#0000ff;stroke-opacity:1" />
    </g>
    <text
       xml:space="preserve"
       style="font-style:normal;font-weight:normal;font-size:4.9389px;line-height:1.25;font-family:sans-serif;letter-spacing:0px;word-spacing:0px;fill:none;fill-opacity:1;stroke:#ff00ff;stroke-width:0.264583;stroke-linecap:round;stroke-linejoin:round;stroke-opacity:1"
       x="36.093304"
       y="54.624302"
       id="text7615-6-9-4-7"><tspan
         sodipodi:role="line"
         x="36.093304"
         y="54.624302"
         style="font-size:4.9389px;fill:none;stroke:#ff00ff;stroke-width:0.264583;stroke-opacity:1"
         id="tspan8486-2-9-1">A / R</tspan></text>
    <text
       xml:space="preserve"
       style="font-style:normal;font-weight:normal;font-size:4.9389px;line-height:1.25;font-family:sans-serif;letter-spacing:0px;word-spacing:0px;fill:none;fill-opacity:1;stroke:#ff00ff;stroke-width:0.264583;stroke-linecap:round;stroke-linejoin:round;stroke-opacity:1"
       x="35.586147"
       y="34.093678"
       id="text7615-6-9-4-7-7"><tspan
         sodipodi:role="line"
         x="35.586147"
         y="34.093678"
         style="font-size:4.9389px;fill:none;stroke:#ff00ff;stroke-width:0.264583;stroke-opacity:1"
         id="tspan8486-2-9-1-2">A / D</tspan></text>
    <text
       xml:space="preserve"
       style="font-style:normal;font-weight:normal;font-size:4.9389px;line-height:1.25;font-family:sans-serif;letter-spacing:0px;word-spacing:0px;fill:none;fill-opacity:1;stroke:#ff00ff;stroke-width:0.264583;stroke-linecap:round;stroke-linejoin:round;stroke-opacity:1"
       x="36.12006"
       y="100.32869"
       id="text7615-6-9-4-7-72"><tspan
         sodipodi:role="line"
         x="36.12006"
         y="100.32869"
         style="font-size:4.9389px;fill:none;stroke:#ff00ff;stroke-width:0.264583;stroke-opacity:1"
         id="tspan8486-2-9-1-26">A / R</tspan></text>
    <text
       xml:space="preserve"
       style="font-style:normal;font-weight:normal;font-size:4.9389px;line-height:1.25;font-family:sans-serif;letter-spacing:0px;word-spacing:0px;fill:none;fill-opacity:1;stroke:#ff00ff;stroke-width:0.264583;stroke-linecap:round;stroke-linejoin:round;stroke-opacity:1"
       x="36.356426"
       y="79.659676"
       id="text7615-6-9-4-7-7-1"><tspan
         sodipodi:role="line"
         x="36.356426"
         y="79.659676"
         style="font-size:4.9389px;fill:none;stroke:#ff00ff;stroke-width:0.264583;stroke-opacity:1"
         id="tspan8486-2-9-1-2-0">A / D</tspan></text>
    <text
       xml:space="preserve"
       style="font-style:normal;font-weight:normal;font-size:4.9389px;line-height:1.25;font-family:sans-serif;letter-spacing:0px;word-spacing:0px;fill:none;fill-opacity:1;stroke:#ff00ff;stroke-width:0.264583;stroke-linecap:round;stroke-linejoin:round;stroke-opacity:1"
       x="5.205668"
       y="33.902805"
       id="text7615-6-9-4-7-7-6"><tspan
         sodipodi:role="line"
         x="5.205668"
         y="33.902805"
         style="font-size:4.9389px;fill:none;stroke:#ff00ff;stroke-width:0.264583;stroke-opacity:1"
         id="tspan8486-2-9-1-2-1">A</tspan></text>
    <text
       xml:space="preserve"
       style="font-style:normal;font-weight:normal;font-size:4.9389px;line-height:1.25;font-family:sans-serif;letter-spacing:0px;word-spacing:0px;fill:none;fill-opacity:1;stroke:#ff00ff;stroke-width:0.264583;stroke-linecap:round;stroke-linejoin:round;stroke-opacity:1"
       x="4.4913883"
       y="79.203133"
       id="text7615-6-9-4-7-7-6-5"><tspan
         sodipodi:role="line"
         x="4.4913883"
         y="79.203133"
         style="font-size:4.9389px;fill:none;stroke:#ff00ff;stroke-width:0.264583;stroke-opacity:1"
         id="tspan8486-2-9-1-2-1-9">A</tspan></text>
    <text
       xml:space="preserve"
       style="font-style:normal;font-weight:normal;font-size:4.9389px;line-height:1.25;font-family:sans-serif;letter-spacing:0px;word-spacing:0px;fill:none;fill-opacity:1;stroke:#ff00ff;stroke-width:0.264583;stroke-linecap:round;stroke-linejoin:round;stroke-opacity:1"
       x="3.8843787"
       y="94.078407"
       id="text7615-6-9-4-7-7-6-5-4"><tspan
         sodipodi:role="line"
         x="3.8843787"
         y="94.078407"
         style="font-size:4.9389px;fill:none;stroke:#ff00ff;stroke-width:0.264583;stroke-opacity:1"
         id="tspan8486-2-9-1-2-1-9-9">D </tspan><tspan
         sodipodi:role="line"
         x="3.8843787"
         y="100.25203"
         style="font-size:4.9389px;fill:none;stroke:#ff00ff;stroke-width:0.264583;stroke-opacity:1"
         id="tspan8780">/ </tspan><tspan
         sodipodi:role="line"
         x="3.8843787"
         y="106.42566"
         style="font-size:4.9389px;fill:none;stroke:#ff00ff;stroke-width:0.264583;stroke-opacity:1"
         id="tspan8778">R</tspan></text>
    <text
       xml:space="preserve"
       style="font-style:normal;font-weight:normal;font-size:4.9389px;line-height:1.25;font-family:sans-serif;letter-spacing:0px;word-spacing:0px;fill:none;fill-opacity:1;stroke:#ff00ff;stroke-width:0.264583;stroke-linecap:round;stroke-linejoin:round;stroke-opacity:1"
       x="3.9874442"
       y="47.988514"
       id="text7615-6-9-4-7-7-6-5-4-0"><tspan
         sodipodi:role="line"
         x="3.9874442"
         y="47.988514"
         style="font-size:4.9389px;fill:none;stroke:#ff00ff;stroke-width:0.264583;stroke-opacity:1"
         id="tspan8486-2-9-1-2-1-9-9-9">D </tspan><tspan
         sodipodi:role="line"
         x="3.9874442"
         y="54.16214"
         style="font-size:4.9389px;fill:none;stroke:#ff00ff;stroke-width:0.264583;stroke-opacity:1"
         id="tspan8780-1">/ </tspan><tspan
         sodipodi:role="line"
         x="3.9874442"
         y="60.335766"
         style="font-size:4.9389px;fill:none;stroke:#ff00ff;stroke-width:0.264583;stroke-opacity:1"
         id="tspan8778-7">R</tspan></text>
    <text
       xml:space="preserve"
       style="font-style:normal;font-weight:normal;font-size:4.9389px;line-height:1.25;font-family:sans-serif;letter-spacing:0px;word-spacing:0px;fill:none;fill-opacity:1;stroke:#ff00ff;stroke-width:0.264583;stroke-linecap:round;stroke-linejoin:round;stroke-opacity:1"
       x="10.475482"
       y="122.35014"
       id="text7615-6-9-4-7-72-7"><tspan
         sodipodi:role="line"
         x="10.475482"
         y="122.35014"
         style="font-size:4.9389px;fill:none;stroke:#ff00ff;stroke-width:0.264583;stroke-opacity:1"
         id="tspan8486-2-9-1-26-1">GATE</tspan></text>
    <text
       xml:space="preserve"
       style="font-style:normal;font-weight:normal;font-size:4.9389px;line-height:1.25;font-family:sans-serif;letter-spacing:0px;word-spacing:0px;fill:none;fill-opacity:1;stroke:#ff00ff;stroke-width:0.264583;stroke-linecap:round;stroke-linejoin:round;stroke-opacity:1"
       x="36.387341"
       y="122.35117"
       id="text7615-6-9-4-7-72-7-1"><tspan
         sodipodi:role="line"
         x="36.387341"
         y="122.35117"
         style="font-size:4.9389px;fill:none;stroke:#ff00ff;stroke-width:0.264583;stroke-opacity:1"
         id="tspan8486-2-9-1-26-1-5">OUT</tspan></text>
    <text
       xml:space="preserve"
       style="font-style:normal;font-weight:normal;font-size:4.9389px;line-height:1.25;font-family:sans-serif;letter-spacing:0px;word-spacing:0px;fill:none;fill-opacity:1;stroke:#ff00ff;stroke-width:0.264583;stroke-linecap:round;stroke-linejoin:round;stroke-opacity:1"
       x="10.361552"
       y="11.675087"
       id="text7615-6-9-4-7-72-7-9"><tspan
         sodipodi:role="line"
         x="10.361552"
         y="11.675087"
         style="font-size:4.9389px;fill:none;stroke:#ff00ff;stroke-width:0.264583;stroke-opacity:1"
         id="tspan8486-2-9-1-26-1-7">GATE</tspan></text>
    <text
       xml:space="preserve"
       style="font-style:normal;font-weight:normal;font-size:4.9389px;line-height:1.25;font-family:sans-serif;letter-spacing:0px;word-spacing:0px;fill:none;fill-opacity:1;stroke:#ff00ff;stroke-width:0.264583;stroke-linecap:round;stroke-linejoin:round;stroke-opacity:1"
       x="37.506893"
       y="11.706398"
       id="text7615-6-9-4-7-72-7-1-7"><tspan
         sodipodi:role="line"
         x="37.506893"
         y="11.706398"
         style="font-size:4.9389px;fill:none;stroke:#ff00ff;stroke-width:0.264583;stroke-opacity:1"
         id="tspan8486-2-9-1-26-1-5-6">OUT</tspan></text>
  </g>
</svg>
