<?xml version="1.0" encoding="UTF-8" standalone="no"?>
<svg
   xmlns:dc="http://purl.org/dc/elements/1.1/"
   xmlns:cc="http://creativecommons.org/ns#"
   xmlns:rdf="http://www.w3.org/1999/02/22-rdf-syntax-ns#"
   xmlns:svg="http://www.w3.org/2000/svg"
   xmlns="http://www.w3.org/2000/svg"
   xmlns:sodipodi="http://sodipodi.sourceforge.net/DTD/sodipodi-0.dtd"
   xmlns:inkscape="http://www.inkscape.org/namespaces/inkscape"
   width="210mm"
   height="297mm"
   viewBox="0 0 210 297"
   version="1.1"
   id="svg12010"
   inkscape:version="1.0.2 (1.0.2+r75+1)"
   sodipodi:docname="single_ad_ar_panels.svg">
  <defs
     id="defs12004" />
  <sodipodi:namedview
     id="base"
     pagecolor="#ffffff"
     bordercolor="#666666"
     borderopacity="1.0"
     inkscape:pageopacity="0.0"
     inkscape:pageshadow="2"
     inkscape:zoom="1.4"
     inkscape:cx="204.44099"
     inkscape:cy="256.8674"
     inkscape:document-units="mm"
     inkscape:current-layer="layer1"
     inkscape:document-rotation="0"
     showgrid="false"
     inkscape:window-width="1680"
     inkscape:window-height="995"
     inkscape:window-x="0"
     inkscape:window-y="27"
     inkscape:window-maximized="1" />
  <metadata
     id="metadata12007">
    <rdf:RDF>
      <cc:Work
         rdf:about="">
        <dc:format>image/svg+xml</dc:format>
        <dc:type
           rdf:resource="http://purl.org/dc/dcmitype/StillImage" />
        <dc:title></dc:title>
      </cc:Work>
    </rdf:RDF>
  </metadata>
  <g
     inkscape:label="Layer 1"
     inkscape:groupmode="layer"
     id="layer1">
    <g
       id="g2554"
       transform="matrix(0.26458333,0,0,0.26458333,6.0668655,-162.80639)"
       style="fill:none;fill-opacity:1;stroke:#0000ff;stroke-opacity:1">
      <g
         inkscape:label="Contour"
         id="g2496"
         style="fill:none;fill-opacity:1;stroke:#0000ff;stroke-opacity:1">
        <path
           d="m 113.38583,641.00787 a 3.779528,3.779528 0 0 0 -3.77953,-3.77952"
           style="fill:none;fill-opacity:1;stroke:#0000ff;stroke-linecap:round;stroke-opacity:1"
           id="path2432" />
        <path
           d="M 113.38583,641.00787 V 1118.7402"
           style="fill:none;fill-opacity:1;stroke:#0000ff;stroke-linecap:round;stroke-opacity:1"
           id="path2434" />
        <path
           d="m 109.6063,1122.5197 a 3.779528,3.779528 0 0 0 3.77953,-3.7795"
           style="fill:none;fill-opacity:1;stroke:#0000ff;stroke-linecap:round;stroke-opacity:1"
           id="path2436" />
        <path
           d="M 109.6063,1122.5197 H 3.779528"
           style="fill:none;fill-opacity:1;stroke:#0000ff;stroke-linecap:round;stroke-opacity:1"
           id="path2438" />
        <path
           d="m 0,1118.7402 a 3.779528,3.779528 0 0 0 3.779528,3.7795"
           style="fill:none;fill-opacity:1;stroke:#0000ff;stroke-linecap:round;stroke-opacity:1"
           id="path2440" />
        <path
           d="M 0,1118.7402 V 641.00787"
           style="fill:none;fill-opacity:1;stroke:#0000ff;stroke-linecap:round;stroke-opacity:1"
           id="path2442" />
        <path
           d="M 3.779528,637.22835 A 3.779528,3.779528 0 0 0 0,641.00787"
           style="fill:none;fill-opacity:1;stroke:#0000ff;stroke-linecap:round;stroke-opacity:1"
           id="path2444" />
        <path
           d="M 3.779528,637.22835 H 109.6063"
           style="fill:none;fill-opacity:1;stroke:#0000ff;stroke-linecap:round;stroke-opacity:1"
           id="path2446" />
        <path
           d="m 81.259843,895.74803 a 13.228347,13.228347 0 1 0 -26.456693,0 13.228347,13.228347 0 1 0 26.456693,0 z"
           style="fill:none;fill-opacity:1;stroke:#0000ff;stroke-linecap:round;stroke-opacity:1"
           id="path2448" />
        <path
           d="m 81.259843,751.74803 a 13.228347,13.228347 0 1 0 -26.456693,0 13.228347,13.228347 0 1 0 26.456693,0 z"
           style="fill:none;fill-opacity:1;stroke:#0000ff;stroke-linecap:round;stroke-opacity:1"
           id="path2450" />
        <path
           d="m 64.629921,647.92819 a 6.047244,6.047244 0 0 0 6.047244,6.04724"
           style="fill:none;fill-opacity:1;stroke:#0000ff;stroke-linecap:round;stroke-opacity:1"
           id="path2452" />
        <path
           d="M 70.677165,653.97543 H 88.818898"
           style="fill:none;fill-opacity:1;stroke:#0000ff;stroke-linecap:round;stroke-opacity:1"
           id="path2454" />
        <path
           d="m 88.818898,653.97543 a 6.047244,6.047244 0 0 0 6.047244,-6.04724"
           style="fill:none;fill-opacity:1;stroke:#0000ff;stroke-linecap:round;stroke-opacity:1"
           id="path2456" />
        <path
           d="m 94.866142,647.92819 v 0"
           style="fill:none;fill-opacity:1;stroke:#0000ff;stroke-linecap:round;stroke-opacity:1"
           id="path2458" />
        <path
           d="m 94.866142,647.92819 a 6.047244,6.047244 0 0 0 -6.047244,-6.04725"
           style="fill:none;fill-opacity:1;stroke:#0000ff;stroke-linecap:round;stroke-opacity:1"
           id="path2460" />
        <path
           d="M 88.818898,641.88094 H 70.677165"
           style="fill:none;fill-opacity:1;stroke:#0000ff;stroke-linecap:round;stroke-opacity:1"
           id="path2462" />
        <path
           d="m 70.677165,641.88094 a 6.047244,6.047244 0 0 0 -6.047244,6.04725"
           style="fill:none;fill-opacity:1;stroke:#0000ff;stroke-linecap:round;stroke-opacity:1"
           id="path2464" />
        <path
           d="m 64.629921,647.92819 v 0"
           style="fill:none;fill-opacity:1;stroke:#0000ff;stroke-linecap:round;stroke-opacity:1"
           id="path2466" />
        <path
           d="m 64.629921,1111.1811 a 6.047244,6.047244 0 0 0 6.047244,6.0472"
           style="fill:none;fill-opacity:1;stroke:#0000ff;stroke-linecap:round;stroke-opacity:1"
           id="path2468" />
        <path
           d="M 70.677165,1117.2283 H 88.818898"
           style="fill:none;fill-opacity:1;stroke:#0000ff;stroke-linecap:round;stroke-opacity:1"
           id="path2470" />
        <path
           d="m 88.818898,1117.2283 a 6.047244,6.047244 0 0 0 6.047244,-6.0472"
           style="fill:none;fill-opacity:1;stroke:#0000ff;stroke-linecap:round;stroke-opacity:1"
           id="path2472" />
        <path
           d="m 94.866142,1111.1811 v 0"
           style="fill:none;fill-opacity:1;stroke:#0000ff;stroke-linecap:round;stroke-opacity:1"
           id="path2474" />
        <path
           d="m 94.866142,1111.1811 a 6.047244,6.047244 0 0 0 -6.047244,-6.0472"
           style="fill:none;fill-opacity:1;stroke:#0000ff;stroke-linecap:round;stroke-opacity:1"
           id="path2476" />
        <path
           d="M 88.818898,1105.1339 H 70.677165"
           style="fill:none;fill-opacity:1;stroke:#0000ff;stroke-linecap:round;stroke-opacity:1"
           id="path2478" />
        <path
           d="m 70.677165,1105.1339 a 6.047244,6.047244 0 0 0 -6.047244,6.0472"
           style="fill:none;fill-opacity:1;stroke:#0000ff;stroke-linecap:round;stroke-opacity:1"
           id="path2480" />
        <path
           d="m 64.629921,1111.1811 v 0"
           style="fill:none;fill-opacity:1;stroke:#0000ff;stroke-linecap:round;stroke-opacity:1"
           id="path2482" />
        <path
           d="m 94.488189,1054.4882 a 11.338583,11.338583 0 1 0 -22.677165,0 11.338583,11.338583 0 1 0 22.677165,0 z"
           style="fill:none;fill-opacity:1;stroke:#0000ff;stroke-linecap:round;stroke-opacity:1"
           id="path2484" />
        <path
           d="m 41.574803,1054.4882 a 11.338583,11.338583 0 1 0 -22.677165,0 11.338583,11.338583 0 1 0 22.677165,0 z"
           style="fill:none;fill-opacity:1;stroke:#0000ff;stroke-linecap:round;stroke-opacity:1"
           id="path2486" />
        <path
           d="m 41.574803,978.89764 a 11.338583,11.338583 0 1 0 -22.677165,0 11.338583,11.338583 0 1 0 22.677165,0 z"
           style="fill:none;fill-opacity:1;stroke:#0000ff;stroke-linecap:round;stroke-opacity:1"
           id="path2488" />
        <path
           d="m 92.598425,978.89764 a 9.448819,9.448819 0 1 0 -18.897638,0 9.448819,9.448819 0 1 0 18.897638,0 z"
           style="fill:none;fill-opacity:1;stroke:#0000ff;stroke-linecap:round;stroke-opacity:1"
           id="path2490" />
        <path
           d="m 34.393701,1111.1811 a 6.047244,6.047244 0 1 0 -12.094488,0 6.047244,6.047244 0 1 0 12.094488,0 z"
           style="fill:none;fill-opacity:1;stroke:#0000ff;stroke-linecap:round;stroke-opacity:1"
           id="path2492" />
        <path
           d="m 34.393701,648.18898 a 6.047244,6.047244 0 1 0 -12.094488,0 6.047244,6.047244 0 1 0 12.094488,0 z"
           style="fill:none;fill-opacity:1;stroke:#0000ff;stroke-linecap:round;stroke-opacity:1"
           id="path2494" />
      </g>
      <g
         inkscape:label="Engraving"
         id="g2498"
         style="fill:none;fill-opacity:1;stroke:#0000ff;stroke-opacity:1" />
      <g
         inkscape:label="Reference_points"
         id="g2500"
         style="fill:none;fill-opacity:1;stroke:#0000ff;stroke-opacity:1" />
      <g
         inkscape:label="0"
         id="g2504"
         style="fill:none;fill-opacity:1;stroke:#0000ff;stroke-opacity:1" />
    </g>
    <g
       id="g2720"
       transform="matrix(0.26458333,0,0,0.26458333,37.59295,-171.09011)"
       style="stroke:#0400ff;stroke-opacity:1">
      <g
         inkscape:label="Contour"
         id="g2666"
         style="stroke:#0400ff;stroke-opacity:1">
        <path
           d="m 113.38583,704.50394 a 3.779528,3.779528 0 0 0 -3.77953,-3.77953"
           style="fill:none;stroke:#0400ff;stroke-linecap:round;stroke-opacity:1"
           id="path2610" />
        <path
           d="M 113.38583,704.50394 V 1118.7402"
           style="fill:none;stroke:#0400ff;stroke-linecap:round;stroke-opacity:1"
           id="path2612" />
        <path
           d="m 109.6063,1122.5197 a 3.779528,3.779528 0 0 0 3.77953,-3.7795"
           style="fill:none;stroke:#0400ff;stroke-linecap:round;stroke-opacity:1"
           id="path2614" />
        <path
           d="M 109.6063,1122.5197 H 3.779528"
           style="fill:none;stroke:#0400ff;stroke-linecap:round;stroke-opacity:1"
           id="path2616" />
        <path
           d="m 0,1118.7402 a 3.779528,3.779528 0 0 0 3.779528,3.7795"
           style="fill:none;stroke:#0400ff;stroke-linecap:round;stroke-opacity:1"
           id="path2618" />
        <path
           d="M 0,1118.7402 V 704.50394"
           style="fill:none;stroke:#0400ff;stroke-linecap:round;stroke-opacity:1"
           id="path2620" />
        <path
           d="M 3.779528,700.72441 A 3.779528,3.779528 0 0 0 0,704.50394"
           style="fill:none;stroke:#0400ff;stroke-linecap:round;stroke-opacity:1"
           id="path2622" />
        <path
           d="M 3.779528,700.72441 H 109.6063"
           style="fill:none;stroke:#0400ff;stroke-linecap:round;stroke-opacity:1"
           id="path2624" />
        <path
           d="m 81.259843,927.49606 a 13.228347,13.228347 0 1 0 -26.456693,0 13.228347,13.228347 0 1 0 26.456693,0 z"
           style="fill:none;stroke:#0400ff;stroke-linecap:round;stroke-opacity:1"
           id="path2626" />
        <path
           d="m 81.259843,783.49606 a 13.228347,13.228347 0 1 0 -26.456693,0 13.228347,13.228347 0 1 0 26.456693,0 z"
           style="fill:none;stroke:#0400ff;stroke-linecap:round;stroke-opacity:1"
           id="path2628" />
        <path
           d="m 41.574803,1010.6457 a 11.338583,11.338583 0 1 0 -22.677165,0 11.338583,11.338583 0 1 0 22.677165,0 z"
           style="fill:none;stroke:#0400ff;stroke-linecap:round;stroke-opacity:1"
           id="path2630" />
        <path
           d="m 92.598425,1010.6457 a 9.448819,9.448819 0 1 0 -18.897638,0 9.448819,9.448819 0 1 0 18.897638,0 z"
           style="fill:none;stroke:#0400ff;stroke-linecap:round;stroke-opacity:1"
           id="path2632" />
        <path
           d="m 12.283465,1105.1339 a 1.889764,1.889764 0 0 0 1.889763,1.8897"
           style="fill:none;stroke:#0400ff;stroke-linecap:round;stroke-opacity:1"
           id="path2634" />
        <path
           d="M 14.173228,1107.0236 H 46.299213"
           style="fill:none;stroke:#0400ff;stroke-linecap:round;stroke-opacity:1"
           id="path2636" />
        <path
           d="m 46.299213,1107.0236 a 1.889764,1.889764 0 0 0 1.889763,-1.8897"
           style="fill:none;stroke:#0400ff;stroke-linecap:round;stroke-opacity:1"
           id="path2638" />
        <path
           d="m 48.188976,1105.1339 v -37.7953"
           style="fill:none;stroke:#0400ff;stroke-linecap:round;stroke-opacity:1"
           id="path2640" />
        <path
           d="m 48.188976,1067.3386 a 1.889764,1.889764 0 0 0 -1.889763,-1.8898"
           style="fill:none;stroke:#0400ff;stroke-linecap:round;stroke-opacity:1"
           id="path2642" />
        <path
           d="M 46.299213,1065.4488 H 14.173228"
           style="fill:none;stroke:#0400ff;stroke-linecap:round;stroke-opacity:1"
           id="path2644" />
        <path
           d="m 14.173228,1065.4488 a 1.889764,1.889764 0 0 0 -1.889763,1.8898"
           style="fill:none;stroke:#0400ff;stroke-linecap:round;stroke-opacity:1"
           id="path2646" />
        <path
           d="m 12.283465,1067.3386 v 37.7953"
           style="fill:none;stroke:#0400ff;stroke-linecap:round;stroke-opacity:1"
           id="path2648" />
        <path
           d="m 65.19685,1105.1339 a 1.889764,1.889764 0 0 0 1.889764,1.8897"
           style="fill:none;stroke:#0400ff;stroke-linecap:round;stroke-opacity:1"
           id="path2650" />
        <path
           d="M 67.086614,1107.0236 H 99.212598"
           style="fill:none;stroke:#0400ff;stroke-linecap:round;stroke-opacity:1"
           id="path2652" />
        <path
           d="m 99.212598,1107.0236 a 1.889764,1.889764 0 0 0 1.889762,-1.8897"
           style="fill:none;stroke:#0400ff;stroke-linecap:round;stroke-opacity:1"
           id="path2654" />
        <path
           d="m 101.10236,1105.1339 v -37.7953"
           style="fill:none;stroke:#0400ff;stroke-linecap:round;stroke-opacity:1"
           id="path2656" />
        <path
           d="m 101.10236,1067.3386 a 1.889764,1.889764 0 0 0 -1.889762,-1.8898"
           style="fill:none;stroke:#0400ff;stroke-linecap:round;stroke-opacity:1"
           id="path2658" />
        <path
           d="M 99.212598,1065.4488 H 67.086614"
           style="fill:none;stroke:#0400ff;stroke-linecap:round;stroke-opacity:1"
           id="path2660" />
        <path
           d="m 67.086614,1065.4488 a 1.889764,1.889764 0 0 0 -1.889764,1.8898"
           style="fill:none;stroke:#0400ff;stroke-linecap:round;stroke-opacity:1"
           id="path2662" />
        <path
           d="m 65.19685,1067.3386 v 37.7953"
           style="fill:none;stroke:#0400ff;stroke-linecap:round;stroke-opacity:1"
           id="path2664" />
      </g>
      <g
         inkscape:label="Engraving"
         id="g2668"
         style="stroke:#0400ff;stroke-opacity:1" />
      <g
         inkscape:label="Reference_points"
         id="g2670"
         style="stroke:#0400ff;stroke-opacity:1" />
      <g
         inkscape:label="0"
         id="g2674"
         style="stroke:#0400ff;stroke-opacity:1" />
    </g>
    <text
       xml:space="preserve"
       style="font-style:normal;font-weight:normal;font-size:4.9389px;line-height:1.25;font-family:sans-serif;letter-spacing:0px;word-spacing:0px;fill:none;fill-opacity:1;stroke:#ff00ff;stroke-width:0.264583;stroke-linecap:round;stroke-linejoin:round;stroke-opacity:1"
       x="15.196276"
       y="26.369774"
       id="text7615"><tspan
         sodipodi:role="line"
         id="tspan7613"
         x="15.196276"
         y="26.369774"
         style="font-size:4.9389px;fill:none;stroke:#ff00ff;stroke-width:0.264583;stroke-opacity:1">ATTACK</tspan></text>
    <text
       xml:space="preserve"
       style="font-style:normal;font-weight:normal;font-size:4.9389px;line-height:1.25;font-family:sans-serif;letter-spacing:0px;word-spacing:0px;fill:none;fill-opacity:1;stroke:#ff00ff;stroke-width:0.264583;stroke-linecap:round;stroke-linejoin:round;stroke-opacity:1"
       x="16.194681"
       y="63.608353"
       id="text7615-6"><tspan
         sodipodi:role="line"
         x="16.194681"
         y="63.608353"
         style="font-size:4.9389px;fill:none;stroke:#ff00ff;stroke-width:0.264583;stroke-opacity:1"
         id="tspan8486">DECAY</tspan></text>
    <text
       xml:space="preserve"
       style="font-style:normal;font-weight:normal;font-size:4.9389px;line-height:1.25;font-family:sans-serif;letter-spacing:0px;word-spacing:0px;fill:none;fill-opacity:1;stroke:#ff00ff;stroke-width:0.264583;stroke-linecap:round;stroke-linejoin:round;stroke-opacity:1"
       x="7.2114196"
       y="125.02109"
       id="text7615-6-9"><tspan
         sodipodi:role="line"
         x="7.2114196"
         y="125.02109"
         style="font-size:4.9389px;fill:none;stroke:#ff00ff;stroke-width:0.264583;stroke-opacity:1"
         id="tspan8486-2">GATE</tspan></text>
    <text
       xml:space="preserve"
       style="font-style:normal;font-weight:normal;font-size:4.9389px;line-height:1.25;font-family:sans-serif;letter-spacing:0px;word-spacing:0px;fill:none;fill-opacity:1;stroke:#ff00ff;stroke-width:0.264583;stroke-linecap:round;stroke-linejoin:round;stroke-opacity:1"
       x="23.193409"
       y="125.06686"
       id="text7615-6-9-6"><tspan
         sodipodi:role="line"
         x="23.193409"
         y="125.06686"
         style="font-size:4.9389px;fill:none;stroke:#ff00ff;stroke-width:0.264583;stroke-opacity:1"
         id="tspan8486-2-6">OUT</tspan></text>
    <text
       xml:space="preserve"
       style="font-style:normal;font-weight:normal;font-size:4.9389px;line-height:1.25;font-family:sans-serif;letter-spacing:0px;word-spacing:0px;fill:none;fill-opacity:1;stroke:#ff00ff;stroke-width:0.264583;stroke-linecap:round;stroke-linejoin:round;stroke-opacity:1"
       x="8.5921383"
       y="107.41901"
       id="text7615-6-9-4"><tspan
         sodipodi:role="line"
         x="8.5921383"
         y="107.41901"
         style="font-size:4.9389px;fill:none;stroke:#ff00ff;stroke-width:0.264583;stroke-opacity:1"
         id="tspan8486-2-9">A / R</tspan></text>
    <text
       xml:space="preserve"
       style="font-style:normal;font-weight:normal;font-size:4.9389px;line-height:1.25;font-family:sans-serif;letter-spacing:0px;word-spacing:0px;fill:none;fill-opacity:1;stroke:#ff00ff;stroke-width:0.264583;stroke-linecap:round;stroke-linejoin:round;stroke-opacity:1"
       x="8.5386677"
       y="87.620377"
       id="text7615-6-9-4-5"><tspan
         sodipodi:role="line"
         x="8.5386677"
         y="87.620377"
         style="font-size:4.9389px;fill:none;stroke:#ff00ff;stroke-width:0.264583;stroke-opacity:1"
         id="tspan8486-2-9-0">A / D</tspan></text>
  </g>
</svg>
