<?xml version="1.0" encoding="UTF-8" standalone="no"?>
<svg
   xmlns:dc="http://purl.org/dc/elements/1.1/"
   xmlns:cc="http://creativecommons.org/ns#"
   xmlns:rdf="http://www.w3.org/1999/02/22-rdf-syntax-ns#"
   xmlns:svg="http://www.w3.org/2000/svg"
   xmlns="http://www.w3.org/2000/svg"
   xmlns:sodipodi="http://sodipodi.sourceforge.net/DTD/sodipodi-0.dtd"
   xmlns:inkscape="http://www.inkscape.org/namespaces/inkscape"
   width="100mm"
   height="135mm"
   viewBox="0 0 100 135"
   version="1.1"
   id="svg23311"
   inkscape:version="1.0.2 (1.0.2+r75+1)"
   sodipodi:docname="front_panel.svg">
  <defs
     id="defs23305" />
  <sodipodi:namedview
     id="base"
     pagecolor="#ffffff"
     bordercolor="#666666"
     borderopacity="1.0"
     inkscape:pageopacity="0.0"
     inkscape:pageshadow="2"
     inkscape:zoom="0.98994949"
     inkscape:cx="236.50521"
     inkscape:cy="321.14178"
     inkscape:document-units="mm"
     inkscape:current-layer="layer1"
     inkscape:document-rotation="0"
     showgrid="false"
     inkscape:window-width="1680"
     inkscape:window-height="995"
     inkscape:window-x="0"
     inkscape:window-y="27"
     inkscape:window-maximized="1" />
  <metadata
     id="metadata23308">
    <rdf:RDF>
      <cc:Work
         rdf:about="">
        <dc:format>image/svg+xml</dc:format>
        <dc:type
           rdf:resource="http://purl.org/dc/dcmitype/StillImage" />
        <dc:title></dc:title>
      </cc:Work>
    </rdf:RDF>
  </metadata>
  <g
     inkscape:label="Layer 1"
     inkscape:groupmode="layer"
     id="layer1">
    <g
       id="g11989"
       transform="matrix(0.26458333,0,0,0.26458333,2.9739598,-166.23919)"
       style="stroke:#0000ff;stroke-linecap:round;stroke-linejoin:round;stroke-opacity:1">
      <g
         inkscape:label="Contour"
         id="g11913"
         style="stroke:#0000ff;stroke-opacity:1">
        <path
           d="m 151.1811,641.00787 a 3.779528,3.779528 0 0 0 -3.77953,-3.77952"
           style="fill:none;stroke:#0000ff;stroke-linecap:round;stroke-opacity:1"
           id="path11813" />
        <path
           d="M 151.1811,641.00787 V 1118.7402"
           style="fill:none;stroke:#0000ff;stroke-linecap:round;stroke-opacity:1"
           id="path11815" />
        <path
           d="m 147.40157,1122.5197 a 3.779528,3.779528 0 0 0 3.77953,-3.7795"
           style="fill:none;stroke:#0000ff;stroke-linecap:round;stroke-opacity:1"
           id="path11817" />
        <path
           d="M 147.40157,1122.5197 H 3.779528"
           style="fill:none;stroke:#0000ff;stroke-linecap:round;stroke-opacity:1"
           id="path11819" />
        <path
           d="m 0,1118.7402 a 3.779528,3.779528 0 0 0 3.779528,3.7795"
           style="fill:none;stroke:#0000ff;stroke-linecap:round;stroke-opacity:1"
           id="path11821" />
        <path
           d="M 0,1118.7402 V 641.00787"
           style="fill:none;stroke:#0000ff;stroke-linecap:round;stroke-opacity:1"
           id="path11823" />
        <path
           d="M 3.779528,637.22835 A 3.779528,3.779528 0 0 0 0,641.00787"
           style="fill:none;stroke:#0000ff;stroke-linecap:round;stroke-opacity:1"
           id="path11825" />
        <path
           d="M 3.779528,637.22835 H 147.40157"
           style="fill:none;stroke:#0000ff;stroke-linecap:round;stroke-opacity:1"
           id="path11827" />
        <path
           d="m 88.818898,725.66929 a 13.228347,13.228347 0 1 0 -26.456693,0 13.228347,13.228347 0 1 0 26.456693,0 z"
           style="fill:none;stroke:#0000ff;stroke-linecap:round;stroke-opacity:1"
           id="path11829" />
        <path
           d="m 124.72441,1065.8268 a 11.338585,11.338585 0 1 0 -22.67717,0 11.338585,11.338585 0 1 0 22.67717,0 z"
           style="fill:none;stroke:#0000ff;stroke-linecap:round;stroke-opacity:1"
           id="path11831" />
        <path
           d="m 98.267717,647.92819 a 6.047244,6.047244 0 0 0 6.047243,6.04724"
           style="fill:none;stroke:#0000ff;stroke-linecap:round;stroke-opacity:1"
           id="path11833" />
        <path
           d="m 104.31496,653.97543 h 18.14173"
           style="fill:none;stroke:#0000ff;stroke-linecap:round;stroke-opacity:1"
           id="path11835" />
        <path
           d="m 122.45669,653.97543 a 6.047244,6.047244 0 0 0 6.04725,-6.04724"
           style="fill:none;stroke:#0000ff;stroke-linecap:round;stroke-opacity:1"
           id="path11837" />
        <path
           d="m 128.50394,647.92819 v 0"
           style="fill:none;stroke:#0000ff;stroke-linecap:round;stroke-opacity:1"
           id="path11839" />
        <path
           d="m 128.50394,647.92819 a 6.047244,6.047244 0 0 0 -6.04725,-6.04725"
           style="fill:none;stroke:#0000ff;stroke-linecap:round;stroke-opacity:1"
           id="path11841" />
        <path
           d="M 122.45669,641.88094 H 104.31496"
           style="fill:none;stroke:#0000ff;stroke-linecap:round;stroke-opacity:1"
           id="path11843" />
        <path
           d="m 104.31496,641.88094 a 6.047244,6.047244 0 0 0 -6.047243,6.04725"
           style="fill:none;stroke:#0000ff;stroke-linecap:round;stroke-opacity:1"
           id="path11845" />
        <path
           d="m 98.267717,647.92819 v 0"
           style="fill:none;stroke:#0000ff;stroke-linecap:round;stroke-opacity:1"
           id="path11847" />
        <path
           d="m 49.133858,1065.8268 a 11.338583,11.338583 0 1 0 -22.677165,0 11.338583,11.338583 0 1 0 22.677165,0 z"
           style="fill:none;stroke:#0000ff;stroke-linecap:round;stroke-opacity:1"
           id="path11849" />
        <path
           d="m 22.677165,648.18898 a 6.047244,6.047244 0 0 0 6.047244,6.04724"
           style="fill:none;stroke:#0000ff;stroke-linecap:round;stroke-opacity:1"
           id="path11851" />
        <path
           d="M 28.724409,654.23622 H 46.866142"
           style="fill:none;stroke:#0000ff;stroke-linecap:round;stroke-opacity:1"
           id="path11853" />
        <path
           d="m 46.866142,654.23622 a 6.047244,6.047244 0 0 0 6.047244,-6.04724"
           style="fill:none;stroke:#0000ff;stroke-linecap:round;stroke-opacity:1"
           id="path11855" />
        <path
           d="m 52.913386,648.18898 v 0"
           style="fill:none;stroke:#0000ff;stroke-linecap:round;stroke-opacity:1"
           id="path11857" />
        <path
           d="m 52.913386,648.18898 a 6.047244,6.047244 0 0 0 -6.047244,-6.04725"
           style="fill:none;stroke:#0000ff;stroke-linecap:round;stroke-opacity:1"
           id="path11859" />
        <path
           d="M 46.866142,642.14173 H 28.724409"
           style="fill:none;stroke:#0000ff;stroke-linecap:round;stroke-opacity:1"
           id="path11861" />
        <path
           d="m 28.724409,642.14173 a 6.047244,6.047244 0 0 0 -6.047244,6.04725"
           style="fill:none;stroke:#0000ff;stroke-linecap:round;stroke-opacity:1"
           id="path11863" />
        <path
           d="m 22.677165,648.18898 v 0"
           style="fill:none;stroke:#0000ff;stroke-linecap:round;stroke-opacity:1"
           id="path11865" />
        <path
           d="m 102.76157,1111.1811 a 6.047244,6.047244 0 0 0 6.04725,6.0472"
           style="fill:none;stroke:#0000ff;stroke-linecap:round;stroke-opacity:1"
           id="path11867" />
        <path
           d="m 108.80882,1117.2283 h 18.14173"
           style="fill:none;stroke:#0000ff;stroke-linecap:round;stroke-opacity:1"
           id="path11869" />
        <path
           d="m 126.95055,1117.2283 a 6.047244,6.047244 0 0 0 6.04724,-6.0472"
           style="fill:none;stroke:#0000ff;stroke-linecap:round;stroke-opacity:1"
           id="path11871" />
        <path
           d="m 132.99779,1111.1811 v 0"
           style="fill:none;stroke:#0000ff;stroke-linecap:round;stroke-opacity:1"
           id="path11873" />
        <path
           d="m 132.99779,1111.1811 a 6.047244,6.047244 0 0 0 -6.04724,-6.0472"
           style="fill:none;stroke:#0000ff;stroke-linecap:round;stroke-opacity:1"
           id="path11875" />
        <path
           d="M 126.95055,1105.1339 H 108.80882"
           style="fill:none;stroke:#0000ff;stroke-linecap:round;stroke-opacity:1"
           id="path11877" />
        <path
           d="m 108.80882,1105.1339 a 6.047244,6.047244 0 0 0 -6.04725,6.0472"
           style="fill:none;stroke:#0000ff;stroke-linecap:round;stroke-opacity:1"
           id="path11879" />
        <path
           d="m 102.76157,1111.1811 v 0"
           style="fill:none;stroke:#0000ff;stroke-linecap:round;stroke-opacity:1"
           id="path11881" />
        <path
           d="m 27.171024,1111.1811 a 6.047244,6.047244 0 0 0 6.047244,6.0472"
           style="fill:none;stroke:#0000ff;stroke-linecap:round;stroke-opacity:1"
           id="path11883" />
        <path
           d="M 33.218268,1117.2283 H 51.36"
           style="fill:none;stroke:#0000ff;stroke-linecap:round;stroke-opacity:1"
           id="path11885" />
        <path
           d="m 51.36,1117.2283 a 6.047244,6.047244 0 0 0 6.047244,-6.0472"
           style="fill:none;stroke:#0000ff;stroke-linecap:round;stroke-opacity:1"
           id="path11887" />
        <path
           d="m 57.407244,1111.1811 v 0"
           style="fill:none;stroke:#0000ff;stroke-linecap:round;stroke-opacity:1"
           id="path11889" />
        <path
           d="M 57.407244,1111.1811 A 6.047244,6.047244 0 0 0 51.36,1105.1339"
           style="fill:none;stroke:#0000ff;stroke-linecap:round;stroke-opacity:1"
           id="path11891" />
        <path
           d="M 51.36,1105.1339 H 33.218268"
           style="fill:none;stroke:#0000ff;stroke-linecap:round;stroke-opacity:1"
           id="path11893" />
        <path
           d="m 33.218268,1105.1339 a 6.047244,6.047244 0 0 0 -6.047244,6.0472"
           style="fill:none;stroke:#0000ff;stroke-linecap:round;stroke-opacity:1"
           id="path11895" />
        <path
           d="m 27.171024,1111.1811 v 0"
           style="fill:none;stroke:#0000ff;stroke-linecap:round;stroke-opacity:1"
           id="path11897" />
        <path
           d="m 124.72441,1009.1339 a 11.338585,11.338585 0 1 0 -22.67717,0 11.338585,11.338585 0 1 0 22.67717,0 z"
           style="fill:none;stroke:#0000ff;stroke-linecap:round;stroke-opacity:1"
           id="path11899" />
        <path
           d="m 49.133858,1009.1339 a 11.338583,11.338583 0 1 0 -22.677165,0 11.338583,11.338583 0 1 0 22.677165,0 z"
           style="fill:none;stroke:#0000ff;stroke-linecap:round;stroke-opacity:1"
           id="path11901" />
        <path
           d="m 124.72441,952.44095 a 11.338585,11.338585 0 1 0 -22.67717,0 11.338585,11.338585 0 1 0 22.67717,0 z"
           style="fill:none;stroke:#0000ff;stroke-linecap:round;stroke-opacity:1"
           id="path11903" />
        <path
           d="m 49.133858,952.44095 a 11.338583,11.338583 0 1 0 -22.677165,0 11.338583,11.338583 0 1 0 22.677165,0 z"
           style="fill:none;stroke:#0000ff;stroke-linecap:round;stroke-opacity:1"
           id="path11905" />
        <path
           d="m 124.72441,895.74803 a 11.338585,11.338585 0 1 0 -22.67717,0 11.338585,11.338585 0 1 0 22.67717,0 z"
           style="fill:none;stroke:#0000ff;stroke-linecap:round;stroke-opacity:1"
           id="path11907" />
        <path
           d="m 49.133858,895.74803 a 11.338583,11.338583 0 1 0 -22.677165,0 11.338583,11.338583 0 1 0 22.677165,0 z"
           style="fill:none;stroke:#0000ff;stroke-linecap:round;stroke-opacity:1"
           id="path11909" />
        <path
           d="m 88.818898,820.15748 a 13.228347,13.228347 0 1 0 -26.456693,0 13.228347,13.228347 0 1 0 26.456693,0 z"
           style="fill:none;stroke:#0000ff;stroke-linecap:round;stroke-opacity:1"
           id="path11911" />
      </g>
      <g
         inkscape:label="Engraving"
         id="g11915"
         style="stroke:#0000ff;stroke-opacity:1" />
      <g
         inkscape:label="Reference_points"
         id="g11917"
         style="stroke:#0000ff;stroke-opacity:1" />
      <g
         inkscape:label="0"
         id="g11921"
         style="stroke:#0000ff;stroke-opacity:1" />
    </g>
    <g
       id="g12215"
       transform="matrix(0.26458333,0,0,0.26458333,43.89861,-174.06899)"
       style="stroke:#0000ff;stroke-linecap:round;stroke-linejoin:round;stroke-opacity:1">
      <g
         inkscape:label="Contour"
         id="g12143"
         style="stroke:#0000ff;stroke-opacity:1">
        <g
           id="g21474"
           transform="translate(2.3341388,3.5032197)"
           style="stroke:#0000ff;stroke-opacity:1">
          <g
             inkscape:label="Contour"
             id="g21402"
             style="stroke:#0000ff;stroke-opacity:1">
            <path
               d="m 151.1811,704.50394 a 3.779528,3.779528 0 0 0 -3.77953,-3.77953"
               style="fill:none;stroke:#0000ff;stroke-linecap:round;stroke-opacity:1"
               id="path21310" />
            <path
               d="M 151.1811,704.50394 V 1118.7402"
               style="fill:none;stroke:#0000ff;stroke-linecap:round;stroke-opacity:1"
               id="path21312" />
            <path
               d="m 147.40157,1122.5197 a 3.779528,3.779528 0 0 0 3.77953,-3.7795"
               style="fill:none;stroke:#0000ff;stroke-linecap:round;stroke-opacity:1"
               id="path21314" />
            <path
               d="M 147.40157,1122.5197 H 3.779528"
               style="fill:none;stroke:#0000ff;stroke-linecap:round;stroke-opacity:1"
               id="path21316" />
            <path
               d="m 0,1118.7402 a 3.779528,3.779528 0 0 0 3.779528,3.7795"
               style="fill:none;stroke:#0000ff;stroke-linecap:round;stroke-opacity:1"
               id="path21318" />
            <path
               d="M 0,1118.7402 V 704.50394"
               style="fill:none;stroke:#0000ff;stroke-linecap:round;stroke-opacity:1"
               id="path21320" />
            <path
               d="M 3.779528,700.72441 A 3.779528,3.779528 0 0 0 0,704.50394"
               style="fill:none;stroke:#0000ff;stroke-linecap:round;stroke-opacity:1"
               id="path21322" />
            <path
               d="M 3.779528,700.72441 H 147.40157"
               style="fill:none;stroke:#0000ff;stroke-linecap:round;stroke-opacity:1"
               id="path21324" />
            <path
               d="m 88.818898,757.41732 a 13.228347,13.228347 0 1 0 -26.456693,0 13.228347,13.228347 0 1 0 26.456693,0 z"
               style="fill:none;stroke:#0000ff;stroke-linecap:round;stroke-opacity:1"
               id="path21326" />
            <path
               d="m 124.72441,984.18898 a 11.338585,11.338585 0 1 0 -22.67717,0 11.338585,11.338585 0 1 0 22.67717,0 z"
               style="fill:none;stroke:#0000ff;stroke-linecap:round;stroke-opacity:1"
               id="path21328" />
            <path
               d="m 49.133858,984.18898 a 11.338583,11.338583 0 1 0 -22.677165,0 11.338583,11.338583 0 1 0 22.677165,0 z"
               style="fill:none;stroke:#0000ff;stroke-linecap:round;stroke-opacity:1"
               id="path21330" />
            <path
               d="m 124.72441,927.49606 a 11.338585,11.338585 0 1 0 -22.67717,0 11.338585,11.338585 0 1 0 22.67717,0 z"
               style="fill:none;stroke:#0000ff;stroke-linecap:round;stroke-opacity:1"
               id="path21332" />
            <path
               d="m 49.133858,927.49606 a 11.338583,11.338583 0 1 0 -22.677165,0 11.338583,11.338583 0 1 0 22.677165,0 z"
               style="fill:none;stroke:#0000ff;stroke-linecap:round;stroke-opacity:1"
               id="path21334" />
            <path
               d="m 88.818898,851.90551 a 13.228347,13.228347 0 1 0 -26.456693,0 13.228347,13.228347 0 1 0 26.456693,0 z"
               style="fill:none;stroke:#0000ff;stroke-linecap:round;stroke-opacity:1"
               id="path21336" />
            <path
               d="m 92.598425,1113.6378 a 1.889764,1.889764 0 0 0 1.889764,1.8898"
               style="fill:none;stroke:#0000ff;stroke-linecap:round;stroke-opacity:1"
               id="path21338" />
            <path
               d="M 94.488189,1115.5276 H 132.28346"
               style="fill:none;stroke:#0000ff;stroke-linecap:round;stroke-opacity:1"
               id="path21340" />
            <path
               d="m 132.28346,1115.5276 a 1.889764,1.889764 0 0 0 1.88977,-1.8898"
               style="fill:none;stroke:#0000ff;stroke-linecap:round;stroke-opacity:1"
               id="path21342" />
            <path
               d="m 134.17323,1113.6378 v -32.126"
               style="fill:none;stroke:#0000ff;stroke-linecap:round;stroke-opacity:1"
               id="path21344" />
            <path
               d="m 134.17323,1081.5118 a 1.889764,1.889764 0 0 0 -1.88977,-1.8898"
               style="fill:none;stroke:#0000ff;stroke-linecap:round;stroke-opacity:1"
               id="path21346" />
            <path
               d="M 132.28346,1079.622 H 94.488189"
               style="fill:none;stroke:#0000ff;stroke-linecap:round;stroke-opacity:1"
               id="path21348" />
            <path
               d="m 94.488189,1079.622 a 1.889764,1.889764 0 0 0 -1.889764,1.8898"
               style="fill:none;stroke:#0000ff;stroke-linecap:round;stroke-opacity:1"
               id="path21350" />
            <path
               d="m 92.598425,1081.5118 v 32.126"
               style="fill:none;stroke:#0000ff;stroke-linecap:round;stroke-opacity:1"
               id="path21352" />
            <path
               d="m 17.007874,1113.6378 a 1.889764,1.889764 0 0 0 1.889764,1.8898"
               style="fill:none;stroke:#0000ff;stroke-linecap:round;stroke-opacity:1"
               id="path21354" />
            <path
               d="M 18.897638,1115.5276 H 56.692913"
               style="fill:none;stroke:#0000ff;stroke-linecap:round;stroke-opacity:1"
               id="path21356" />
            <path
               d="m 56.692913,1115.5276 a 1.889764,1.889764 0 0 0 1.889764,-1.8898"
               style="fill:none;stroke:#0000ff;stroke-linecap:round;stroke-opacity:1"
               id="path21358" />
            <path
               d="m 58.582677,1113.6378 v -32.126"
               style="fill:none;stroke:#0000ff;stroke-linecap:round;stroke-opacity:1"
               id="path21360" />
            <path
               d="m 58.582677,1081.5118 a 1.889764,1.889764 0 0 0 -1.889764,-1.8898"
               style="fill:none;stroke:#0000ff;stroke-linecap:round;stroke-opacity:1"
               id="path21362" />
            <path
               d="M 56.692913,1079.622 H 18.897638"
               style="fill:none;stroke:#0000ff;stroke-linecap:round;stroke-opacity:1"
               id="path21364" />
            <path
               d="m 18.897638,1079.622 a 1.889764,1.889764 0 0 0 -1.889764,1.8898"
               style="fill:none;stroke:#0000ff;stroke-linecap:round;stroke-opacity:1"
               id="path21366" />
            <path
               d="m 17.007874,1081.5118 v 32.126"
               style="fill:none;stroke:#0000ff;stroke-linecap:round;stroke-opacity:1"
               id="path21368" />
            <path
               d="m 92.598425,1056.9449 a 1.889764,1.889764 0 0 0 1.889764,1.8897"
               style="fill:none;stroke:#0000ff;stroke-linecap:round;stroke-opacity:1"
               id="path21370" />
            <path
               d="M 94.488189,1058.8346 H 132.28346"
               style="fill:none;stroke:#0000ff;stroke-linecap:round;stroke-opacity:1"
               id="path21372" />
            <path
               d="m 132.28346,1058.8346 a 1.889764,1.889764 0 0 0 1.88977,-1.8897"
               style="fill:none;stroke:#0000ff;stroke-linecap:round;stroke-opacity:1"
               id="path21374" />
            <path
               d="m 134.17323,1056.9449 v -32.126"
               style="fill:none;stroke:#0000ff;stroke-linecap:round;stroke-opacity:1"
               id="path21376" />
            <path
               d="m 134.17323,1024.8189 a 1.889764,1.889764 0 0 0 -1.88977,-1.8898"
               style="fill:none;stroke:#0000ff;stroke-linecap:round;stroke-opacity:1"
               id="path21378" />
            <path
               d="M 132.28346,1022.9291 H 94.488189"
               style="fill:none;stroke:#0000ff;stroke-linecap:round;stroke-opacity:1"
               id="path21380" />
            <path
               d="m 94.488189,1022.9291 a 1.889764,1.889764 0 0 0 -1.889764,1.8898"
               style="fill:none;stroke:#0000ff;stroke-linecap:round;stroke-opacity:1"
               id="path21382" />
            <path
               d="m 92.598425,1024.8189 v 32.126"
               style="fill:none;stroke:#0000ff;stroke-linecap:round;stroke-opacity:1"
               id="path21384" />
            <path
               d="m 17.007874,1056.9449 a 1.889764,1.889764 0 0 0 1.889764,1.8897"
               style="fill:none;stroke:#0000ff;stroke-linecap:round;stroke-opacity:1"
               id="path21386" />
            <path
               d="M 18.897638,1058.8346 H 56.692913"
               style="fill:none;stroke:#0000ff;stroke-linecap:round;stroke-opacity:1"
               id="path21388" />
            <path
               d="m 56.692913,1058.8346 a 1.889764,1.889764 0 0 0 1.889764,-1.8897"
               style="fill:none;stroke:#0000ff;stroke-linecap:round;stroke-opacity:1"
               id="path21390" />
            <path
               d="m 58.582677,1056.9449 v -32.126"
               style="fill:none;stroke:#0000ff;stroke-linecap:round;stroke-opacity:1"
               id="path21392" />
            <path
               d="m 58.582677,1024.8189 a 1.889764,1.889764 0 0 0 -1.889764,-1.8898"
               style="fill:none;stroke:#0000ff;stroke-linecap:round;stroke-opacity:1"
               id="path21394" />
            <path
               d="M 56.692913,1022.9291 H 18.897638"
               style="fill:none;stroke:#0000ff;stroke-linecap:round;stroke-opacity:1"
               id="path21396" />
            <path
               d="m 18.897638,1022.9291 a 1.889764,1.889764 0 0 0 -1.889764,1.8898"
               style="fill:none;stroke:#0000ff;stroke-linecap:round;stroke-opacity:1"
               id="path21398" />
            <path
               d="m 17.007874,1024.8189 v 32.126"
               style="fill:none;stroke:#0000ff;stroke-linecap:round;stroke-opacity:1"
               id="path21400" />
          </g>
          <g
             inkscape:label="Engraving"
             id="g21404"
             style="stroke:#0000ff;stroke-opacity:1" />
          <g
             inkscape:label="Reference_points"
             id="g21406"
             style="stroke:#0000ff;stroke-opacity:1" />
          <g
             inkscape:label="0"
             id="g21410"
             style="stroke:#0000ff;stroke-opacity:1" />
        </g>
      </g>
      <g
         inkscape:label="Engraving"
         id="g12145"
         style="stroke:#0000ff;stroke-opacity:1" />
      <g
         inkscape:label="Reference_points"
         id="g12147"
         style="stroke:#0000ff;stroke-opacity:1" />
      <g
         inkscape:label="0"
         id="g12151"
         style="stroke:#0000ff;stroke-opacity:1" />
    </g>
    <text
       xml:space="preserve"
       style="font-style:normal;font-weight:normal;font-size:10.5833px;line-height:0.5;font-family:sans-serif;text-align:center;letter-spacing:0px;word-spacing:0px;text-anchor:middle;fill:#000000;fill-opacity:1;stroke:#ff00ff;stroke-width:0.26;stroke-linecap:round;stroke-linejoin:round;stroke-miterlimit:4;stroke-dasharray:none;stroke-opacity:1"
       x="23.134249"
       y="69.250099"
       id="text2460-9-4-7-7-3"><tspan
         sodipodi:role="line"
         x="23.134249"
         y="69.250099"
         style="font-size:4.23333px;text-align:center;text-anchor:middle;fill:none;fill-opacity:1;stroke:#ff00ff;stroke-width:0.26;stroke-miterlimit:4;stroke-dasharray:none;stroke-opacity:1"
         id="tspan12277">SOFT</tspan><tspan
         sodipodi:role="line"
         x="23.134249"
         y="74.60376"
         style="font-size:4.23333px;text-align:center;text-anchor:middle;fill:none;fill-opacity:1;stroke:#ff00ff;stroke-width:0.26;stroke-miterlimit:4;stroke-dasharray:none;stroke-opacity:1"
         id="tspan12281">CLIP</tspan></text>
    <text
       xml:space="preserve"
       style="font-style:normal;font-weight:normal;font-size:10.5833px;line-height:0.5;font-family:sans-serif;text-align:center;letter-spacing:0px;word-spacing:0px;text-anchor:middle;fill:#000000;fill-opacity:1;stroke:none;stroke-width:0.26;stroke-linecap:round;stroke-linejoin:round;stroke-miterlimit:4;stroke-dasharray:none;stroke-opacity:1"
       x="23.413668"
       y="84.464905"
       id="text2460-9-4-7-7-3-4"><tspan
         sodipodi:role="line"
         x="23.413668"
         y="84.464905"
         style="font-size:4.23333px;text-align:center;text-anchor:middle;fill:none;fill-opacity:1;stroke:#ff00ff;stroke-width:0.26;stroke-miterlimit:4;stroke-dasharray:none;stroke-opacity:1"
         id="tspan12277-8">HARD</tspan><tspan
         sodipodi:role="line"
         x="23.413668"
         y="89.818565"
         style="font-size:4.23333px;text-align:center;text-anchor:middle;fill:none;fill-opacity:1;stroke:#ff00ff;stroke-width:0.26;stroke-miterlimit:4;stroke-dasharray:none;stroke-opacity:1"
         id="tspan12281-1">CLIP</tspan></text>
    <text
       xml:space="preserve"
       style="font-style:normal;font-weight:normal;font-size:10.5833px;line-height:0.5;font-family:sans-serif;text-align:center;letter-spacing:0px;word-spacing:0px;text-anchor:middle;fill:#000000;fill-opacity:1;stroke:none;stroke-width:0.26;stroke-linecap:round;stroke-linejoin:round;stroke-miterlimit:4;stroke-dasharray:none;stroke-opacity:1"
       x="22.849581"
       y="102.50605"
       id="text2460-9-4-7-7-3-4-2"><tspan
         sodipodi:role="line"
         x="22.849581"
         y="102.50605"
         style="font-size:4.23333px;text-align:center;text-anchor:middle;fill:none;fill-opacity:1;stroke:#ff00ff;stroke-width:0.26;stroke-miterlimit:4;stroke-dasharray:none;stroke-opacity:1"
         id="tspan12281-1-3">IN</tspan></text>
    <text
       xml:space="preserve"
       style="font-style:normal;font-weight:normal;font-size:10.5833px;line-height:0.5;font-family:sans-serif;text-align:center;letter-spacing:0px;word-spacing:0px;text-anchor:middle;fill:#000000;fill-opacity:1;stroke:none;stroke-width:0.26;stroke-linecap:round;stroke-linejoin:round;stroke-miterlimit:4;stroke-dasharray:none;stroke-opacity:1"
       x="23.034975"
       y="117.33311"
       id="text2460-9-4-7-7-3-4-2-9"><tspan
         sodipodi:role="line"
         x="23.034975"
         y="117.33311"
         style="font-size:4.23333px;text-align:center;text-anchor:middle;fill:none;fill-opacity:1;stroke:#ff00ff;stroke-width:0.26;stroke-miterlimit:4;stroke-dasharray:none;stroke-opacity:1"
         id="tspan12281-1-3-0">OUT</tspan></text>
    <path
       style="fill:none;stroke:#ff00ff;stroke-width:0.264583px;stroke-linecap:butt;stroke-linejoin:miter;stroke-opacity:1"
       d="m 19.51771,29.709811 -13.6189402,14.222904 0.0631,72.372825"
       id="path12367"
       sodipodi:nodetypes="ccc" />
    <path
       style="fill:none;stroke:#ff00ff;stroke-width:0.264583px;stroke-linecap:butt;stroke-linejoin:miter;stroke-opacity:1"
       d="M 26.86486,55.477212 40.48381,69.700114 40.29494,116.08619"
       id="path12367-8"
       sodipodi:nodetypes="ccc" />
    <text
       xml:space="preserve"
       style="font-style:normal;font-weight:normal;font-size:10.5833px;line-height:1.25;font-family:sans-serif;letter-spacing:0px;word-spacing:0px;fill:#000000;fill-opacity:1;stroke:none;stroke-width:0.26;stroke-linecap:round;stroke-linejoin:round;stroke-miterlimit:4;stroke-dasharray:none;stroke-opacity:1"
       x="-57.144016"
       y="41.015762"
       id="text2460-2-5-7-8"
       transform="rotate(-90)"><tspan
         sodipodi:role="line"
         id="tspan2458-7-9-7-5"
         x="-57.144016"
         y="41.015762"
         style="font-size:6.35px;fill:none;fill-opacity:1;stroke:#ff00ff;stroke-width:0.26;stroke-miterlimit:4;stroke-dasharray:none;stroke-opacity:1">DISTORTION</tspan></text>
    <text
       xml:space="preserve"
       style="font-style:normal;font-weight:normal;font-size:10.5833px;line-height:0.5;font-family:sans-serif;text-align:center;letter-spacing:0px;word-spacing:0px;text-anchor:middle;fill:#000000;fill-opacity:1;stroke:#ff00ff;stroke-width:0.26;stroke-linecap:round;stroke-linejoin:round;stroke-miterlimit:4;stroke-dasharray:none;stroke-opacity:1"
       x="23.904909"
       y="13.016239"
       id="text2460-9-4-7-7-3-0"><tspan
         sodipodi:role="line"
         x="23.904909"
         y="13.016239"
         style="font-size:4.23333px;text-align:center;text-anchor:middle;fill:none;fill-opacity:1;stroke:#ff00ff;stroke-width:0.26;stroke-miterlimit:4;stroke-dasharray:none;stroke-opacity:1"
         id="tspan12281-6">GAIN</tspan></text>
  </g>
</svg>
