<?xml version="1.0" encoding="UTF-8" standalone="no"?>
<svg
   xmlns:fpd="http://www.schaeffer-ag.de"
   xmlns:dc="http://purl.org/dc/elements/1.1/"
   xmlns:cc="http://creativecommons.org/ns#"
   xmlns:rdf="http://www.w3.org/1999/02/22-rdf-syntax-ns#"
   xmlns:svg="http://www.w3.org/2000/svg"
   xmlns="http://www.w3.org/2000/svg"
   xmlns:sodipodi="http://sodipodi.sourceforge.net/DTD/sodipodi-0.dtd"
   xmlns:inkscape="http://www.inkscape.org/namespaces/inkscape"
   width="120mm"
   height="135mm"
   viewBox="0 0 120 135"
   version="1.1"
   id="svg9099"
   inkscape:version="1.0.2 (1.0.2+r75+1)"
   sodipodi:docname="front_panel_with_cv_and_bias_knobs.svg">
  <defs
     id="defs9093">
    <rect
       x="90.500717"
       y="53.489723"
       width="40.935272"
       height="13.883335"
       id="rect6915-2" />
    <rect
       x="90.500717"
       y="53.489723"
       width="40.935272"
       height="13.883335"
       id="rect9030" />
    <rect
       x="90.500717"
       y="53.489723"
       width="40.935272"
       height="13.883335"
       id="rect6915-2-5" />
    <rect
       x="90.500717"
       y="53.489723"
       width="40.935272"
       height="13.883335"
       id="rect9033" />
    <rect
       x="90.500717"
       y="53.489723"
       width="40.935272"
       height="13.883335"
       id="rect6915-2-5-2" />
    <rect
       x="90.500717"
       y="53.489723"
       width="40.935272"
       height="13.883335"
       id="rect9036" />
    <rect
       x="90.500717"
       y="53.489723"
       width="40.935272"
       height="13.883335"
       id="rect6915-2-8" />
    <rect
       x="90.500717"
       y="53.489723"
       width="40.935272"
       height="13.883335"
       id="rect9039" />
  </defs>
  <sodipodi:namedview
     id="base"
     pagecolor="#ffffff"
     bordercolor="#666666"
     borderopacity="1.0"
     inkscape:pageopacity="0.0"
     inkscape:pageshadow="2"
     inkscape:zoom="0.35"
     inkscape:cx="400"
     inkscape:cy="560"
     inkscape:document-units="mm"
     inkscape:current-layer="layer1"
     inkscape:document-rotation="0"
     showgrid="false"
     inkscape:window-width="1680"
     inkscape:window-height="995"
     inkscape:window-x="0"
     inkscape:window-y="27"
     inkscape:window-maximized="1" />
  <metadata
     id="metadata9096">
    <rdf:RDF>
      <cc:Work
         rdf:about="">
        <dc:format>image/svg+xml</dc:format>
        <dc:type
           rdf:resource="http://purl.org/dc/dcmitype/StillImage" />
        <dc:title></dc:title>
      </cc:Work>
    </rdf:RDF>
  </metadata>
  <g
     inkscape:label="Layer 1"
     inkscape:groupmode="layer"
     id="layer1">
    <g
       transform="matrix(0.99999999,0,0,-0.99999999,2.6613514,132.71114)"
       fill-rule="evenodd"
       style="stroke-linecap:round;stroke-linejoin:round;stroke-opacity:1"
       id="g7180">
      <path
         d="m 36,125.569 a 1.6,1.6 0 0 1 1.6,-1.6 h 4.8 a 1.6,1.6 0 0 1 1.6,1.6 v 0 a 1.6,1.6 0 0 1 -1.6,1.6 h -4.8 a 1.6,1.6 0 0 1 -1.6,-1.6 v 0"
         fill="#ffffff"
         fill-opacity="1"
         vector-effect="non-scaling-stroke"
         stroke="#000000"
         stroke-width="0.1mm"
         stroke-opacity="1"
         fpd:visible="front back"
         fpd:print_element="0"
         id="path7138"
         style="stroke:#0000ff;stroke-width:1.5;stroke-miterlimit:4;stroke-dasharray:none;stroke-opacity:1" />
      <path
         d="m 6,125.5 a 1.6,1.6 0 0 1 1.6,-1.6 h 4.8 a 1.6,1.6 0 0 1 1.6,1.6 v 0 a 1.6,1.6 0 0 1 -1.6,1.6 H 7.6 A 1.6,1.6 0 0 1 6,125.5 v 0"
         fill="#ffffff"
         fill-opacity="1"
         vector-effect="non-scaling-stroke"
         stroke="#000000"
         stroke-width="0.1mm"
         stroke-opacity="1"
         fpd:visible="front back"
         fpd:print_element="0"
         id="path7140"
         style="stroke:#0000ff;stroke-width:1.5;stroke-miterlimit:4;stroke-dasharray:none;stroke-opacity:1" />
      <path
         d="m 36,3 a 1.6,1.6 0 0 1 1.6,-1.6 h 4.8 A 1.6,1.6 0 0 1 44,3 V 3 A 1.6,1.6 0 0 1 42.4,4.6 H 37.6 A 1.6,1.6 0 0 1 36,3 v 0"
         fill="#ffffff"
         fill-opacity="1"
         vector-effect="non-scaling-stroke"
         stroke="#000000"
         stroke-width="0.1mm"
         stroke-opacity="1"
         fpd:visible="front back"
         fpd:print_element="0"
         id="path7142"
         style="stroke:#0000ff;stroke-width:1.5;stroke-miterlimit:4;stroke-dasharray:none;stroke-opacity:1" />
      <path
         d="M 6,3 A 1.6,1.6 0 0 1 7.6,1.4 h 4.8 A 1.6,1.6 0 0 1 14,3 V 3 A 1.6,1.6 0 0 1 12.4,4.6 H 7.6 A 1.6,1.6 0 0 1 6,3 v 0"
         fill="#ffffff"
         fill-opacity="1"
         vector-effect="non-scaling-stroke"
         stroke="#000000"
         stroke-width="0.1mm"
         stroke-opacity="1"
         fpd:visible="front back"
         fpd:print_element="0"
         id="path7144"
         style="stroke:#0000ff;stroke-width:1.5;stroke-miterlimit:4;stroke-dasharray:none;stroke-opacity:1" />
      <path
         d="m 34.5,80 a 3.5,3.5 0 1 0 7,0 3.5,3.5 0 1 0 -7,0"
         fill="#ffffff"
         fill-opacity="1"
         vector-effect="non-scaling-stroke"
         stroke="#000000"
         stroke-width="0.1mm"
         stroke-opacity="1"
         fpd:visible="front back"
         fpd:print_element="0"
         id="path7146"
         style="stroke:#0000ff;stroke-width:1.5;stroke-miterlimit:4;stroke-dasharray:none;stroke-opacity:1" />
      <path
         d="m 8.5,102 a 3.5,3.5 0 1 0 7,0 3.5,3.5 0 1 0 -7,0"
         fill="#ffffff"
         fill-opacity="1"
         vector-effect="non-scaling-stroke"
         stroke="#000000"
         stroke-width="0.1mm"
         stroke-opacity="1"
         fpd:visible="front back"
         fpd:print_element="0"
         id="path7148"
         style="stroke:#0000ff;stroke-width:1.5;stroke-miterlimit:4;stroke-dasharray:none;stroke-opacity:1" />
      <path
         d="m 34.5,102 a 3.5,3.5 0 1 0 7,0 3.5,3.5 0 1 0 -7,0"
         fill="#ffffff"
         fill-opacity="1"
         vector-effect="non-scaling-stroke"
         stroke="#000000"
         stroke-width="0.1mm"
         stroke-opacity="1"
         fpd:visible="front back"
         fpd:print_element="0"
         id="path7150"
         style="stroke:#0000ff;stroke-width:1.5;stroke-miterlimit:4;stroke-dasharray:none;stroke-opacity:1" />
      <path
         d="m 8.5,80 a 3.5,3.5 0 1 0 7,0 3.5,3.5 0 1 0 -7,0"
         fill="#ffffff"
         fill-opacity="1"
         vector-effect="non-scaling-stroke"
         stroke="#000000"
         stroke-width="0.1mm"
         stroke-opacity="1"
         fpd:visible="front back"
         fpd:print_element="0"
         id="path7152"
         style="stroke:#0000ff;stroke-width:1.5;stroke-miterlimit:4;stroke-dasharray:none;stroke-opacity:1" />
      <path
         d="m 9,55 a 3,3 0 1 0 6,0 3,3 0 1 0 -6,0"
         fill="#ffffff"
         fill-opacity="1"
         vector-effect="non-scaling-stroke"
         stroke="#000000"
         stroke-width="0.1mm"
         stroke-opacity="1"
         fpd:visible="front back"
         fpd:print_element="0"
         id="path7154"
         style="stroke:#0000ff;stroke-width:1.5;stroke-miterlimit:4;stroke-dasharray:none;stroke-opacity:1" />
      <path
         d="m 35,55 a 3,3 0 1 0 6,0 3,3 0 1 0 -6,0"
         fill="#ffffff"
         fill-opacity="1"
         vector-effect="non-scaling-stroke"
         stroke="#000000"
         stroke-width="0.1mm"
         stroke-opacity="1"
         fpd:visible="front back"
         fpd:print_element="0"
         id="path7156"
         style="stroke:#0000ff;stroke-width:1.5;stroke-miterlimit:4;stroke-dasharray:none;stroke-opacity:1" />
      <path
         d="m 9,35 a 3,3 0 1 0 6,0 3,3 0 1 0 -6,0"
         fill="#ffffff"
         fill-opacity="1"
         vector-effect="non-scaling-stroke"
         stroke="#000000"
         stroke-width="0.1mm"
         stroke-opacity="1"
         fpd:visible="front back"
         fpd:print_element="0"
         id="path7158"
         style="stroke:#0000ff;stroke-width:1.5;stroke-miterlimit:4;stroke-dasharray:none;stroke-opacity:1" />
      <path
         d="m 35,35 a 3,3 0 1 0 6,0 3,3 0 1 0 -6,0"
         fill="#ffffff"
         fill-opacity="1"
         vector-effect="non-scaling-stroke"
         stroke="#000000"
         stroke-width="0.1mm"
         stroke-opacity="1"
         fpd:visible="front back"
         fpd:print_element="0"
         id="path7160"
         style="stroke:#0000ff;stroke-width:1.5;stroke-miterlimit:4;stroke-dasharray:none;stroke-opacity:1" />
      <path
         d="m 9,15 a 3,3 0 1 0 6,0 3,3 0 1 0 -6,0"
         fill="#ffffff"
         fill-opacity="1"
         vector-effect="non-scaling-stroke"
         stroke="#000000"
         stroke-width="0.1mm"
         stroke-opacity="1"
         fpd:visible="front back"
         fpd:print_element="0"
         id="path7162"
         style="stroke:#0000ff;stroke-width:1.5;stroke-miterlimit:4;stroke-dasharray:none;stroke-opacity:1" />
      <path
         d="m 35,15 a 3,3 0 1 0 6,0 3,3 0 1 0 -6,0"
         fill="#ffffff"
         fill-opacity="1"
         vector-effect="non-scaling-stroke"
         stroke="#000000"
         stroke-width="0.1mm"
         stroke-opacity="1"
         fpd:visible="front back"
         fpd:print_element="0"
         id="path7164"
         style="stroke:#0000ff;stroke-width:1.5;stroke-miterlimit:4;stroke-dasharray:none;stroke-opacity:1" />
      <path
         d="m 21,3 a 1.6,1.6 0 0 1 1.6,-1.6 h 4.8 A 1.6,1.6 0 0 1 29,3 V 3 A 1.6,1.6 0 0 1 27.4,4.6 H 22.6 A 1.6,1.6 0 0 1 21,3 v 0"
         fill="#ffffff"
         fill-opacity="1"
         vector-effect="non-scaling-stroke"
         stroke="#000000"
         stroke-width="0.1mm"
         stroke-opacity="1"
         fpd:visible="front back"
         fpd:print_element="0"
         id="path7166"
         style="stroke:#0000ff;stroke-width:1.5;stroke-miterlimit:4;stroke-dasharray:none;stroke-opacity:1" />
      <path
         d="m 21,125.5 a 1.6,1.6 0 0 1 1.6,-1.6 h 4.8 a 1.6,1.6 0 0 1 1.6,1.6 v 0 a 1.6,1.6 0 0 1 -1.6,1.6 H 22.6 A 1.6,1.6 0 0 1 21,125.5 v 0"
         fill="#ffffff"
         fill-opacity="1"
         vector-effect="non-scaling-stroke"
         stroke="#000000"
         stroke-width="0.1mm"
         stroke-opacity="1"
         fpd:visible="front back"
         fpd:print_element="0"
         id="path7168"
         style="stroke:#0000ff;stroke-width:1.5;stroke-miterlimit:4;stroke-dasharray:none;stroke-opacity:1" />
      <path
         d="m 1.7,25 a 3,3 0 1 0 6,0 3,3 0 1 0 -6,0"
         fill="#ffffff"
         fill-opacity="1"
         vector-effect="non-scaling-stroke"
         stroke="#000000"
         stroke-width="0.1mm"
         stroke-opacity="1"
         fpd:visible="front back"
         fpd:print_element="0"
         id="path7170"
         style="stroke:#0000ff;stroke-width:1.5;stroke-miterlimit:4;stroke-dasharray:none;stroke-opacity:1" />
      <path
         d="m 1.7,113.9 a 3,3 0 1 0 6,0 3,3 0 1 0 -6,0"
         fill="#ffffff"
         fill-opacity="1"
         vector-effect="non-scaling-stroke"
         stroke="#000000"
         stroke-width="0.1mm"
         stroke-opacity="1"
         fpd:visible="front back"
         fpd:print_element="0"
         id="path7172"
         style="stroke:#0000ff;stroke-width:1.5;stroke-miterlimit:4;stroke-dasharray:none;stroke-opacity:1" />
      <path
         d="m 42.3,25 a 3,3 0 1 0 6,0 3,3 0 1 0 -6,0"
         fill="#ffffff"
         fill-opacity="1"
         vector-effect="non-scaling-stroke"
         stroke="#000000"
         stroke-width="0.1mm"
         stroke-opacity="1"
         fpd:visible="front back"
         fpd:print_element="0"
         id="path7174"
         style="stroke:#0000ff;stroke-width:1.5;stroke-miterlimit:4;stroke-dasharray:none;stroke-opacity:1" />
      <path
         d="m 42.3,113.9 a 3,3 0 1 0 6,0 3,3 0 1 0 -6,0"
         fill="#ffffff"
         fill-opacity="1"
         vector-effect="non-scaling-stroke"
         stroke="#000000"
         stroke-width="0.1mm"
         stroke-opacity="1"
         fpd:visible="front back"
         fpd:print_element="0"
         id="path7176"
         style="stroke:#0000ff;stroke-width:1.5;stroke-miterlimit:4;stroke-dasharray:none;stroke-opacity:1" />
      <path
         d="m 49,128.4 a 1,1 0 0 0 1,-1 V 1 A 1,1 0 0 0 49,0 H 1 A 1,1 0 0 0 0,1 v 126.4 a 1,1 0 0 0 1,1 h 48"
         fill="none"
         vector-effect="non-scaling-stroke"
         stroke="#000000"
         stroke-width="0.1mm"
         stroke-opacity="1"
         fpd:visible="front back"
         id="path7178"
         style="stroke:#0000ff;stroke-width:1.5;stroke-miterlimit:4;stroke-dasharray:none;stroke-opacity:1" />
      <g
         transform="translate(51.596531,8.4905459)"
         fill-rule="evenodd"
         style="stroke-linecap:round;stroke-linejoin:round;stroke-opacity:1"
         id="g7574">
        <path
           d="m 34.5,71.6 a 3.5,3.5 0 1 0 7,0 3.5,3.5 0 1 0 -7,0"
           fill="#ffffff"
           fill-opacity="1"
           vector-effect="non-scaling-stroke"
           stroke="#000000"
           stroke-width="0.1mm"
           stroke-opacity="1"
           fpd:visible="front back"
           fpd:print_element="0"
           id="path7544"
           style="stroke:#0000ff;stroke-width:1.5;stroke-miterlimit:4;stroke-dasharray:none;stroke-opacity:1" />
        <path
           d="m 8.5,93.6 a 3.5,3.5 0 1 0 7,0 3.5,3.5 0 1 0 -7,0"
           fill="#ffffff"
           fill-opacity="1"
           vector-effect="non-scaling-stroke"
           stroke="#000000"
           stroke-width="0.1mm"
           stroke-opacity="1"
           fpd:visible="front back"
           fpd:print_element="0"
           id="path7546"
           style="stroke:#0000ff;stroke-width:1.5;stroke-miterlimit:4;stroke-dasharray:none;stroke-opacity:1" />
        <path
           d="m 34.5,93.6 a 3.5,3.5 0 1 0 7,0 3.5,3.5 0 1 0 -7,0"
           fill="#ffffff"
           fill-opacity="1"
           vector-effect="non-scaling-stroke"
           stroke="#000000"
           stroke-width="0.1mm"
           stroke-opacity="1"
           fpd:visible="front back"
           fpd:print_element="0"
           id="path7548"
           style="stroke:#0000ff;stroke-width:1.5;stroke-miterlimit:4;stroke-dasharray:none;stroke-opacity:1" />
        <path
           d="m 8.5,71.6 a 3.5,3.5 0 1 0 7,0 3.5,3.5 0 1 0 -7,0"
           fill="#ffffff"
           fill-opacity="1"
           vector-effect="non-scaling-stroke"
           stroke="#000000"
           stroke-width="0.1mm"
           stroke-opacity="1"
           fpd:visible="front back"
           fpd:print_element="0"
           id="path7550"
           style="stroke:#0000ff;stroke-width:1.5;stroke-miterlimit:4;stroke-dasharray:none;stroke-opacity:1" />
        <path
           d="m 3.2,16.6 a 1.5,1.5 0 1 0 3,0 1.5,1.5 0 1 0 -3,0"
           fill="#ffffff"
           fill-opacity="1"
           vector-effect="non-scaling-stroke"
           stroke="#000000"
           stroke-width="0.1mm"
           stroke-opacity="1"
           fpd:visible="front back"
           fpd:print_element="0"
           id="path7552"
           style="stroke:#0000ff;stroke-width:1.5;stroke-miterlimit:4;stroke-dasharray:none;stroke-opacity:1" />
        <path
           d="m 3.2,105.5 a 1.5,1.5 0 1 0 3,0 1.5,1.5 0 1 0 -3,0"
           fill="#ffffff"
           fill-opacity="1"
           vector-effect="non-scaling-stroke"
           stroke="#000000"
           stroke-width="0.1mm"
           stroke-opacity="1"
           fpd:visible="front back"
           fpd:print_element="0"
           id="path7554"
           style="stroke:#0000ff;stroke-width:1.5;stroke-miterlimit:4;stroke-dasharray:none;stroke-opacity:1" />
        <path
           d="m 43.8,16.6 a 1.5,1.5 0 1 0 3,0 1.5,1.5 0 1 0 -3,0"
           fill="#ffffff"
           fill-opacity="1"
           vector-effect="non-scaling-stroke"
           stroke="#000000"
           stroke-width="0.1mm"
           stroke-opacity="1"
           fpd:visible="front back"
           fpd:print_element="0"
           id="path7556"
           style="stroke:#0000ff;stroke-width:1.5;stroke-miterlimit:4;stroke-dasharray:none;stroke-opacity:1" />
        <path
           d="m 43.8,105.5 a 1.5,1.5 0 1 0 3,0 1.5,1.5 0 1 0 -3,0"
           fill="#ffffff"
           fill-opacity="1"
           vector-effect="non-scaling-stroke"
           stroke="#000000"
           stroke-width="0.1mm"
           stroke-opacity="1"
           fpd:visible="front back"
           fpd:print_element="0"
           id="path7558"
           style="stroke:#0000ff;stroke-width:1.5;stroke-miterlimit:4;stroke-dasharray:none;stroke-opacity:1" />
        <path
           d="m 6.17,42.35 a 0.5,0.5 0 0 1 0.5,-0.5 h 10.66 a 0.5,0.5 0 0 1 0.5,0.5 v 8.5 a 0.5,0.5 0 0 1 -0.5,0.5 H 6.67 a 0.5,0.5 0 0 1 -0.5,-0.5 v -8.5"
           fill="#ffffff"
           fill-opacity="1"
           vector-effect="non-scaling-stroke"
           stroke="#000000"
           stroke-width="0.1mm"
           stroke-opacity="1"
           fpd:visible="front back"
           fpd:print_element="0"
           id="path7560"
           style="stroke:#0000ff;stroke-width:1.5;stroke-miterlimit:4;stroke-dasharray:none;stroke-opacity:1" />
        <path
           d="m 32.17,42.35 a 0.5,0.5 0 0 1 0.5,-0.5 h 10.66 a 0.5,0.5 0 0 1 0.5,0.5 v 8.5 a 0.5,0.5 0 0 1 -0.5,0.5 H 32.67 a 0.5,0.5 0 0 1 -0.5,-0.5 v -8.5"
           fill="#ffffff"
           fill-opacity="1"
           vector-effect="non-scaling-stroke"
           stroke="#000000"
           stroke-width="0.1mm"
           stroke-opacity="1"
           fpd:visible="front back"
           fpd:print_element="0"
           id="path7562"
           style="stroke:#0000ff;stroke-width:1.5;stroke-miterlimit:4;stroke-dasharray:none;stroke-opacity:1" />
        <path
           d="m 6.17,22.35 a 0.5,0.5 0 0 1 0.5,-0.5 h 10.66 a 0.5,0.5 0 0 1 0.5,0.5 v 8.5 a 0.5,0.5 0 0 1 -0.5,0.5 H 6.67 a 0.5,0.5 0 0 1 -0.5,-0.5 v -8.5"
           fill="#ffffff"
           fill-opacity="1"
           vector-effect="non-scaling-stroke"
           stroke="#000000"
           stroke-width="0.1mm"
           stroke-opacity="1"
           fpd:visible="front back"
           fpd:print_element="0"
           id="path7564"
           style="stroke:#0000ff;stroke-width:1.5;stroke-miterlimit:4;stroke-dasharray:none;stroke-opacity:1" />
        <path
           d="m 32.17,22.35 a 0.5,0.5 0 0 1 0.5,-0.5 h 10.66 a 0.5,0.5 0 0 1 0.5,0.5 v 8.5 a 0.5,0.5 0 0 1 -0.5,0.5 H 32.67 a 0.5,0.5 0 0 1 -0.5,-0.5 v -8.5"
           fill="#ffffff"
           fill-opacity="1"
           vector-effect="non-scaling-stroke"
           stroke="#000000"
           stroke-width="0.1mm"
           stroke-opacity="1"
           fpd:visible="front back"
           fpd:print_element="0"
           id="path7566"
           style="stroke:#0000ff;stroke-width:1.5;stroke-miterlimit:4;stroke-dasharray:none;stroke-opacity:1" />
        <path
           d="m 6.17,2.35 a 0.5,0.5 0 0 1 0.5,-0.5 h 10.66 a 0.5,0.5 0 0 1 0.5,0.5 v 8.5 a 0.5,0.5 0 0 1 -0.5,0.5 H 6.67 a 0.5,0.5 0 0 1 -0.5,-0.5 v -8.5"
           fill="#ffffff"
           fill-opacity="1"
           vector-effect="non-scaling-stroke"
           stroke="#000000"
           stroke-width="0.1mm"
           stroke-opacity="1"
           fpd:visible="front back"
           fpd:print_element="0"
           id="path7568"
           style="stroke:#0000ff;stroke-width:1.5;stroke-miterlimit:4;stroke-dasharray:none;stroke-opacity:1" />
        <path
           d="m 32.17,2.35 a 0.5,0.5 0 0 1 0.5,-0.5 h 10.66 a 0.5,0.5 0 0 1 0.5,0.5 v 8.5 a 0.5,0.5 0 0 1 -0.5,0.5 H 32.67 a 0.5,0.5 0 0 1 -0.5,-0.5 v -8.5"
           fill="#ffffff"
           fill-opacity="1"
           vector-effect="non-scaling-stroke"
           stroke="#000000"
           stroke-width="0.1mm"
           stroke-opacity="1"
           fpd:visible="front back"
           fpd:print_element="0"
           id="path7570"
           style="stroke:#0000ff;stroke-width:1.5;stroke-miterlimit:4;stroke-dasharray:none;stroke-opacity:1" />
        <path
           d="m 49,111.6 a 1,1 0 0 0 1,-1 V 1 A 1,1 0 0 0 49,0 H 1 A 1,1 0 0 0 0,1 v 109.6 a 1,1 0 0 0 1,1 h 48"
           fill="none"
           vector-effect="non-scaling-stroke"
           stroke="#000000"
           stroke-width="0.1mm"
           stroke-opacity="1"
           fpd:visible="front back"
           id="path7572"
           style="stroke:#0000ff;stroke-width:1.5;stroke-miterlimit:4;stroke-dasharray:none;stroke-opacity:1" />
      </g>
    </g>
    <text
       xml:space="preserve"
       id="text6913-37"
       style="font-style:normal;font-weight:normal;font-size:10.5833px;line-height:1.25;font-family:sans-serif;letter-spacing:0px;word-spacing:0px;white-space:pre;shape-inside:url(#rect6915-2);fill:none;fill-opacity:1;stroke:#ff00ff;stroke-width:0.25;stroke-miterlimit:4;stroke-dasharray:none;stroke-opacity:1;"
       transform="translate(-66.294939,17.155759)"><tspan
         x="90.5"
         y="62.853974"><tspan
           style="font-size:6.35px">IN</tspan></tspan></text>
    <text
       xml:space="preserve"
       id="text6913-37-9"
       style="font-style:normal;font-weight:normal;font-size:10.5833px;line-height:1.25;font-family:sans-serif;letter-spacing:0px;word-spacing:0px;white-space:pre;shape-inside:url(#rect6915-2-5);fill:none;fill-opacity:1;stroke:#ff00ff;stroke-width:0.25;stroke-miterlimit:4;stroke-dasharray:none;stroke-opacity:1;"
       transform="translate(-67.658789,37.146271)"><tspan
         x="90.5"
         y="62.853974"><tspan
           style="font-size:6.35px">CV</tspan></tspan></text>
    <text
       xml:space="preserve"
       id="text6913-37-9-2"
       style="font-style:normal;font-weight:normal;font-size:10.5833px;line-height:1.25;font-family:sans-serif;letter-spacing:0px;word-spacing:0px;white-space:pre;shape-inside:url(#rect6915-2-5-2);fill:none;fill-opacity:1;stroke:#ff00ff;stroke-width:0.25;stroke-miterlimit:4;stroke-dasharray:none;stroke-opacity:1;"
       transform="translate(-69.972239,57.35179)"><tspan
         x="90.5"
         y="62.853974"><tspan
           style="font-size:6.35px">OUT</tspan></tspan></text>
    <text
       xml:space="preserve"
       id="text6913-37-97"
       style="font-style:normal;font-weight:normal;font-size:10.5833px;line-height:1.25;font-family:sans-serif;letter-spacing:0px;word-spacing:0px;white-space:pre;shape-inside:url(#rect6915-2-8);fill:none;fill-opacity:1;stroke:#ff00ff;stroke-width:0.25;stroke-miterlimit:4;stroke-dasharray:none;stroke-opacity:1;"
       transform="translate(-78.818969,-47.887702)"><tspan
         x="90.5"
         y="62.853974"><tspan
           style="font-size:6.35px">DUAL-VCA</tspan></tspan></text>
  </g>
</svg>
