<?xml version="1.0" encoding="UTF-8" standalone="no"?>
<svg
   xmlns:dc="http://purl.org/dc/elements/1.1/"
   xmlns:cc="http://creativecommons.org/ns#"
   xmlns:rdf="http://www.w3.org/1999/02/22-rdf-syntax-ns#"
   xmlns:svg="http://www.w3.org/2000/svg"
   xmlns="http://www.w3.org/2000/svg"
   xmlns:sodipodi="http://sodipodi.sourceforge.net/DTD/sodipodi-0.dtd"
   xmlns:inkscape="http://www.inkscape.org/namespaces/inkscape"
   width="100mm"
   height="135mm"
   viewBox="0 0 100 135"
   version="1.1"
   id="svg7273"
   inkscape:version="1.0.2 (1.0.2+r75+1)"
   sodipodi:docname="front_panel_with_hard_sync_input.svg">
  <defs
     id="defs7267" />
  <sodipodi:namedview
     id="base"
     pagecolor="#ffffff"
     bordercolor="#666666"
     borderopacity="1.0"
     inkscape:pageopacity="0.0"
     inkscape:pageshadow="2"
     inkscape:zoom="0.7"
     inkscape:cx="248.03582"
     inkscape:cy="431.57988"
     inkscape:document-units="mm"
     inkscape:current-layer="layer1"
     inkscape:document-rotation="0"
     showgrid="false"
     inkscape:window-width="1439"
     inkscape:window-height="921"
     inkscape:window-x="36"
     inkscape:window-y="43"
     inkscape:window-maximized="0" />
  <metadata
     id="metadata7270">
    <rdf:RDF>
      <cc:Work
         rdf:about="">
        <dc:format>image/svg+xml</dc:format>
        <dc:type
           rdf:resource="http://purl.org/dc/dcmitype/StillImage" />
        <dc:title></dc:title>
      </cc:Work>
    </rdf:RDF>
  </metadata>
  <g
     inkscape:label="Layer 1"
     inkscape:groupmode="layer"
     id="layer1">
    <g
       id="g1311"
       transform="matrix(0.35277777,0,0,0.35277777,-163.13059,1.5119656)">
      <path
         d="m 517.215,226.727 c 0,-5.481 4.441,-9.922 9.922,-9.922 5.476,0 9.922,4.441 9.922,9.922 0,5.476 -4.446,9.918 -9.922,9.918 -5.481,0 -9.922,-4.442 -9.922,-9.918"
         style="fill:#ffffff;fill-opacity:1;fill-rule:evenodd;stroke:#0000ff;stroke-width:1.07136;stroke-linecap:round;stroke-linejoin:round;stroke-miterlimit:4;stroke-dasharray:none;stroke-opacity:1"
         id="path1313" />
    </g>
    <g
       id="g1315"
       transform="matrix(0.35277777,0,0,0.35277777,-163.13059,1.5119656)">
      <path
         d="m 517.215,161.926 c 0,-5.481 4.441,-9.922 9.922,-9.922 5.476,0 9.922,4.441 9.922,9.922 0,5.48 -4.446,9.922 -9.922,9.922 -5.481,0 -9.922,-4.442 -9.922,-9.922"
         style="fill:#ffffff;fill-opacity:1;fill-rule:evenodd;stroke:#0000ff;stroke-width:1.07136;stroke-linecap:round;stroke-linejoin:round;stroke-miterlimit:4;stroke-dasharray:none;stroke-opacity:1"
         id="path1317" />
    </g>
    <g
       id="g1319"
       transform="matrix(0.35277777,0,0,0.35277777,-163.13059,1.5119656)">
      <path
         d="m 517.215,68.324 c 0,-5.48 4.441,-9.922 9.922,-9.922 5.476,0 9.922,4.442 9.922,9.922 0,5.481 -4.446,9.922 -9.922,9.922 -5.481,0 -9.922,-4.441 -9.922,-9.922"
         style="fill:#ffffff;fill-opacity:1;fill-rule:evenodd;stroke:#0000ff;stroke-width:1.07136;stroke-linecap:round;stroke-linejoin:round;stroke-miterlimit:4;stroke-dasharray:none;stroke-opacity:1"
         id="path1321" />
    </g>
    <g
       id="g1323"
       transform="matrix(0.35277777,0,0,0.35277777,-163.13059,1.5119656)">
      <path
         d="m 552.637,322.988 c 0,-4.695 3.808,-8.504 8.504,-8.504 4.695,0 8.504,3.809 8.504,8.504 0,4.7 -3.809,8.504 -8.504,8.504 -4.696,0 -8.504,-3.804 -8.504,-8.504"
         style="fill:#ffffff;fill-opacity:1;fill-rule:evenodd;stroke:#0000ff;stroke-width:1.07136;stroke-linecap:round;stroke-linejoin:round;stroke-miterlimit:4;stroke-dasharray:none;stroke-opacity:1"
         id="path1325" />
    </g>
    <g
       id="g1327"
       transform="matrix(0.35277777,0,0,0.35277777,-163.13059,1.5119656)">
      <path
         d="m 518.621,322.988 c 0,-4.695 3.805,-8.504 8.504,-8.504 4.695,0 8.504,3.809 8.504,8.504 0,4.7 -3.809,8.504 -8.504,8.504 -4.699,0 -8.504,-3.804 -8.504,-8.504"
         style="fill:#ffffff;fill-opacity:1;fill-rule:evenodd;stroke:#0000ff;stroke-width:1.07136;stroke-linecap:round;stroke-linejoin:round;stroke-miterlimit:4;stroke-dasharray:none;stroke-opacity:1"
         id="path1329" />
    </g>
    <g
       id="g1331"
       transform="matrix(0.35277777,0,0,0.35277777,-163.13059,1.5119656)">
      <path
         d="m 558.316,125.926 c 0,-4.699 3.809,-8.504 8.504,-8.504 4.696,0 8.504,3.805 8.504,8.504 0,4.695 -3.808,8.504 -8.504,8.504 -4.695,0 -8.504,-3.809 -8.504,-8.504"
         style="fill:#ffffff;fill-opacity:1;fill-rule:evenodd;stroke:#0000ff;stroke-width:1.07136;stroke-linecap:round;stroke-linejoin:round;stroke-miterlimit:4;stroke-dasharray:none;stroke-opacity:1"
         id="path1333" />
    </g>
    <g
       id="g1335"
       transform="matrix(0.35277777,0,0,0.35277777,-163.13059,1.5119656)">
      <path
         d="m 544.133,9.566 c 0,2.504 2.031,4.536 4.535,4.536 h 13.605 c 2.504,0 4.536,-2.032 4.536,-4.536 0,-2.504 -2.032,-4.535 -4.536,-4.535 h -13.605 c -2.504,0 -4.535,2.031 -4.535,4.535"
         style="fill:#ffffff;fill-opacity:1;fill-rule:evenodd;stroke:#0000ff;stroke-width:1.07136;stroke-linecap:round;stroke-linejoin:round;stroke-miterlimit:4;stroke-dasharray:none;stroke-opacity:1"
         id="path1337" />
    </g>
    <g
       id="g1339"
       transform="matrix(0.35277777,0,0,0.35277777,-163.13059,1.5119656)">
      <path
         d="m 484.605,322.988 c 0,-4.695 3.805,-8.504 8.504,-8.504 4.696,0 8.504,3.809 8.504,8.504 0,4.7 -3.808,8.504 -8.504,8.504 -4.699,0 -8.504,-3.804 -8.504,-8.504"
         style="fill:#ffffff;fill-opacity:1;fill-rule:evenodd;stroke:#0000ff;stroke-width:1.07136;stroke-linecap:round;stroke-linejoin:round;stroke-miterlimit:4;stroke-dasharray:none;stroke-opacity:1"
         id="path1341" />
    </g>
    <g
       id="g1343"
       transform="matrix(0.35277777,0,0,0.35277777,-163.13059,1.5119656)">
      <path
         d="m 487.438,9.762 c 0,2.504 2.031,4.535 4.539,4.535 h 13.605 c 2.504,0 4.535,-2.031 4.535,-4.535 0,-2.504 -2.031,-4.535 -4.535,-4.535 h -13.605 c -2.508,0 -4.539,2.031 -4.539,4.535"
         style="fill:#ffffff;fill-opacity:1;fill-rule:evenodd;stroke:#0000ff;stroke-width:1.07136;stroke-linecap:round;stroke-linejoin:round;stroke-miterlimit:4;stroke-dasharray:none;stroke-opacity:1"
         id="path1345" />
    </g>
    <g
       id="g1347"
       transform="matrix(0.35277777,0,0,0.35277777,-163.13059,1.5119656)">
      <path
         d="m 547.504,357.004 c 0,2.508 2.027,4.535 4.535,4.535 h 13.606 c 2.503,0 4.535,-2.027 4.535,-4.535 0,-2.504 -2.032,-4.535 -4.535,-4.535 h -13.606 c -2.508,0 -4.535,2.031 -4.535,4.535"
         style="fill:#ffffff;fill-opacity:1;fill-rule:evenodd;stroke:#0000ff;stroke-width:1.07136;stroke-linecap:round;stroke-linejoin:round;stroke-miterlimit:4;stroke-dasharray:none;stroke-opacity:1"
         id="path1349" />
    </g>
    <g
       id="g1351"
       transform="matrix(0.35277777,0,0,0.35277777,-163.13059,1.5119656)">
      <path
         d="m 490.809,357.004 c 0,2.508 2.031,4.535 4.535,4.535 h 13.609 c 2.504,0 4.535,-2.027 4.535,-4.535 0,-2.504 -2.031,-4.535 -4.535,-4.535 h -13.609 c -2.504,0 -4.535,2.031 -4.535,4.535"
         style="fill:#ffffff;fill-opacity:1;fill-rule:evenodd;stroke:#0000ff;stroke-width:1.07136;stroke-linecap:round;stroke-linejoin:round;stroke-miterlimit:4;stroke-dasharray:none;stroke-opacity:1"
         id="path1353" />
    </g>
    <g
       id="g1355"
       transform="matrix(0.35277777,0,0,0.35277777,-163.13059,1.5119656)">
      <path
         d="m 552.637,280.469 c 0,-4.696 3.808,-8.504 8.504,-8.504 4.695,0 8.504,3.808 8.504,8.504 0,4.699 -3.809,8.504 -8.504,8.504 -4.696,0 -8.504,-3.805 -8.504,-8.504"
         style="fill:#ffffff;fill-opacity:1;fill-rule:evenodd;stroke:#0000ff;stroke-width:1.07136;stroke-linecap:round;stroke-linejoin:round;stroke-miterlimit:4;stroke-dasharray:none;stroke-opacity:1"
         id="path1357" />
    </g>
    <g
       id="g1359"
       transform="matrix(0.35277777,0,0,0.35277777,-163.13059,1.5119656)">
      <path
         d="m 518.621,280.469 c 0,-4.696 3.805,-8.504 8.504,-8.504 4.695,0 8.504,3.808 8.504,8.504 0,4.699 -3.809,8.504 -8.504,8.504 -4.699,0 -8.504,-3.805 -8.504,-8.504"
         style="fill:#ffffff;fill-opacity:1;fill-rule:evenodd;stroke:#0000ff;stroke-width:1.07136;stroke-linecap:round;stroke-linejoin:round;stroke-miterlimit:4;stroke-dasharray:none;stroke-opacity:1"
         id="path1361" />
    </g>
    <g
       id="g1363"
       transform="matrix(0.35277777,0,0,0.35277777,-163.13059,1.5119656)">
      <path
         d="m 484.605,280.469 c 0,-4.696 3.805,-8.504 8.504,-8.504 4.696,0 8.504,3.808 8.504,8.504 0,4.699 -3.808,8.504 -8.504,8.504 -4.699,0 -8.504,-3.805 -8.504,-8.504"
         style="fill:#ffffff;fill-opacity:1;fill-rule:evenodd;stroke:#0000ff;stroke-width:1.07136;stroke-linecap:round;stroke-linejoin:round;stroke-miterlimit:4;stroke-dasharray:none;stroke-opacity:1"
         id="path1365" />
    </g>
    <g
       id="g1367"
       transform="matrix(0.35277777,0,0,0.35277777,-163.13059,1.5119656)">
      <path
         d="m 580.984,1.539 c 1.563,0 2.832,1.27 2.832,2.836 v 358.301 c 0,1.562 -1.269,2.832 -2.832,2.832 H 473.266 c -1.567,0 -2.836,-1.27 -2.836,-2.832 V 4.375 c 0,-1.566 1.269,-2.836 2.836,-2.836 h 107.718"
         style="fill:none;stroke:#0000ff;stroke-width:1.07136;stroke-linecap:round;stroke-linejoin:round;stroke-miterlimit:4;stroke-dasharray:none;stroke-opacity:1"
         id="path1369" />
    </g>
    <g
       id="g1371"
       transform="matrix(0.35277777,0,0,0.35277777,-163.13059,1.5119656)">
      <path
         d="m 536.457,309.598 -15.375,-10.77 -0.117,10.328 -1.606,-0.015 0.149,-13.364 17.887,12.543 z"
         style="fill:none;stroke:#ff00ff;stroke-width:0.566929;stroke-linecap:butt;stroke-linejoin:miter;stroke-miterlimit:4;stroke-dasharray:none;stroke-opacity:1"
         id="path1373" />
    </g>
    <g
       id="g1375"
       transform="matrix(0.35277777,0,0,0.35277777,-162.55219,1.78439)">
      <path
         d="m 634.008,227.082 c 0,-5.48 4.441,-9.922 9.922,-9.922 5.48,0 9.922,4.442 9.922,9.922 0,5.48 -4.442,9.922 -9.922,9.922 -5.481,0 -9.922,-4.442 -9.922,-9.922"
         style="fill:#ffffff;fill-opacity:1;fill-rule:evenodd;stroke:#0000ff;stroke-width:1.07136;stroke-linecap:round;stroke-linejoin:round;stroke-miterlimit:4;stroke-dasharray:none;stroke-opacity:1"
         id="path1377" />
    </g>
    <g
       id="g1379"
       transform="matrix(0.35277777,0,0,0.35277777,-162.55219,1.78439)">
      <path
         d="m 634.008,162.281 c 0,-5.476 4.441,-9.922 9.922,-9.922 5.48,0 9.922,4.446 9.922,9.922 0,5.481 -4.442,9.922 -9.922,9.922 -5.481,0 -9.922,-4.441 -9.922,-9.922"
         style="fill:#ffffff;fill-opacity:1;fill-rule:evenodd;stroke:#0000ff;stroke-width:1.07136;stroke-linecap:round;stroke-linejoin:round;stroke-miterlimit:4;stroke-dasharray:none;stroke-opacity:1"
         id="path1381" />
    </g>
    <g
       id="g1383"
       transform="matrix(0.35277777,0,0,0.35277777,-162.55219,1.78439)">
      <path
         d="m 634.008,68.684 c 0,-5.481 4.441,-9.922 9.922,-9.922 5.48,0 9.922,4.441 9.922,9.922 0,5.476 -4.442,9.921 -9.922,9.921 -5.481,0 -9.922,-4.445 -9.922,-9.921"
         style="fill:#ffffff;fill-opacity:1;fill-rule:evenodd;stroke:#0000ff;stroke-width:1.07136;stroke-linecap:round;stroke-linejoin:round;stroke-miterlimit:4;stroke-dasharray:none;stroke-opacity:1"
         id="path1385" />
    </g>
    <g
       id="g1387"
       transform="matrix(0.35277777,0,0,0.35277777,-162.55219,1.78439)">
      <path
         d="m 670.137,141.398 c 0,0.782 0.636,1.414 1.418,1.414 h 24.093 c 0.786,0 1.418,-0.632 1.418,-1.414 v -30.234 c 0,-0.781 -0.632,-1.418 -1.418,-1.418 h -24.093 c -0.782,0 -1.418,0.637 -1.418,1.418 v 30.234"
         style="fill:#ffffff;fill-opacity:1;fill-rule:evenodd;stroke:#0000ff;stroke-width:1.07136;stroke-linecap:round;stroke-linejoin:round;stroke-miterlimit:4;stroke-dasharray:none;stroke-opacity:1"
         id="path1389" />
    </g>
    <g
       id="g1391"
       transform="matrix(0.35277777,0,0,0.35277777,-162.55219,1.78439)">
      <path
         d="m 596.438,295.941 c 0,0.782 0.632,1.418 1.417,1.418 h 24.094 c 0.781,0 1.418,-0.636 1.418,-1.418 v -30.23 c 0,-0.785 -0.637,-1.418 -1.418,-1.418 h -24.094 c -0.785,0 -1.417,0.633 -1.417,1.418 v 30.23"
         style="fill:#ffffff;fill-opacity:1;fill-rule:evenodd;stroke:#0000ff;stroke-width:1.07136;stroke-linecap:round;stroke-linejoin:round;stroke-miterlimit:4;stroke-dasharray:none;stroke-opacity:1"
         id="path1393" />
    </g>
    <g
       id="g1395"
       transform="matrix(0.35277777,0,0,0.35277777,-162.55219,1.78439)">
      <path
         d="m 630.453,295.941 c 0,0.782 0.633,1.418 1.418,1.418 h 24.094 c 0.781,0 1.418,-0.636 1.418,-1.418 v -30.23 c 0,-0.785 -0.637,-1.418 -1.418,-1.418 h -24.094 c -0.785,0 -1.418,0.633 -1.418,1.418 v 30.23"
         style="fill:#ffffff;fill-opacity:1;fill-rule:evenodd;stroke:#0000ff;stroke-width:1.07136;stroke-linecap:round;stroke-linejoin:round;stroke-miterlimit:4;stroke-dasharray:none;stroke-opacity:1"
         id="path1397" />
    </g>
    <g
       id="g1399"
       transform="matrix(0.35277777,0,0,0.35277777,-162.55219,1.78439)">
      <path
         d="m 664.469,295.941 c 0,0.782 0.633,1.418 1.418,1.418 h 24.093 c 0.782,0 1.418,-0.636 1.418,-1.418 v -30.23 c 0,-0.785 -0.636,-1.418 -1.418,-1.418 h -24.093 c -0.785,0 -1.418,0.633 -1.418,1.418 v 30.23"
         style="fill:#ffffff;fill-opacity:1;fill-rule:evenodd;stroke:#0000ff;stroke-width:1.07136;stroke-linecap:round;stroke-linejoin:round;stroke-miterlimit:4;stroke-dasharray:none;stroke-opacity:1"
         id="path1401" />
    </g>
    <g
       id="g1403"
       transform="matrix(0.35277777,0,0,0.35277777,-162.55219,1.78439)">
      <path
         d="m 596.438,338.461 c 0,0.781 0.632,1.418 1.417,1.418 h 24.094 c 0.781,0 1.418,-0.637 1.418,-1.418 v -30.227 c 0,-0.785 -0.637,-1.418 -1.418,-1.418 h -24.094 c -0.785,0 -1.417,0.633 -1.417,1.418 v 30.227"
         style="fill:#ffffff;fill-opacity:1;fill-rule:evenodd;stroke:#0000ff;stroke-width:1.07136;stroke-linecap:round;stroke-linejoin:round;stroke-miterlimit:4;stroke-dasharray:none;stroke-opacity:1"
         id="path1405" />
    </g>
    <g
       id="g1407"
       transform="matrix(0.35277777,0,0,0.35277777,-162.55219,1.78439)">
      <path
         d="m 630.453,338.461 c 0,0.781 0.633,1.418 1.418,1.418 h 24.094 c 0.781,0 1.418,-0.637 1.418,-1.418 v -30.227 c 0,-0.785 -0.637,-1.418 -1.418,-1.418 h -24.094 c -0.785,0 -1.418,0.633 -1.418,1.418 v 30.227"
         style="fill:#ffffff;fill-opacity:1;fill-rule:evenodd;stroke:#0000ff;stroke-width:1.07136;stroke-linecap:round;stroke-linejoin:round;stroke-miterlimit:4;stroke-dasharray:none;stroke-opacity:1"
         id="path1409" />
    </g>
    <g
       id="g1411"
       transform="matrix(0.35277777,0,0,0.35277777,-162.55219,1.78439)">
      <path
         d="m 664.469,338.461 c 0,0.781 0.633,1.418 1.418,1.418 h 24.093 c 0.782,0 1.418,-0.637 1.418,-1.418 v -30.227 c 0,-0.785 -0.636,-1.418 -1.418,-1.418 h -24.093 c -0.785,0 -1.418,0.633 -1.418,1.418 v 30.227"
         style="fill:#ffffff;fill-opacity:1;fill-rule:evenodd;stroke:#0000ff;stroke-width:1.07136;stroke-linecap:round;stroke-linejoin:round;stroke-miterlimit:4;stroke-dasharray:none;stroke-opacity:1"
         id="path1413" />
    </g>
    <g
       id="g1415"
       transform="matrix(0.35277777,0,0,0.35277777,-162.55219,1.78439)">
      <path
         d="m 697.777,25.711 c 1.563,0 2.832,1.266 2.832,2.832 v 310.68 c 0,1.562 -1.269,2.832 -2.832,2.832 H 590.059 c -1.567,0 -2.832,-1.27 -2.832,-2.832 V 28.543 c 0,-1.566 1.265,-2.832 2.832,-2.832 h 107.718"
         style="fill:none;stroke:#0000ff;stroke-width:1.07136;stroke-linecap:round;stroke-linejoin:round;stroke-miterlimit:4;stroke-dasharray:none;stroke-opacity:1"
         id="path1417" />
    </g>
    <g
       id="g1419"
       transform="matrix(0.35277777,0,0,0.35277777,-163.13059,1.5119656)">
      <path
         d="m 561.434,308.805 v -11.914 h -7.719 v 11.039 h -1.555 v -12.578 h 10.824 v 11.914 h 6.762 v -11.364 h 1.555 v 12.903 z"
         style="fill:none;stroke:#ff00ff;stroke-width:0.566929;stroke-linecap:butt;stroke-linejoin:miter;stroke-miterlimit:4;stroke-dasharray:none;stroke-opacity:1"
         id="path1421" />
    </g>
    <g
       id="g1423"
       transform="matrix(0.35277777,0,0,0.35277777,-163.13059,1.5119656)">
      <path
         d="m 504.07,308.859 -10.246,-10.476 -9.547,10.402 -1.011,-1.074 10.527,-11.465 11.254,11.512 z"
         style="fill:none;stroke:#ff00ff;stroke-width:0.566929;stroke-linecap:butt;stroke-linejoin:miter;stroke-miterlimit:4;stroke-dasharray:none;stroke-opacity:1"
         id="path1425" />
    </g>
    <g
       id="g1427"
       transform="matrix(0.35277777,0,0,0.35277777,-163.13059,1.5119656)">
      <path
         d="m 483.176,255.367 h 6.703 v 1.328 h -5.125 v 3.438 h 4.625 v 1.328 h -4.625 v 5.578 h -1.578 z"
         style="fill:none;stroke:#ff00ff;stroke-width:0.749999;stroke-linecap:round;stroke-linejoin:round;stroke-miterlimit:4;stroke-dasharray:none;stroke-opacity:1"
         id="path1429" />
    </g>
    <g
       id="g1431"
       transform="matrix(0.35277777,0,0,0.35277777,-163.13059,1.5119656)">
      <path
         d="m 492.395,255.367 h 2.343 l 2.985,7.938 2.984,-7.938 h 2.359 v 11.672 h -1.546 v -10.25 l -3,8 h -1.594 l -3,-8 v 10.25 h -1.531 z"
         style="fill:none;stroke:#ff00ff;stroke-width:0.749999;stroke-linecap:round;stroke-linejoin:round;stroke-miterlimit:4;stroke-dasharray:none;stroke-opacity:1"
         id="path1433" />
    </g>
    <g
       id="g1435"
       transform="matrix(0.35277777,0,0,0.35277777,-163.13059,1.5119656)">
      <path
         d="m 517.508,256.496 v 4.391 h 1.984 c 0.727,0 1.289,-0.188 1.688,-0.563 0.406,-0.383 0.609,-0.929 0.609,-1.64 0,-0.696 -0.203,-1.235 -0.609,-1.61 -0.399,-0.383 -0.961,-0.578 -1.688,-0.578 z m -1.578,-1.297 h 3.562 c 1.301,0 2.285,0.297 2.953,0.891 0.676,0.594 1.016,1.461 1.016,2.594 0,1.156 -0.34,2.031 -1.016,2.625 -0.668,0.586 -1.652,0.875 -2.953,0.875 h -1.984 v 4.687 h -1.578 z"
         style="fill:none;stroke:#ff00ff;stroke-width:0.749999;stroke-linecap:round;stroke-linejoin:round;stroke-miterlimit:4;stroke-dasharray:none;stroke-opacity:1"
         id="path1437" />
    </g>
    <g
       id="g1439"
       transform="matrix(0.35277777,0,0,0.35277777,-163.13059,1.5119656)">
      <path
         d="m 524.539,255.199 h 1.594 l 2.453,9.86 2.453,-9.86 h 1.766 l 2.453,9.86 2.453,-9.86 h 1.594 l -2.922,11.672 h -1.985 l -2.468,-10.125 -2.485,10.125 h -1.984 z"
         style="fill:none;stroke:#ff00ff;stroke-width:0.749999;stroke-linecap:round;stroke-linejoin:round;stroke-miterlimit:4;stroke-dasharray:none;stroke-opacity:1"
         id="path1441" />
    </g>
    <g
       id="g1451"
       transform="matrix(0.35277777,0,0,0.35277777,-163.13059,1.5119656)">
      <path
         d="m 508.48,17.199 v 1.453 c -0.468,-0.425 -0.968,-0.742 -1.5,-0.953 -0.523,-0.219 -1.074,-0.328 -1.656,-0.328 -1.168,0 -2.062,0.359 -2.687,1.078 -0.617,0.711 -0.922,1.735 -0.922,3.078 0,1.344 0.305,2.375 0.922,3.094 0.625,0.711 1.519,1.063 2.687,1.063 0.582,0 1.133,-0.102 1.656,-0.313 0.532,-0.219 1.032,-0.547 1.5,-0.984 v 1.453 c -0.48,0.324 -0.992,0.57 -1.531,0.734 -0.543,0.164 -1.117,0.25 -1.719,0.25 -1.542,0 -2.761,-0.472 -3.656,-1.422 -0.886,-0.945 -1.328,-2.238 -1.328,-3.875 0,-1.632 0.442,-2.925 1.328,-3.875 0.895,-0.945 2.114,-1.422 3.656,-1.422 0.614,0 1.192,0.086 1.735,0.25 0.539,0.157 1.047,0.399 1.515,0.719 z"
         style="fill:none;stroke:#ff00ff;stroke-width:0.749999;stroke-linecap:round;stroke-linejoin:round;stroke-miterlimit:4;stroke-dasharray:none;stroke-opacity:1"
         id="path1453" />
    </g>
    <g
       id="g1455"
       transform="matrix(0.35277777,0,0,0.35277777,-163.13059,1.5119656)">
      <path
         d="m 514.77,17.355 c -1,0 -1.797,0.375 -2.391,1.125 -0.586,0.743 -0.875,1.758 -0.875,3.047 0,1.282 0.289,2.297 0.875,3.047 0.594,0.75 1.391,1.125 2.391,1.125 1,0 1.789,-0.375 2.375,-1.125 0.593,-0.75 0.89,-1.765 0.89,-3.047 0,-1.289 -0.297,-2.304 -0.89,-3.047 -0.586,-0.75 -1.375,-1.125 -2.375,-1.125 z m 0,-1.125 c 1.425,0 2.566,0.481 3.421,1.438 0.864,0.961 1.297,2.246 1.297,3.859 0,1.606 -0.433,2.891 -1.297,3.86 -0.855,0.961 -1.996,1.437 -3.421,1.437 -1.438,0 -2.59,-0.476 -3.454,-1.437 -0.855,-0.957 -1.281,-2.242 -1.281,-3.86 0,-1.613 0.426,-2.898 1.281,-3.859 0.864,-0.957 2.016,-1.438 3.454,-1.438 z"
         style="fill:none;stroke:#ff00ff;stroke-width:0.749999;stroke-linecap:round;stroke-linejoin:round;stroke-miterlimit:4;stroke-dasharray:none;stroke-opacity:1"
         id="path1457" />
    </g>
    <g
       id="g1459"
       transform="matrix(0.35277777,0,0,0.35277777,-163.13059,1.5119656)">
      <path
         d="m 524.809,17.777 -1.875,5.078 h 3.765 z m -0.782,-1.359 h 1.578 l 3.891,10.203 h -1.437 l -0.938,-2.625 h -4.594 l -0.937,2.625 h -1.453 z"
         style="fill:none;stroke:#ff00ff;stroke-width:0.749999;stroke-linecap:round;stroke-linejoin:round;stroke-miterlimit:4;stroke-dasharray:none;stroke-opacity:1"
         id="path1461" />
    </g>
    <g
       id="g1463"
       transform="matrix(0.35277777,0,0,0.35277777,-163.13059,1.5119656)">
      <path
         d="m 535.816,21.84 c 0.289,0.094 0.579,0.308 0.86,0.64 0.281,0.325 0.562,0.774 0.844,1.344 l 1.406,2.797 h -1.485 l -1.312,-2.625 c -0.336,-0.676 -0.664,-1.125 -0.984,-1.344 -0.313,-0.226 -0.743,-0.343 -1.282,-0.343 h -1.515 v 4.312 h -1.375 V 16.418 h 3.109 c 1.164,0 2.035,0.246 2.609,0.734 0.582,0.481 0.875,1.215 0.875,2.203 0,0.649 -0.152,1.184 -0.453,1.61 -0.304,0.418 -0.734,0.711 -1.297,0.875 z m -3.468,-4.297 v 3.625 h 1.734 c 0.664,0 1.172,-0.148 1.516,-0.453 0.343,-0.313 0.515,-0.766 0.515,-1.36 0,-0.593 -0.172,-1.039 -0.515,-1.343 -0.344,-0.313 -0.852,-0.469 -1.516,-0.469 z"
         style="fill:none;stroke:#ff00ff;stroke-width:0.749999;stroke-linecap:round;stroke-linejoin:round;stroke-miterlimit:4;stroke-dasharray:none;stroke-opacity:1"
         id="path1465" />
    </g>
    <g
       id="g1467"
       transform="matrix(0.35277777,0,0,0.35277777,-163.13059,1.5119656)">
      <path
         d="m 546.832,16.746 v 1.344 c -0.531,-0.25 -1.031,-0.43 -1.5,-0.547 -0.461,-0.125 -0.906,-0.188 -1.344,-0.188 -0.75,0 -1.328,0.149 -1.734,0.438 -0.406,0.293 -0.609,0.703 -0.609,1.234 0,0.461 0.132,0.805 0.406,1.032 0.269,0.23 0.785,0.414 1.547,0.546 l 0.828,0.172 c 1.031,0.2 1.789,0.547 2.281,1.047 0.488,0.492 0.734,1.153 0.734,1.985 0,0.992 -0.336,1.742 -1,2.25 -0.656,0.511 -1.625,0.765 -2.906,0.765 -0.492,0 -1.008,-0.058 -1.547,-0.172 -0.543,-0.101 -1.105,-0.265 -1.687,-0.484 v -1.422 c 0.562,0.313 1.109,0.555 1.64,0.719 0.539,0.156 1.071,0.234 1.594,0.234 0.781,0 1.383,-0.156 1.813,-0.469 0.437,-0.312 0.656,-0.753 0.656,-1.328 0,-0.5 -0.156,-0.89 -0.469,-1.172 -0.305,-0.281 -0.808,-0.492 -1.515,-0.64 l -0.844,-0.156 c -1.031,-0.207 -1.778,-0.532 -2.235,-0.969 -0.461,-0.438 -0.687,-1.047 -0.687,-1.828 0,-0.895 0.316,-1.602 0.953,-2.125 0.633,-0.52 1.508,-0.782 2.625,-0.782 0.477,0 0.969,0.047 1.469,0.141 0.5,0.086 1.008,0.211 1.531,0.375 z"
         style="fill:none;stroke:#ff00ff;stroke-width:0.749999;stroke-linecap:round;stroke-linejoin:round;stroke-miterlimit:4;stroke-dasharray:none;stroke-opacity:1"
         id="path1469" />
    </g>
    <g
       id="g1471"
       transform="matrix(0.35277777,0,0,0.35277777,-163.13059,1.5119656)">
      <path
         d="m 549.594,16.418 h 6.453 v 1.156 h -5.078 v 3.031 h 4.859 v 1.157 h -4.859 v 3.703 h 5.203 v 1.156 h -6.578 z"
         style="fill:none;stroke:#ff00ff;stroke-width:0.749999;stroke-linecap:round;stroke-linejoin:round;stroke-miterlimit:4;stroke-dasharray:none;stroke-opacity:1"
         id="path1473" />
    </g>
    <g
       id="g1475"
       transform="matrix(0.35277777,0,0,0.35277777,-163.13059,1.5119656)">
      <path
         d="m 513.688,120.668 h 5.859 v 1.156 h -4.485 v 3.016 h 4.047 v 1.156 h -4.047 v 4.875 h -1.374 z"
         style="fill:none;stroke:#ff00ff;stroke-width:0.749999;stroke-linecap:round;stroke-linejoin:round;stroke-miterlimit:4;stroke-dasharray:none;stroke-opacity:1"
         id="path1477" />
    </g>
    <g
       id="g1479"
       transform="matrix(0.35277777,0,0,0.35277777,-163.13059,1.5119656)">
      <path
         d="m 521.754,120.668 h 1.375 v 10.203 h -1.375 z"
         style="fill:none;stroke:#ff00ff;stroke-width:0.749999;stroke-linecap:round;stroke-linejoin:round;stroke-miterlimit:4;stroke-dasharray:none;stroke-opacity:1"
         id="path1481" />
    </g>
    <g
       id="g1483"
       transform="matrix(0.35277777,0,0,0.35277777,-163.13059,1.5119656)">
      <path
         d="m 525.883,120.668 h 1.859 l 4.531,8.531 v -8.531 h 1.329 v 10.203 h -1.86 l -4.515,-8.531 v 8.531 h -1.344 z"
         style="fill:none;stroke:#ff00ff;stroke-width:0.749999;stroke-linecap:round;stroke-linejoin:round;stroke-miterlimit:4;stroke-dasharray:none;stroke-opacity:1"
         id="path1485" />
    </g>
    <g
       id="g1487"
       transform="matrix(0.35277777,0,0,0.35277777,-163.13059,1.5119656)">
      <path
         d="m 536.355,120.668 h 6.454 v 1.156 h -5.079 v 3.031 h 4.86 v 1.157 h -4.86 v 3.703 h 5.204 v 1.156 h -6.579 z"
         style="fill:none;stroke:#ff00ff;stroke-width:0.749999;stroke-linecap:round;stroke-linejoin:round;stroke-miterlimit:4;stroke-dasharray:none;stroke-opacity:1"
         id="path1489" />
    </g>
    <g
       id="g1491"
       transform="matrix(0.35277777,0,0,0.35277777,-163.13059,1.5119656)">
      <path
         d="m 565.871,102.043 v 1.453 c -0.469,-0.426 -0.969,-0.742 -1.5,-0.953 -0.523,-0.219 -1.074,-0.328 -1.656,-0.328 -1.168,0 -2.063,0.359 -2.688,1.078 -0.617,0.711 -0.922,1.734 -0.922,3.078 0,1.344 0.305,2.375 0.922,3.094 0.625,0.711 1.52,1.062 2.688,1.062 0.582,0 1.133,-0.101 1.656,-0.312 0.531,-0.219 1.031,-0.547 1.5,-0.985 v 1.454 c -0.48,0.324 -0.992,0.57 -1.531,0.734 -0.543,0.164 -1.117,0.25 -1.719,0.25 -1.543,0 -2.762,-0.473 -3.656,-1.422 -0.887,-0.945 -1.328,-2.238 -1.328,-3.875 0,-1.633 0.441,-2.926 1.328,-3.875 0.894,-0.945 2.113,-1.422 3.656,-1.422 0.613,0 1.191,0.086 1.734,0.25 0.54,0.156 1.047,0.399 1.516,0.719 z"
         style="fill:none;stroke:#ff00ff;stroke-width:0.749999;stroke-linecap:round;stroke-linejoin:round;stroke-miterlimit:4;stroke-dasharray:none;stroke-opacity:1"
         id="path1493" />
    </g>
    <g
       id="g1495"
       transform="matrix(0.35277777,0,0,0.35277777,-163.13059,1.5119656)">
      <path
         d="m 570.645,111.465 -3.891,-10.203 h 1.437 l 3.235,8.593 3.25,-8.593 h 1.437 l -3.89,10.203 z"
         style="fill:none;stroke:#ff00ff;stroke-width:0.749999;stroke-linecap:round;stroke-linejoin:round;stroke-miterlimit:4;stroke-dasharray:none;stroke-opacity:1"
         id="path1497" />
    </g>
    <g
       id="g1499"
       transform="matrix(0.35277777,0,0,0.35277777,-163.13059,1.5119656)">
      <path
         d="m 520.25,191.488 v 3.844 h 1.734 c 0.645,0 1.145,-0.164 1.5,-0.5 0.352,-0.332 0.532,-0.805 0.532,-1.422 0,-0.613 -0.18,-1.086 -0.532,-1.422 -0.355,-0.332 -0.855,-0.5 -1.5,-0.5 z m -1.375,-1.125 h 3.109 c 1.145,0 2.008,0.262 2.594,0.782 0.594,0.511 0.891,1.265 0.891,2.265 0,1.012 -0.297,1.774 -0.891,2.281 -0.586,0.512 -1.449,0.766 -2.594,0.766 h -1.734 v 4.109 h -1.375 z"
         style="fill:none;stroke:#ff00ff;stroke-width:0.749999;stroke-linecap:round;stroke-linejoin:round;stroke-miterlimit:4;stroke-dasharray:none;stroke-opacity:1"
         id="path1501" />
    </g>
    <g
       id="g1503"
       transform="matrix(0.35277777,0,0,0.35277777,-163.13059,1.5119656)">
      <path
         d="m 526.418,190.363 h 1.391 l 2.14,8.625 2.141,-8.625 h 1.562 l 2.141,8.625 2.141,-8.625 h 1.406 l -2.563,10.203 h -1.75 l -2.14,-8.859 -2.172,8.859 h -1.75 z"
         style="fill:none;stroke:#ff00ff;stroke-width:0.749999;stroke-linecap:round;stroke-linejoin:round;stroke-miterlimit:4;stroke-dasharray:none;stroke-opacity:1"
         id="path1505" />
    </g>
    <g
       id="g1507"
       transform="matrix(0,-0.35277777,0.35277777,0,-163.13059,1.5119656)">
      <path
         d="m -192.797,481.531 c 0.945,0.199 1.688,0.621 2.219,1.266 0.531,0.637 0.797,1.422 0.797,2.359 0,1.438 -0.496,2.555 -1.485,3.344 -0.992,0.781 -2.398,1.172 -4.218,1.172 -0.618,0 -1.246,-0.063 -1.891,-0.188 -0.648,-0.113 -1.313,-0.289 -2,-0.531 v -1.906 c 0.539,0.324 1.133,0.57 1.781,0.734 0.656,0.157 1.336,0.235 2.047,0.235 1.238,0 2.18,-0.243 2.828,-0.735 0.645,-0.488 0.969,-1.195 0.969,-2.125 0,-0.863 -0.305,-1.535 -0.906,-2.015 -0.594,-0.489 -1.43,-0.735 -2.5,-0.735 h -1.703 v -1.625 h 1.781 c 0.969,0 1.707,-0.191 2.219,-0.578 0.507,-0.383 0.765,-0.941 0.765,-1.672 0,-0.75 -0.265,-1.32 -0.797,-1.719 -0.523,-0.406 -1.277,-0.609 -2.265,-0.609 -0.543,0 -1.125,0.063 -1.75,0.188 -0.617,0.117 -1.293,0.293 -2.032,0.531 v -1.75 c 0.75,-0.207 1.446,-0.363 2.094,-0.469 0.656,-0.101 1.274,-0.156 1.86,-0.156 1.5,0 2.679,0.344 3.546,1.031 0.876,0.68 1.313,1.594 1.313,2.75 0,0.805 -0.234,1.484 -0.703,2.047 -0.461,0.555 -1.117,0.937 -1.969,1.156 z"
         style="fill:none;stroke:#ff00ff;stroke-width:0.749999;stroke-linecap:round;stroke-linejoin:round;stroke-miterlimit:4;stroke-dasharray:none;stroke-opacity:1"
         id="path1509" />
    </g>
    <g
       id="g1511"
       transform="matrix(0,-0.35277777,0.35277777,0,-163.13059,1.5119656)">
      <path
         d="m -180.062,481.531 c 0.945,0.199 1.687,0.621 2.218,1.266 0.532,0.637 0.797,1.422 0.797,2.359 0,1.438 -0.496,2.555 -1.484,3.344 -0.992,0.781 -2.399,1.172 -4.219,1.172 -0.617,0 -1.246,-0.063 -1.891,-0.188 -0.648,-0.113 -1.312,-0.289 -2,-0.531 v -1.906 c 0.539,0.324 1.133,0.57 1.782,0.734 0.656,0.157 1.336,0.235 2.047,0.235 1.238,0 2.179,-0.243 2.828,-0.735 0.644,-0.488 0.968,-1.195 0.968,-2.125 0,-0.863 -0.304,-1.535 -0.906,-2.015 -0.594,-0.489 -1.43,-0.735 -2.5,-0.735 h -1.703 v -1.625 h 1.781 c 0.969,0 1.707,-0.191 2.219,-0.578 0.508,-0.383 0.766,-0.941 0.766,-1.672 0,-0.75 -0.266,-1.32 -0.797,-1.719 -0.524,-0.406 -1.278,-0.609 -2.266,-0.609 -0.543,0 -1.125,0.063 -1.75,0.188 -0.617,0.117 -1.293,0.293 -2.031,0.531 v -1.75 c 0.75,-0.207 1.445,-0.363 2.094,-0.469 0.656,-0.101 1.273,-0.156 1.859,-0.156 1.5,0 2.68,0.344 3.547,1.031 0.875,0.68 1.312,1.594 1.312,2.75 0,0.805 -0.234,1.484 -0.703,2.047 -0.461,0.555 -1.117,0.937 -1.968,1.156 z"
         style="fill:none;stroke:#ff00ff;stroke-width:0.749999;stroke-linecap:round;stroke-linejoin:round;stroke-miterlimit:4;stroke-dasharray:none;stroke-opacity:1"
         id="path1513" />
    </g>
    <g
       id="g1515"
       transform="matrix(0,-0.35277777,0.35277777,0,-163.13059,1.5119656)">
      <path
         d="m -167.875,476.531 -4.984,7.781 h 4.984 z m -0.516,-1.719 h 2.469 v 9.5 h 2.094 v 1.641 h -2.094 v 3.438 h -1.953 v -3.438 h -6.578 v -1.906 z"
         style="fill:none;stroke:#ff00ff;stroke-width:0.749999;stroke-linecap:round;stroke-linejoin:round;stroke-miterlimit:4;stroke-dasharray:none;stroke-opacity:1"
         id="path1517" />
    </g>
    <g
       id="g1519"
       transform="matrix(0,-0.35277777,0.35277777,0,-163.13059,1.5119656)">
      <path
         d="m -156.344,476.109 c -1.023,0 -1.789,0.5 -2.297,1.5 -0.511,1 -0.765,2.5 -0.765,4.5 0,2 0.254,3.5 0.765,4.5 0.508,1 1.274,1.5 2.297,1.5 1.02,0 1.785,-0.5 2.297,-1.5 0.508,-1 0.766,-2.5 0.766,-4.5 0,-2 -0.258,-3.5 -0.766,-4.5 -0.512,-1 -1.277,-1.5 -2.297,-1.5 z m 0,-1.562 c 1.633,0 2.879,0.648 3.735,1.937 0.863,1.293 1.297,3.168 1.297,5.625 0,2.461 -0.434,4.336 -1.297,5.625 -0.856,1.293 -2.102,1.938 -3.735,1.938 -1.636,0 -2.886,-0.645 -3.75,-1.938 -0.867,-1.289 -1.297,-3.164 -1.297,-5.625 0,-2.457 0.43,-4.332 1.297,-5.625 0.864,-1.289 2.114,-1.937 3.75,-1.937 z"
         style="fill:none;stroke:#ff00ff;stroke-width:0.749999;stroke-linecap:round;stroke-linejoin:round;stroke-miterlimit:4;stroke-dasharray:none;stroke-opacity:1"
         id="path1521" />
    </g>
    <g
       id="g1523"
       transform="matrix(0,-0.35277777,0.35277777,0,-163.13059,1.5119656)">
      <path
         d="m -143.734,483.109 h -5.25 v 1.609 h 5.25 z"
         style="fill:none;stroke:#ff00ff;stroke-width:0.749999;stroke-linecap:round;stroke-linejoin:round;stroke-miterlimit:4;stroke-dasharray:none;stroke-opacity:1"
         id="path1525" />
    </g>
    <g
       id="g1527"
       transform="matrix(0,-0.35277777,0.35277777,0,-163.13059,1.5119656)">
      <path
         d="m -138.195,489.391 -5.563,-14.579 h 2.063 l 4.625,12.266 4.625,-12.266 h 2.047 l -5.563,14.579 z"
         style="fill:none;stroke:#ff00ff;stroke-width:0.749999;stroke-linecap:round;stroke-linejoin:round;stroke-miterlimit:4;stroke-dasharray:none;stroke-opacity:1"
         id="path1529" />
    </g>
    <g
       id="g1531"
       transform="matrix(0,-0.35277777,0.35277777,0,-163.13059,1.5119656)">
      <path
         d="m -117.367,475.938 v 2.078 c -0.656,-0.625 -1.367,-1.086 -2.125,-1.391 -0.75,-0.301 -1.547,-0.453 -2.391,-0.453 -1.668,0 -2.945,0.512 -3.828,1.531 -0.887,1.012 -1.328,2.481 -1.328,4.406 0,1.93 0.441,3.403 1.328,4.422 0.883,1.012 2.16,1.516 3.828,1.516 0.844,0 1.641,-0.149 2.391,-0.453 0.758,-0.301 1.469,-0.766 2.125,-1.391 v 2.063 c -0.688,0.468 -1.418,0.824 -2.188,1.062 -0.773,0.227 -1.586,0.344 -2.437,0.344 -2.211,0 -3.949,-0.672 -5.219,-2.016 -1.273,-1.351 -1.906,-3.203 -1.906,-5.547 0,-2.343 0.633,-4.187 1.906,-5.531 1.27,-1.351 3.008,-2.031 5.219,-2.031 0.863,0 1.68,0.117 2.453,0.344 0.769,0.23 1.492,0.578 2.172,1.047 z"
         style="fill:none;stroke:#ff00ff;stroke-width:0.749999;stroke-linecap:round;stroke-linejoin:round;stroke-miterlimit:4;stroke-dasharray:none;stroke-opacity:1"
         id="path1533" />
    </g>
    <g
       id="g1535"
       transform="matrix(0,-0.35277777,0.35277777,0,-163.13059,1.5119656)">
      <path
         d="m -108.383,476.141 c -1.429,0 -2.562,0.539 -3.406,1.609 -0.844,1.062 -1.266,2.516 -1.266,4.359 0,1.844 0.422,3.305 1.266,4.375 0.844,1.063 1.977,1.594 3.406,1.594 1.438,0 2.571,-0.531 3.406,-1.594 0.844,-1.07 1.266,-2.531 1.266,-4.375 0,-1.843 -0.422,-3.297 -1.266,-4.359 -0.835,-1.07 -1.968,-1.609 -3.406,-1.609 z m 0,-1.594 c 2.051,0 3.688,0.687 4.906,2.062 1.227,1.368 1.844,3.2 1.844,5.5 0,2.305 -0.617,4.141 -1.844,5.516 -1.218,1.367 -2.855,2.047 -4.906,2.047 -2.043,0 -3.679,-0.68 -4.906,-2.047 -1.231,-1.363 -1.844,-3.203 -1.844,-5.516 0,-2.3 0.613,-4.132 1.844,-5.5 1.227,-1.375 2.863,-2.062 4.906,-2.062 z"
         style="fill:none;stroke:#ff00ff;stroke-width:0.749999;stroke-linecap:round;stroke-linejoin:round;stroke-miterlimit:4;stroke-dasharray:none;stroke-opacity:1"
         id="path1537" />
    </g>
    <text
       xml:space="preserve"
       style="font-size:5.64444px;line-height:1.25;font-family:sans-serif;letter-spacing:0px;word-spacing:0px;fill:none;stroke:#ff00ff;stroke-width:0.264583;stroke-opacity:1"
       x="31.101002"
       y="95.672241"
       id="text7757"><tspan
         sodipodi:role="line"
         id="tspan7755"
         x="31.101002"
         y="95.672241"
         style="font-size:5.64444px;fill:none;stroke:#ff00ff;stroke-width:0.264583;stroke-opacity:1">HS</tspan></text>
  </g>
</svg>
