  0
SECTION
  2
HEADER
  9
$MEASUREMENT
  70
  1
  9
$INSUNITS
  70
  4
  0
ENDSEC
  0
SECTION
  2
TABLES
  0
TABLE
  2
LTYPE
 70
     1
  0
LTYPE
  2
CONTINUOUS
 70
    64
  3
Ausgezogene Linie
 72
    65
 73
     0
 40
0.0
  0
ENDTAB
  0
TABLE
  2
LAYER
 70
     3
  0
LAYER
  2
Contour
 70
    64
 62
     7
  6
CONTINUOUS
  0
LAYER
  2
Engraving
 70
    64
 62
     7
  6
CONTINUOUS
  0
LAYER
  2
Reference_points
 70
    64
 62
     1
  6
CONTINUOUS
  0
ENDTAB
  0
TABLE
  2
STYLE
 70
     1
  0
STYLE
  2
TXT
 70
    64
 40
0.0
 41
1.0
 50
0.0
 71
     0
 42
3.500000
  3
TXT
  0
ENDTAB
  0
ENDSEC
  0
SECTION
  2
BLOCKS
  0
ENDSEC
  0
SECTION
  2
ENTITIES
  0
ARC
  8
Contour
 62
   7
 39
0.100
  6
CONTINUOUS
 10
29.00000
 20
127.40000
 30
 0
 40
1.00000
 50
0.00000
 51
90.00000
  0
LINE
  8
Contour
 62
   7
 39
0.100
  6
CONTINUOUS
 10
30.00000
 20
127.40000
 30
 0
 11
30.00000
 21
1.00000
  0
ARC
  8
Contour
 62
   7
 39
0.100
  6
CONTINUOUS
 10
29.00000
 20
1.00000
 30
 0
 40
1.00000
 50
-90.00000
 51
0.00000
  0
LINE
  8
Contour
 62
   7
 39
0.100
  6
CONTINUOUS
 10
29.00000
 20
0.00000
 30
 0
 11
1.00000
 21
0.00000
  0
ARC
  8
Contour
 62
   7
 39
0.100
  6
CONTINUOUS
 10
1.00000
 20
1.00000
 30
 0
 40
1.00000
 50
180.00000
 51
270.00000
  0
LINE
  8
Contour
 62
   7
 39
0.100
  6
CONTINUOUS
 10
0.00000
 20
1.00000
 30
 0
 11
0.00000
 21
127.40000
  0
ARC
  8
Contour
 62
   7
 39
0.100
  6
CONTINUOUS
 10
1.00000
 20
127.40000
 30
 0
 40
1.00000
 50
90.00000
 51
180.00000
  0
LINE
  8
Contour
 62
   7
 39
0.100
  6
CONTINUOUS
 10
1.00000
 20
128.40000
 30
 0
 11
29.00000
 21
128.40000
  0
CIRCLE
  8
Contour
 62
   7
 39
0.100
  6
CONTINUOUS
 10
18.00000
 20
59.20000
 30
 0
 40
3.50000
  0
CIRCLE
  8
Contour
 62
   7
 39
0.100
  6
CONTINUOUS
 10
18.00000
 20
110.00000
 30
 0
 40
3.50000
  0
ARC
  8
Contour
 62
   7
 39
0.100
  6
CONTINUOUS
 10
18.70000
 20
125.56900
 30
 0
 40
1.60000
 50
180.00000
 51
270.00000
  0
LINE
  8
Contour
 62
   7
 39
0.100
  6
CONTINUOUS
 10
18.70000
 20
123.96900
 30
 0
 11
23.50000
 21
123.96900
  0
ARC
  8
Contour
 62
   7
 39
0.100
  6
CONTINUOUS
 10
23.50000
 20
125.56900
 30
 0
 40
1.60000
 50
270.00000
 51
360.00000
  0
LINE
  8
Contour
 62
   7
 39
0.100
  6
CONTINUOUS
 10
25.10000
 20
125.56900
 30
 0
 11
25.10000
 21
125.56900
  0
ARC
  8
Contour
 62
   7
 39
0.100
  6
CONTINUOUS
 10
23.50000
 20
125.56900
 30
 0
 40
1.60000
 50
0.00000
 51
90.00000
  0
LINE
  8
Contour
 62
   7
 39
0.100
  6
CONTINUOUS
 10
23.50000
 20
127.16900
 30
 0
 11
18.70000
 21
127.16900
  0
ARC
  8
Contour
 62
   7
 39
0.100
  6
CONTINUOUS
 10
18.70000
 20
125.56900
 30
 0
 40
1.60000
 50
90.00000
 51
180.00000
  0
LINE
  8
Contour
 62
   7
 39
0.100
  6
CONTINUOUS
 10
17.10000
 20
125.56900
 30
 0
 11
17.10000
 21
125.56900
  0
ARC
  8
Contour
 62
   7
 39
0.100
  6
CONTINUOUS
 10
18.70000
 20
3.00000
 30
 0
 40
1.60000
 50
180.00000
 51
270.00000
  0
LINE
  8
Contour
 62
   7
 39
0.100
  6
CONTINUOUS
 10
18.70000
 20
1.40000
 30
 0
 11
23.50000
 21
1.40000
  0
ARC
  8
Contour
 62
   7
 39
0.100
  6
CONTINUOUS
 10
23.50000
 20
3.00000
 30
 0
 40
1.60000
 50
270.00000
 51
360.00000
  0
LINE
  8
Contour
 62
   7
 39
0.100
  6
CONTINUOUS
 10
25.10000
 20
3.00000
 30
 0
 11
25.10000
 21
3.00000
  0
ARC
  8
Contour
 62
   7
 39
0.100
  6
CONTINUOUS
 10
23.50000
 20
3.00000
 30
 0
 40
1.60000
 50
0.00000
 51
90.00000
  0
LINE
  8
Contour
 62
   7
 39
0.100
  6
CONTINUOUS
 10
23.50000
 20
4.60000
 30
 0
 11
18.70000
 21
4.60000
  0
ARC
  8
Contour
 62
   7
 39
0.100
  6
CONTINUOUS
 10
18.70000
 20
3.00000
 30
 0
 40
1.60000
 50
90.00000
 51
180.00000
  0
LINE
  8
Contour
 62
   7
 39
0.100
  6
CONTINUOUS
 10
17.10000
 20
3.00000
 30
 0
 11
17.10000
 21
3.00000
  0
CIRCLE
  8
Contour
 62
   7
 39
0.100
  6
CONTINUOUS
 10
22.00000
 20
18.00000
 30
 0
 40
3.00000
  0
CIRCLE
  8
Contour
 62
   7
 39
0.100
  6
CONTINUOUS
 10
8.00000
 20
18.00000
 30
 0
 40
3.00000
  0
CIRCLE
  8
Contour
 62
   7
 39
0.100
  6
CONTINUOUS
 10
8.00000
 20
35.00000
 30
 0
 40
3.00000
  0
CIRCLE
  8
Contour
 62
   7
 39
0.100
  6
CONTINUOUS
 10
22.00000
 20
35.00000
 30
 0
 40
3.00000
  0
CIRCLE
  8
Contour
 62
   7
 39
0.100
  6
CONTINUOUS
 10
7.50000
 20
3.00000
 30
 0
 40
1.60000
  0
CIRCLE
  8
Contour
 62
   7
 39
0.100
  6
CONTINUOUS
 10
7.50000
 20
125.50000
 30
 0
 40
1.60000
  0
CIRCLE
  8
Contour
 62
   7
 39
0.100
  6
CONTINUOUS
 10
17.74800
 20
84.60000
 30
 0
 40
3.50000
  0
ENDSEC
  0
EOF
